<?xml version="1.0" encoding="us-ascii" standalone="no"?><svg xmlns="http://www.w3.org/2000/svg" xmlns:xlink="http://www.w3.org/1999/xlink" contentStyleType="text/css" height="271px" preserveAspectRatio="none" style="width:851px;height:271px;background:#FFFFFF;" version="1.1" viewBox="0 0 851 271" width="851px" zoomAndPan="magnify"><defs/><g><!--entity SP--><g id="elem_SP"><rect fill="#F1F1F1" height="46.2969" rx="2.5" ry="2.5" style="stroke:#181818;stroke-width:0.5;" width="58" x="255" y="7"/><rect fill="#F1F1F1" height="10" style="stroke:#181818;stroke-width:0.5;" width="15" x="293" y="12"/><rect fill="#F1F1F1" height="2" style="stroke:#181818;stroke-width:0.5;" width="4" x="291" y="14"/><rect fill="#F1F1F1" height="2" style="stroke:#181818;stroke-width:0.5;" width="4" x="291" y="18"/><text fill="#000000" font-family="sans-serif" font-size="14" lengthAdjust="spacing" textLength="18" x="270" y="39.9951">SP</text></g><!--entity Tokenizer--><g id="elem_Tokenizer"><rect fill="#F1F1F1" height="46.2969" rx="2.5" ry="2.5" style="stroke:#181818;stroke-width:0.5;" width="112" x="7" y="113"/><rect fill="#F1F1F1" height="10" style="stroke:#181818;stroke-width:0.5;" width="15" x="99" y="118"/><rect fill="#F1F1F1" height="2" style="stroke:#181818;stroke-width:0.5;" width="4" x="97" y="120"/><rect fill="#F1F1F1" height="2" style="stroke:#181818;stroke-width:0.5;" width="4" x="97" y="124"/><text fill="#000000" font-family="sans-serif" font-size="14" lengthAdjust="spacing" textLength="72" x="22" y="145.9951">Tokenizer</text></g><!--entity Parser--><g id="elem_Parser"><rect fill="#F1F1F1" height="46.2969" rx="2.5" ry="2.5" style="stroke:#181818;stroke-width:0.5;" width="85" x="154.5" y="113"/><rect fill="#F1F1F1" height="10" style="stroke:#181818;stroke-width:0.5;" width="15" x="219.5" y="118"/><rect fill="#F1F1F1" height="2" style="stroke:#181818;stroke-width:0.5;" width="4" x="217.5" y="120"/><rect fill="#F1F1F1" height="2" style="stroke:#181818;stroke-width:0.5;" width="4" x="217.5" y="124"/><text fill="#000000" font-family="sans-serif" font-size="14" lengthAdjust="spacing" textLength="45" x="169.5" y="145.9951">Parser</text></g><!--entity SpSemanticValidator--><g id="elem_SpSemanticValidator"><rect fill="#F1F1F1" height="46.2969" rx="2.5" ry="2.5" style="stroke:#181818;stroke-width:0.5;" width="192" x="275" y="113"/><rect fill="#F1F1F1" height="10" style="stroke:#181818;stroke-width:0.5;" width="15" x="447" y="118"/><rect fill="#F1F1F1" height="2" style="stroke:#181818;stroke-width:0.5;" width="4" x="445" y="120"/><rect fill="#F1F1F1" height="2" style="stroke:#181818;stroke-width:0.5;" width="4" x="445" y="124"/><text fill="#000000" font-family="sans-serif" font-size="14" lengthAdjust="spacing" textLength="152" x="290" y="145.9951">SpSemanticValidator</text></g><!--entity DesignExtractor--><g id="elem_DesignExtractor"><rect fill="#F1F1F1" height="46.2969" rx="2.5" ry="2.5" style="stroke:#181818;stroke-width:0.5;" width="157" x="502.5" y="113"/><rect fill="#F1F1F1" height="10" style="stroke:#181818;stroke-width:0.5;" width="15" x="639.5" y="118"/><rect fill="#F1F1F1" height="2" style="stroke:#181818;stroke-width:0.5;" width="4" x="637.5" y="120"/><rect fill="#F1F1F1" height="2" style="stroke:#181818;stroke-width:0.5;" width="4" x="637.5" y="124"/><text fill="#000000" font-family="sans-serif" font-size="14" lengthAdjust="spacing" textLength="117" x="517.5" y="145.9951">DesignExtractor</text></g><!--entity EntityExtractor--><g id="elem_EntityExtractor"><rect fill="#F1F1F1" height="46.2969" rx="2.5" ry="2.5" style="stroke:#181818;stroke-width:0.5;" width="152" x="297" y="219"/><rect fill="#F1F1F1" height="10" style="stroke:#181818;stroke-width:0.5;" width="15" x="429" y="224"/><rect fill="#F1F1F1" height="2" style="stroke:#181818;stroke-width:0.5;" width="4" x="427" y="226"/><rect fill="#F1F1F1" height="2" style="stroke:#181818;stroke-width:0.5;" width="4" x="427" y="230"/><text fill="#000000" font-family="sans-serif" font-size="14" lengthAdjust="spacing" textLength="112" x="312" y="251.9951">EntityExtractor</text></g><!--entity AbstractionExtractor--><g id="elem_AbstractionExtractor"><rect fill="#F1F1F1" height="46.2969" rx="2.5" ry="2.5" style="stroke:#181818;stroke-width:0.5;" width="193" x="484.5" y="219"/><rect fill="#F1F1F1" height="10" style="stroke:#181818;stroke-width:0.5;" width="15" x="657.5" y="224"/><rect fill="#F1F1F1" height="2" style="stroke:#181818;stroke-width:0.5;" width="4" x="655.5" y="226"/><rect fill="#F1F1F1" height="2" style="stroke:#181818;stroke-width:0.5;" width="4" x="655.5" y="230"/><text fill="#000000" font-family="sans-serif" font-size="14" lengthAdjust="spacing" textLength="153" x="499.5" y="251.9951">AbstractionExtractor</text></g><!--entity CfgExtractor--><g id="elem_CfgExtractor"><rect fill="#F1F1F1" height="46.2969" rx="2.5" ry="2.5" style="stroke:#181818;stroke-width:0.5;" width="133" x="712.5" y="219"/><rect fill="#F1F1F1" height="10" style="stroke:#181818;stroke-width:0.5;" width="15" x="825.5" y="224"/><rect fill="#F1F1F1" height="2" style="stroke:#181818;stroke-width:0.5;" width="4" x="823.5" y="226"/><rect fill="#F1F1F1" height="2" style="stroke:#181818;stroke-width:0.5;" width="4" x="823.5" y="230"/><text fill="#000000" font-family="sans-serif" font-size="14" lengthAdjust="spacing" textLength="93" x="727.5" y="251.9951">CfgExtractor</text></g><!--link SP to Tokenizer--><g id="link_SP_Tokenizer"><path d="M254.653,44.81 C218.968,61.604 158.116,90.24 114.55,110.741 " fill="none" id="SP-to-Tokenizer" style="stroke:#181818;stroke-width:1.0;"/><polygon fill="#181818" points="109.859,112.949,119.7056,112.737,114.3833,110.8204,116.2999,105.4981,109.859,112.949" style="stroke:#181818;stroke-width:1.0;"/></g><!--link SP to Parser--><g id="link_SP_Parser"><path d="M265.55,53.056 C251.939,69.326 233.365,91.529 218.984,108.72 " fill="none" id="SP-to-Parser" style="stroke:#181818;stroke-width:1.0;"/><polygon fill="#181818" points="215.424,112.976,224.2674,108.6409,218.6328,109.1415,218.1322,103.5068,215.424,112.976" style="stroke:#181818;stroke-width:1.0;"/></g><!--link SP to SpSemanticValidator--><g id="link_SP_SpSemanticValidator"><path d="M302.45,53.056 C316.061,69.326 334.635,91.529 349.016,108.72 " fill="none" id="SP-to-SpSemanticValidator" style="stroke:#181818;stroke-width:1.0;"/><polygon fill="#181818" points="352.576,112.976,349.8678,103.5068,349.3672,109.1415,343.7326,108.6409,352.576,112.976" style="stroke:#181818;stroke-width:1.0;"/></g><!--link SP to DesignExtractor--><g id="link_SP_DesignExtractor"><path d="M313.018,41.161 C359.038,57.276 450,89.128 513.102,111.224 " fill="none" id="SP-to-DesignExtractor" style="stroke:#181818;stroke-width:1.0;"/><polygon fill="#181818" points="517.976,112.931,510.8044,106.1806,513.2571,111.278,508.1597,113.7308,517.976,112.931" style="stroke:#181818;stroke-width:1.0;"/></g><!--link DesignExtractor to EntityExtractor--><g id="link_DesignExtractor_EntityExtractor"><path d="M536.889,159.056 C503.107,175.9465 456.537,199.2315 421.671,216.6645 " fill="none" id="DesignExtractor-to-EntityExtractor" style="stroke:#181818;stroke-width:1.0;"/><polygon fill="#181818" points="417.048,218.9761,426.8866,218.527,421.5197,216.7392,423.3075,211.3723,417.048,218.9761" style="stroke:#181818;stroke-width:1.0;"/></g><!--link DesignExtractor to AbstractionExtractor--><g id="link_DesignExtractor_AbstractionExtractor"><path d="M581,159.056 C581,175.0503 581,196.7785 581,213.8418 " fill="none" id="DesignExtractor-to-AbstractionExtractor" style="stroke:#181818;stroke-width:1.0;"/><polygon fill="#181818" points="581,218.9761,585,209.9761,581,213.9761,577,209.9761,581,218.9761" style="stroke:#181818;stroke-width:1.0;"/></g><!--link DesignExtractor to CfgExtractor--><g id="link_DesignExtractor_CfgExtractor"><path d="M622.991,159.056 C655.017,175.8776 699.118,199.0415 732.262,216.4507 " fill="none" id="DesignExtractor-to-CfgExtractor" style="stroke:#181818;stroke-width:1.0;"/><polygon fill="#181818" points="737.07,218.9761,730.9632,211.2491,732.6437,216.6505,727.2423,218.3311,737.07,218.9761" style="stroke:#181818;stroke-width:1.0;"/></g><!--link Tokenizer to Parser--><!--link Parser to SpSemanticValidator--><!--link SpSemanticValidator to DesignExtractor--><!--SRC=[ROz13i8W44Ntd88BS0KJezsJODmO5mXZ9TgX0HRgwTMABU2io7z_9hmnVXWz0YQk96DcJZj_1NHF22MKEiIQg571e34vizStPtNoLRs5w7hixYbeywcMfdllf0VLh4znWiwJYvjpls2c91TYLTXca4rpeYnprHesUPffNQaPqfeQhFndRouE5sSjuF6d_dqAJXxnpugDvliN]--></g></svg>