<?xml version="1.0" encoding="UTF-8" standalone="no"?><svg xmlns="http://www.w3.org/2000/svg" xmlns:xlink="http://www.w3.org/1999/xlink" contentStyleType="text/css" height="398px" preserveAspectRatio="none" style="width:1655px;height:398px;background:#FFFFFF;" version="1.1" viewBox="0 0 1655 398" width="1655px" zoomAndPan="magnify"><defs/><g><!--class PkbTypes--><g id="elem_PkbTypes"><rect codeLine="1" fill="#F1F1F1" height="145.7813" id="PkbTypes" rx="2.5" ry="2.5" style="stroke:#181818;stroke-width:0.5;" width="234" x="56" y="7"/><ellipse cx="133.25" cy="23" fill="#ADD1B2" rx="11" ry="11" style="stroke:#181818;stroke-width:1.0;"/><path d="M135.5938,18.6719 C134.6563,18.2344 134.0625,18.0938 133.1875,18.0938 C130.5625,18.0938 128.5625,20.1719 128.5625,22.8906 L128.5625,24.0156 C128.5625,26.5938 130.6719,28.4844 133.5625,28.4844 C134.7813,28.4844 135.9375,28.1875 136.6875,27.6406 C137.2656,27.2344 137.5938,26.7813 137.5938,26.3906 C137.5938,25.9375 137.2031,25.5469 136.7344,25.5469 C136.5156,25.5469 136.3125,25.625 136.125,25.8125 C135.6719,26.2969 135.6719,26.2969 135.4844,26.3906 C135.0625,26.6563 134.375,26.7813 133.6094,26.7813 C131.5625,26.7813 130.2656,25.6875 130.2656,23.9844 L130.2656,22.8906 C130.2656,21.1094 131.5156,19.7969 133.25,19.7969 C133.8281,19.7969 134.4375,19.9531 134.9063,20.2031 C135.3906,20.4844 135.5625,20.7031 135.6563,21.1094 C135.7188,21.5156 135.75,21.6406 135.8906,21.7656 C136.0313,21.9063 136.2656,22.0156 136.4844,22.0156 C136.75,22.0156 137.0156,21.875 137.1875,21.6563 C137.2969,21.5 137.3281,21.3125 137.3281,20.8906 L137.3281,19.4688 C137.3281,19.0313 137.3125,18.9063 137.2188,18.75 C137.0625,18.4844 136.7813,18.3438 136.4844,18.3438 C136.1875,18.3438 135.9844,18.4375 135.7656,18.75 L135.5938,18.6719 Z " fill="#000000"/><text fill="#000000" font-family="sans-serif" font-size="14" lengthAdjust="spacing" textLength="71" x="153.75" y="27.8467">PkbTypes</text><line style="stroke:#181818;stroke-width:0.5;" x1="57" x2="289" y1="39" y2="39"/><ellipse cx="67" cy="52.6484" fill="none" rx="3" ry="3" style="stroke:#038048;stroke-width:1.0;"/><text fill="#000000" font-family="sans-serif" font-size="14" lengthAdjust="spacing" textLength="143" x="76" y="55.9951">PROCEDURE : string</text><ellipse cx="67" cy="68.9453" fill="none" rx="3" ry="3" style="stroke:#038048;stroke-width:1.0;"/><text fill="#000000" font-family="sans-serif" font-size="14" lengthAdjust="spacing" textLength="126" x="76" y="72.292">VARIABLE : string</text><ellipse cx="67" cy="85.2422" fill="none" rx="3" ry="3" style="stroke:#038048;stroke-width:1.0;"/><text fill="#000000" font-family="sans-serif" font-size="14" lengthAdjust="spacing" textLength="133" x="76" y="88.5889">CONSTANT : string</text><ellipse cx="67" cy="101.5391" fill="none" rx="3" ry="3" style="stroke:#038048;stroke-width:1.0;"/><text fill="#000000" font-family="sans-serif" font-size="14" lengthAdjust="spacing" textLength="208" x="76" y="104.8857">STATEMENT_NUMBER : string</text><ellipse cx="67" cy="117.8359" fill="none" rx="3" ry="3" style="stroke:#038048;stroke-width:1.0;"/><text fill="#000000" font-family="sans-serif" font-size="14" lengthAdjust="spacing" textLength="95" x="76" y="121.1826">FIELD : string</text><ellipse cx="67" cy="134.1328" fill="none" rx="3" ry="3" style="stroke:#038048;stroke-width:1.0;"/><text fill="#000000" font-family="sans-serif" font-size="14" lengthAdjust="spacing" textLength="99" x="76" y="137.4795">INDEX : size_t</text><line style="stroke:#181818;stroke-width:0.5;" x1="57" x2="289" y1="144.7813" y2="144.7813"/></g><!--class PkbCommunicationTypes--><g id="elem_PkbCommunicationTypes"><rect codeLine="10" fill="#F1F1F1" height="113.1875" id="PkbCommunicationTypes" rx="2.5" ry="2.5" style="stroke:#181818;stroke-width:0.5;" width="430" x="325" y="23.5"/><ellipse cx="443.75" cy="39.5" fill="#ADD1B2" rx="11" ry="11" style="stroke:#181818;stroke-width:1.0;"/><path d="M446.0938,35.1719 C445.1563,34.7344 444.5625,34.5938 443.6875,34.5938 C441.0625,34.5938 439.0625,36.6719 439.0625,39.3906 L439.0625,40.5156 C439.0625,43.0938 441.1719,44.9844 444.0625,44.9844 C445.2813,44.9844 446.4375,44.6875 447.1875,44.1406 C447.7656,43.7344 448.0938,43.2813 448.0938,42.8906 C448.0938,42.4375 447.7031,42.0469 447.2344,42.0469 C447.0156,42.0469 446.8125,42.125 446.625,42.3125 C446.1719,42.7969 446.1719,42.7969 445.9844,42.8906 C445.5625,43.1563 444.875,43.2813 444.1094,43.2813 C442.0625,43.2813 440.7656,42.1875 440.7656,40.4844 L440.7656,39.3906 C440.7656,37.6094 442.0156,36.2969 443.75,36.2969 C444.3281,36.2969 444.9375,36.4531 445.4063,36.7031 C445.8906,36.9844 446.0625,37.2031 446.1563,37.6094 C446.2188,38.0156 446.25,38.1406 446.3906,38.2656 C446.5313,38.4063 446.7656,38.5156 446.9844,38.5156 C447.25,38.5156 447.5156,38.375 447.6875,38.1563 C447.7969,38 447.8281,37.8125 447.8281,37.3906 L447.8281,35.9688 C447.8281,35.5313 447.8125,35.4063 447.7188,35.25 C447.5625,34.9844 447.2813,34.8438 446.9844,34.8438 C446.6875,34.8438 446.4844,34.9375 446.2656,35.25 L446.0938,35.1719 Z " fill="#000000"/><text fill="#000000" font-family="sans-serif" font-size="14" lengthAdjust="spacing" textLength="184" x="464.25" y="44.3467">PkbCommunicationTypes</text><line style="stroke:#181818;stroke-width:0.5;" x1="326" x2="754" y1="55.5" y2="55.5"/><ellipse cx="336" cy="69.1484" fill="none" rx="3" ry="3" style="stroke:#038048;stroke-width:1.0;"/><text fill="#000000" font-family="sans-serif" font-size="14" lengthAdjust="spacing" textLength="175" x="345" y="72.4951">SingleConstraint : string</text><ellipse cx="336" cy="85.4453" fill="none" rx="3" ry="3" style="stroke:#038048;stroke-width:1.0;"/><text fill="#000000" font-family="sans-serif" font-size="14" lengthAdjust="spacing" textLength="404" x="345" y="88.792">SingleConstraintSet : unordered_set&lt;SingleConstraint&gt;</text><ellipse cx="336" cy="101.7422" fill="none" rx="3" ry="3" style="stroke:#038048;stroke-width:1.0;"/><text fill="#000000" font-family="sans-serif" font-size="14" lengthAdjust="spacing" textLength="158" x="345" y="105.0889">PairConstraint : string</text><ellipse cx="336" cy="118.0391" fill="none" rx="3" ry="3" style="stroke:#038048;stroke-width:1.0;"/><text fill="#000000" font-family="sans-serif" font-size="14" lengthAdjust="spacing" textLength="370" x="345" y="121.3857">PairConstraintSet : unordered_set&lt;PairConstraint&gt;</text><line style="stroke:#181818;stroke-width:0.5;" x1="326" x2="754" y1="128.6875" y2="128.6875"/></g><!--class ExpressionUtil--><g id="elem_ExpressionUtil"><rect codeLine="17" fill="#F1F1F1" height="80.5938" id="ExpressionUtil" rx="2.5" ry="2.5" style="stroke:#181818;stroke-width:0.5;" width="858" x="790" y="39.5"/><ellipse cx="1163.75" cy="55.5" fill="#ADD1B2" rx="11" ry="11" style="stroke:#181818;stroke-width:1.0;"/><path d="M1166.0938,51.1719 C1165.1563,50.7344 1164.5625,50.5938 1163.6875,50.5938 C1161.0625,50.5938 1159.0625,52.6719 1159.0625,55.3906 L1159.0625,56.5156 C1159.0625,59.0938 1161.1719,60.9844 1164.0625,60.9844 C1165.2813,60.9844 1166.4375,60.6875 1167.1875,60.1406 C1167.7656,59.7344 1168.0938,59.2813 1168.0938,58.8906 C1168.0938,58.4375 1167.7031,58.0469 1167.2344,58.0469 C1167.0156,58.0469 1166.8125,58.125 1166.625,58.3125 C1166.1719,58.7969 1166.1719,58.7969 1165.9844,58.8906 C1165.5625,59.1563 1164.875,59.2813 1164.1094,59.2813 C1162.0625,59.2813 1160.7656,58.1875 1160.7656,56.4844 L1160.7656,55.3906 C1160.7656,53.6094 1162.0156,52.2969 1163.75,52.2969 C1164.3281,52.2969 1164.9375,52.4531 1165.4063,52.7031 C1165.8906,52.9844 1166.0625,53.2031 1166.1563,53.6094 C1166.2188,54.0156 1166.25,54.1406 1166.3906,54.2656 C1166.5313,54.4063 1166.7656,54.5156 1166.9844,54.5156 C1167.25,54.5156 1167.5156,54.375 1167.6875,54.1563 C1167.7969,54 1167.8281,53.8125 1167.8281,53.3906 L1167.8281,51.9688 C1167.8281,51.5313 1167.8125,51.4063 1167.7188,51.25 C1167.5625,50.9844 1167.2813,50.8438 1166.9844,50.8438 C1166.6875,50.8438 1166.4844,50.9375 1166.2656,51.25 L1166.0938,51.1719 Z " fill="#000000"/><text fill="#000000" font-family="sans-serif" font-size="14" lengthAdjust="spacing" textLength="102" x="1184.25" y="60.3467">ExpressionUtil</text><line style="stroke:#181818;stroke-width:0.5;" x1="791" x2="1647" y1="71.5" y2="71.5"/><line style="stroke:#181818;stroke-width:0.5;" x1="791" x2="1647" y1="79.5" y2="79.5"/><ellipse cx="801" cy="93.1484" fill="#84BE84" rx="3" ry="3" style="stroke:#038048;stroke-width:1.0;"/><text fill="#000000" font-family="sans-serif" font-size="14" lengthAdjust="spacing" text-decoration="underline" textLength="818" x="810" y="96.4951">retrieveAllVariablesFromExpression(shared_ptr&lt;Expression&gt; expression) : unordered_set&lt;PkbTypes::VARIABLE&gt;</text><ellipse cx="801" cy="109.4453" fill="#84BE84" rx="3" ry="3" style="stroke:#038048;stroke-width:1.0;"/><text fill="#000000" font-family="sans-serif" font-size="14" lengthAdjust="spacing" text-decoration="underline" textLength="832" x="810" y="112.792">retrieveAllConstantsFromExpression(shared_ptr&lt;Expression&gt; expression) : unordered_set&lt;PkbTypes::CONSTANT&gt;</text></g><!--class PairHasherUtil--><g id="elem_PairHasherUtil"><rect codeLine="23" fill="#F1F1F1" height="64.2969" id="PairHasherUtil" rx="2.5" ry="2.5" style="stroke:#181818;stroke-width:0.5;" width="332" x="7" y="270"/><ellipse cx="118.75" cy="286" fill="#ADD1B2" rx="11" ry="11" style="stroke:#181818;stroke-width:1.0;"/><path d="M121.0938,281.6719 C120.1563,281.2344 119.5625,281.0938 118.6875,281.0938 C116.0625,281.0938 114.0625,283.1719 114.0625,285.8906 L114.0625,287.0156 C114.0625,289.5938 116.1719,291.4844 119.0625,291.4844 C120.2813,291.4844 121.4375,291.1875 122.1875,290.6406 C122.7656,290.2344 123.0938,289.7813 123.0938,289.3906 C123.0938,288.9375 122.7031,288.5469 122.2344,288.5469 C122.0156,288.5469 121.8125,288.625 121.625,288.8125 C121.1719,289.2969 121.1719,289.2969 120.9844,289.3906 C120.5625,289.6563 119.875,289.7813 119.1094,289.7813 C117.0625,289.7813 115.7656,288.6875 115.7656,286.9844 L115.7656,285.8906 C115.7656,284.1094 117.0156,282.7969 118.75,282.7969 C119.3281,282.7969 119.9375,282.9531 120.4063,283.2031 C120.8906,283.4844 121.0625,283.7031 121.1563,284.1094 C121.2188,284.5156 121.25,284.6406 121.3906,284.7656 C121.5313,284.9063 121.7656,285.0156 121.9844,285.0156 C122.25,285.0156 122.5156,284.875 122.6875,284.6563 C122.7969,284.5 122.8281,284.3125 122.8281,283.8906 L122.8281,282.4688 C122.8281,282.0313 122.8125,281.9063 122.7188,281.75 C122.5625,281.4844 122.2813,281.3438 121.9844,281.3438 C121.6875,281.3438 121.4844,281.4375 121.2656,281.75 L121.0938,281.6719 Z " fill="#000000"/><text fill="#000000" font-family="sans-serif" font-size="14" lengthAdjust="spacing" textLength="100" x="139.25" y="290.8467">PairHasherUtil</text><line style="stroke:#181818;stroke-width:0.5;" x1="8" x2="338" y1="302" y2="302"/><line style="stroke:#181818;stroke-width:0.5;" x1="8" x2="338" y1="310" y2="310"/><ellipse cx="18" cy="323.6484" fill="#84BE84" rx="3" ry="3" style="stroke:#038048;stroke-width:1.0;"/><text fill="#000000" font-family="sans-serif" font-size="14" lengthAdjust="spacing" text-decoration="underline" textLength="306" x="27" y="326.9951">hash_combine(size_t &amp;seed, T const &amp;key)</text></g><!--class StatementType--><g id="elem_StatementType"><rect codeLine="29" fill="#F1F1F1" height="178.375" id="StatementType" rx="2.5" ry="2.5" style="stroke:#181818;stroke-width:0.5;" width="147" x="374.5" y="213"/><ellipse cx="389.5" cy="229" fill="#EB937F" rx="11" ry="11" style="stroke:#181818;stroke-width:1.0;"/><path d="M388.2969,229.875 L389.75,229.875 L389.75,229.9844 C389.75,230.3906 389.7813,230.5469 389.8594,230.7031 C390.0156,230.9531 390.2969,231.1094 390.5938,231.1094 C390.8438,231.1094 391.1094,230.9688 391.2656,230.75 C391.3906,230.5938 391.4219,230.4375 391.4219,229.9844 L391.4219,228.0625 C391.4219,227.9063 391.4219,227.8594 391.4063,227.7031 C391.3438,227.2344 391.0313,226.9219 390.5781,226.9219 C390.3281,226.9219 390.0625,227.0625 389.8906,227.2813 C389.7813,227.4531 389.75,227.6094 389.75,228.0625 L389.75,228.1875 L388.2969,228.1875 L388.2969,225.7813 L392.2813,225.7813 L392.2813,226.6406 C392.2813,227.0469 392.3125,227.2188 392.3906,227.375 C392.5625,227.625 392.8438,227.7813 393.125,227.7813 C393.3906,227.7813 393.6563,227.6406 393.8281,227.4219 C393.9375,227.25 393.9688,227.1094 393.9688,226.6406 L393.9688,224.0938 L386.3438,224.0938 C385.9063,224.0938 385.7813,224.1094 385.625,224.2031 C385.375,224.3594 385.2188,224.6563 385.2188,224.9375 C385.2188,225.2188 385.3594,225.4688 385.5781,225.6406 C385.7344,225.75 385.9219,225.7813 386.3438,225.7813 L386.5938,225.7813 L386.5938,232.2969 L386.3438,232.2969 C385.9375,232.2969 385.7813,232.3125 385.625,232.4219 C385.375,232.5938 385.2188,232.8594 385.2188,233.1563 C385.2188,233.4219 385.3594,233.6719 385.5781,233.8281 C385.7188,233.9531 385.9531,234 386.3438,234 L394.3438,234 L394.3438,231.4219 C394.3438,230.9844 394.3125,230.8438 394.2344,230.6875 C394.0625,230.4375 393.7813,230.2813 393.5,230.2813 C393.2344,230.2813 392.9688,230.3906 392.7969,230.6406 C392.6875,230.7969 392.6563,230.9375 392.6563,231.4219 L392.6563,232.2969 L388.2969,232.2969 L388.2969,229.875 Z " fill="#000000"/><text fill="#000000" font-family="sans-serif" font-size="14" lengthAdjust="spacing" textLength="115" x="403.5" y="233.8467">StatementType</text><line style="stroke:#181818;stroke-width:0.5;" x1="375.5" x2="520.5" y1="245" y2="245"/><text fill="#000000" font-family="sans-serif" font-size="14" lengthAdjust="spacing" textLength="12" x="380.5" y="261.9951">IF</text><text fill="#000000" font-family="sans-serif" font-size="14" lengthAdjust="spacing" textLength="40" x="380.5" y="278.292">READ</text><text fill="#000000" font-family="sans-serif" font-size="14" lengthAdjust="spacing" textLength="42" x="380.5" y="294.5889">PRINT</text><text fill="#000000" font-family="sans-serif" font-size="14" lengthAdjust="spacing" textLength="36" x="380.5" y="310.8857">CALL</text><text fill="#000000" font-family="sans-serif" font-size="14" lengthAdjust="spacing" textLength="29" x="380.5" y="327.1826">UNK</text><text fill="#000000" font-family="sans-serif" font-size="14" lengthAdjust="spacing" textLength="53" x="380.5" y="343.4795">ASSIGN</text><text fill="#000000" font-family="sans-serif" font-size="14" lengthAdjust="spacing" textLength="45" x="380.5" y="359.7764">WHILE</text><text fill="#000000" font-family="sans-serif" font-size="14" lengthAdjust="spacing" textLength="86" x="380.5" y="376.0732">STATEMENT</text><line style="stroke:#181818;stroke-width:0.5;" x1="375.5" x2="520.5" y1="383.375" y2="383.375"/></g><!--class hash_pair--><g id="elem_hash_pair"><rect codeLine="42" fill="#F1F1F1" height="64.2969" id="hash_pair" rx="2.5" ry="2.5" style="stroke:#181818;stroke-width:0.5;" width="327" x="556.5" y="270"/><ellipse cx="681.75" cy="286" fill="#F1F1F1" rx="11" ry="11" style="stroke:#181818;stroke-width:1.0;"/><path d="M685.5313,281.9688 C685.5313,281.5313 685.5156,281.3906 685.4219,281.2344 C685.2813,281 685,280.8438 684.7031,280.8438 C684.3594,280.8438 684.2188,280.9844 684.0469,281.4063 C683.4531,281.0313 682.7031,280.8438 681.8281,280.8438 C679.7188,280.8438 678.1406,282.1406 678.1406,283.8594 C678.1406,284.8281 678.6719,285.7344 679.5313,286.2188 C680.0781,286.5313 680.625,286.7031 681.7344,286.8906 C682.8906,287.0938 683.1563,287.1563 683.5156,287.3438 C683.8906,287.5469 684.125,287.8906 684.125,288.25 C684.125,288.9844 683.1406,289.5313 681.8906,289.5313 C680.7656,289.5313 679.6875,289.0469 679.5156,288.4375 C679.3906,287.9688 679.3906,287.9688 679.2656,287.8594 C679.1094,287.7031 678.8906,287.6094 678.6563,287.6094 C678.375,287.6094 678.125,287.7344 677.9531,287.9531 C677.8438,288.125 677.7969,288.3125 677.7969,288.7344 L677.7969,289.8594 C677.7969,290.625 678.0781,290.9844 678.6719,290.9844 C678.9375,290.9844 679.0625,290.9219 679.3438,290.5781 C680.1875,291.0156 681.0781,291.2344 682,291.2344 C684.3281,291.2344 685.8906,290.0469 685.8906,288.2813 C685.8906,287.3906 685.5781,286.7031 684.8906,286.1563 C684.3594,285.7344 683.7188,285.4844 682.2344,285.2188 C680.9688,284.9844 680.875,284.9531 680.5469,284.7813 C680.1719,284.5938 679.9063,284.2031 679.9063,283.8438 C679.9063,283.1094 680.7656,282.5469 681.8281,282.5469 C682.8906,282.5469 683.7031,283.0156 683.8594,283.6875 C683.9688,284.2344 683.9688,284.2344 684.0938,284.375 C684.2344,284.5 684.4688,284.6094 684.7031,284.6094 C684.9688,284.6094 685.2188,284.4688 685.3906,284.25 C685.5,284.0781 685.5313,283.9375 685.5313,283.4688 L685.5313,281.9688 Z " fill="#000000"/><text fill="#000000" font-family="sans-serif" font-size="14" lengthAdjust="spacing" textLength="68" x="702.25" y="290.8467">hash_pair</text><line style="stroke:#181818;stroke-width:0.5;" x1="557.5" x2="882.5" y1="302" y2="302"/><line style="stroke:#181818;stroke-width:0.5;" x1="557.5" x2="882.5" y1="310" y2="310"/><ellipse cx="567.5" cy="323.6484" fill="#84BE84" rx="3" ry="3" style="stroke:#038048;stroke-width:1.0;"/><text fill="#000000" font-family="sans-serif" font-size="14" lengthAdjust="spacing" textLength="301" x="576.5" y="326.9951">operator()(const pair&lt;T1, T2&gt;&amp; p) : size_t</text></g><!--SRC=[hLDBRu904BxpA_Pa9EsbFHf3WhXMKaG3Q7ipAqxhHjWbksjJQ_pl7RJuAjPBBpiRvkDx34EQCQt9Q3bBrWLeih48kIERDmxPV4j6qT2ZtN54IOjeexXuFsjFtCXtEy6LhZSCuyGDa_ekjX8we64o3SU33etgKJsV1jtwbXzswMlPubymDTRMij8gYYVpV2LuoWoNeYvNZ6GPU58WB-F2NB5uWOgX1Aw4L7DGC9zgCErBZ7C-FyRLBPLpJ9t6ES8vHgMVXGAjCUJOyApAc8DPI2JUQ8C3IBSAK1G-mCso2LESpJBGFINpuzjDlM2bM65K-_ZK8N2usxzD_MnCgrLjWNDJVXU22VElyjMQbV8dMu0pwpEz0FNNQ1Q8cAOodt41pVqYaOO6cD-JXAIbMz9OmjekUIqBn2edCRu9EGXJokzu_HuU4NMxM4QH7oPOFJS8i8p3PppTEFQVGhoyzFs0OZtilhKZnW-xIWtPcIdGzwLRMO1YHggctTnxAa7jv05DFZeDKjWdVy4t]--></g></svg>