<?xml version="1.0" encoding="UTF-8" standalone="no"?><svg xmlns="http://www.w3.org/2000/svg" xmlns:xlink="http://www.w3.org/1999/xlink" contentStyleType="text/css" height="865px" preserveAspectRatio="none" style="width:1155px;height:865px;background:#FFFFFF;" version="1.1" viewBox="0 0 1155 865" width="1155px" zoomAndPan="magnify"><defs/><g><rect fill="#ADD8E6" height="846.9766" style="stroke:#181818;stroke-width:0.5;" width="947" x="57.5" y="6"/><text fill="#000000" font-family="sans-serif" font-size="13" font-weight="bold" lengthAdjust="spacing" textLength="30" x="516" y="18.0669">QPS</text><rect fill="#90EE90" height="846.9766" style="stroke:#181818;stroke-width:0.5;" width="137" x="1006.5" y="6"/><text fill="#000000" font-family="sans-serif" font-size="13" font-weight="bold" lengthAdjust="spacing" textLength="30" x="1060" y="18.0669">PKB</text><rect fill="#FFFFFF" height="753.4141" style="stroke:#181818;stroke-width:1.0;" width="10" x="108" y="87.5625"/><rect fill="#FFFFFF" height="81.4297" style="stroke:#181818;stroke-width:1.0;" width="10" x="113" y="124.6953"/><rect fill="#FFFFFF" height="70.4297" style="stroke:#181818;stroke-width:1.0;" width="10" x="389" y="266.3906"/><rect fill="#FFFFFF" height="70.4297" style="stroke:#181818;stroke-width:1.0;" width="10" x="389" y="500.4844"/><rect fill="#FFFFFF" height="14" style="stroke:#181818;stroke-width:1.0;" width="10" x="757" y="732.5781"/><rect fill="#FFFFFF" height="29.1328" style="stroke:#181818;stroke-width:1.0;" width="10" x="757" y="782.7109"/><rect fill="#FFFFFF" height="43.1328" style="stroke:#181818;stroke-width:1.0;" width="10" x="896" y="600.0469"/><rect fill="none" height="220.0938" style="stroke:#000000;stroke-width:1.5;" width="1146.5" x="3" y="228.125"/><rect fill="none" height="46.2656" style="stroke:#000000;stroke-width:1.5;" width="234" x="3" y="394.9531"/><rect fill="none" height="292.3594" style="stroke:#000000;stroke-width:1.5;" width="1146.5" x="3" y="462.2188"/><rect fill="none" height="46.2656" style="stroke:#000000;stroke-width:1.5;" width="286" x="3" y="658.1797"/><line style="stroke:#181818;stroke-width:0.5;stroke-dasharray:5.0,5.0;" x1="112.5" x2="112.5" y1="56.4297" y2="858.9766"/><line style="stroke:#181818;stroke-width:0.5;stroke-dasharray:5.0,5.0;" x1="393.5" x2="393.5" y1="56.4297" y2="858.9766"/><line style="stroke:#181818;stroke-width:0.5;stroke-dasharray:5.0,5.0;" x1="590.5" x2="590.5" y1="305.0391" y2="858.9766"/><line style="stroke:#181818;stroke-width:0.5;stroke-dasharray:5.0,5.0;" x1="761.5" x2="761.5" y1="168.3438" y2="858.9766"/><line style="stroke:#181818;stroke-width:0.5;stroke-dasharray:5.0,5.0;" x1="900.5" x2="900.5" y1="539.1328" y2="858.9766"/><line style="stroke:#181818;stroke-width:0.5;stroke-dasharray:5.0,5.0;" x1="1074.5" x2="1074.5" y1="56.4297" y2="858.9766"/><rect fill="#E2E2F0" height="30.2969" rx="2.5" ry="2.5" style="stroke:#181818;stroke-width:0.5;" width="103" x="61.5" y="25.1328"/><text fill="#000000" font-family="sans-serif" font-size="14" lengthAdjust="spacing" textLength="89" x="68.5" y="45.1279">PqlEvaluator</text><rect fill="#E2E2F0" height="30.2969" rx="2.5" ry="2.5" style="stroke:#181818;stroke-width:0.5;" width="109" x="339.5" y="25.1328"/><text fill="#000000" font-family="sans-serif" font-size="14" lengthAdjust="spacing" textLength="95" x="346.5" y="45.1279">ClauseSyntax</text><rect fill="#E2E2F0" height="30.2969" rx="2.5" ry="2.5" style="stroke:#181818;stroke-width:0.5;" width="129" x="1010.5" y="25.1328"/><text fill="#000000" font-family="sans-serif" font-size="14" lengthAdjust="spacing" textLength="115" x="1017.5" y="45.1279">PKBReadFacade</text><rect fill="#FFFFFF" height="753.4141" style="stroke:#181818;stroke-width:1.0;" width="10" x="108" y="87.5625"/><rect fill="#FFFFFF" height="81.4297" style="stroke:#181818;stroke-width:1.0;" width="10" x="113" y="124.6953"/><rect fill="#FFFFFF" height="70.4297" style="stroke:#181818;stroke-width:1.0;" width="10" x="389" y="266.3906"/><rect fill="#FFFFFF" height="70.4297" style="stroke:#181818;stroke-width:1.0;" width="10" x="389" y="500.4844"/><rect fill="#FFFFFF" height="14" style="stroke:#181818;stroke-width:1.0;" width="10" x="757" y="732.5781"/><rect fill="#FFFFFF" height="29.1328" style="stroke:#181818;stroke-width:1.0;" width="10" x="757" y="782.7109"/><rect fill="#FFFFFF" height="43.1328" style="stroke:#181818;stroke-width:1.0;" width="10" x="896" y="600.0469"/><polygon fill="#181818" points="96,83.5625,106,87.5625,96,91.5625,100,87.5625" style="stroke:#181818;stroke-width:1.0;"/><line style="stroke:#181818;stroke-width:1.0;" x1="0" x2="102" y1="87.5625" y2="87.5625"/><text fill="#000000" font-family="sans-serif" font-size="13" lengthAdjust="spacing" textLength="66" x="7" y="82.4966">Evaluate()</text><line style="stroke:#181818;stroke-width:1.0;" x1="118" x2="165" y1="111.6953" y2="111.6953"/><line style="stroke:#181818;stroke-width:1.0;" x1="165" x2="165" y1="111.6953" y2="124.6953"/><line style="stroke:#181818;stroke-width:1.0;" x1="124" x2="165" y1="124.6953" y2="124.6953"/><polygon fill="#181818" points="134,120.6953,124,124.6953,134,128.6953,130,124.6953" style="stroke:#181818;stroke-width:1.0;"/><text fill="#000000" font-family="sans-serif" font-size="13" lengthAdjust="spacing" textLength="206" x="130" y="106.6294">EvaluateBasicSelectStatement()</text><polygon fill="#181818" points="720.5,139.6953,730.5,143.6953,720.5,147.6953,724.5,143.6953" style="stroke:#181818;stroke-width:1.0;"/><line style="stroke:#181818;stroke-width:1.0;" x1="123" x2="726.5" y1="143.6953" y2="143.6953"/><rect fill="#E2E2F0" height="30.2969" rx="2.5" ry="2.5" style="stroke:#181818;stroke-width:0.5;" width="59" x="732.5" y="137.6953"/><text fill="#000000" font-family="sans-serif" font-size="14" lengthAdjust="spacing" textLength="45" x="739.5" y="157.6904">Result</text><line style="stroke:#181818;stroke-width:1.0;stroke-dasharray:2.0,2.0;" x1="123" x2="165" y1="205.125" y2="205.125"/><line style="stroke:#181818;stroke-width:1.0;stroke-dasharray:2.0,2.0;" x1="165" x2="165" y1="205.125" y2="218.125"/><line style="stroke:#181818;stroke-width:1.0;stroke-dasharray:2.0,2.0;" x1="118" x2="165" y1="218.125" y2="218.125"/><polygon fill="#181818" points="128,214.125,118,218.125,128,222.125,124,218.125" style="stroke:#181818;stroke-width:1.0;"/><text fill="#000000" font-family="sans-serif" font-size="13" lengthAdjust="spacing" textLength="36" x="130" y="200.0591">result</text><path d="M3,228.125 L81,228.125 L81,235.2578 L71,245.2578 L3,245.2578 L3,228.125 " fill="#EEEEEE" style="stroke:#000000;stroke-width:1.5;"/><rect fill="none" height="220.0938" style="stroke:#000000;stroke-width:1.5;" width="1146.5" x="3" y="228.125"/><text fill="#000000" font-family="sans-serif" font-size="13" font-weight="bold" lengthAdjust="spacing" textLength="33" x="18" y="241.1919">loop</text><text fill="#000000" font-family="sans-serif" font-size="11" font-weight="bold" lengthAdjust="spacing" textLength="171" x="96" y="240.3354">[for each boolean clause]</text><polygon fill="#181818" points="377,262.3906,387,266.3906,377,270.3906,381,266.3906" style="stroke:#181818;stroke-width:1.0;"/><line style="stroke:#181818;stroke-width:1.0;" x1="118" x2="383" y1="266.3906" y2="266.3906"/><text fill="#000000" font-family="sans-serif" font-size="13" lengthAdjust="spacing" textLength="252" x="125" y="261.3247">CreateClauseEvaluator(Synonym, Map)</text><polygon fill="#181818" points="446.5,276.3906,456.5,280.3906,446.5,284.3906,450.5,280.3906" style="stroke:#181818;stroke-width:1.0;"/><line style="stroke:#181818;stroke-width:1.0;" x1="399" x2="452.5" y1="280.3906" y2="280.3906"/><rect fill="#E2E2F0" height="30.2969" rx="2.5" ry="2.5" style="stroke:#181818;stroke-width:0.5;" width="264" x="458.5" y="274.3906"/><text fill="#000000" font-family="sans-serif" font-size="14" lengthAdjust="spacing" textLength="250" x="465.5" y="294.3857">boolean_evaluator:ClauseEvaluator</text><polygon fill="#181818" points="129,332.8203,119,336.8203,129,340.8203,125,336.8203" style="stroke:#181818;stroke-width:1.0;"/><line style="stroke:#181818;stroke-width:1.0;stroke-dasharray:2.0,2.0;" x1="123" x2="393" y1="336.8203" y2="336.8203"/><text fill="#000000" font-family="sans-serif" font-size="13" lengthAdjust="spacing" textLength="104" x="135" y="331.7544">ClauseEvaluator</text><polygon fill="#181818" points="578.5,361.9531,588.5,365.9531,578.5,369.9531,582.5,365.9531" style="stroke:#181818;stroke-width:1.0;"/><line style="stroke:#181818;stroke-width:1.0;" x1="118" x2="584.5" y1="365.9531" y2="365.9531"/><text fill="#000000" font-family="sans-serif" font-size="13" lengthAdjust="spacing" textLength="206" x="125" y="360.8872">EvaluateBooleanConstraint(pkb)</text><polygon fill="#181818" points="1063,375.9531,1073,379.9531,1063,383.9531,1067,379.9531" style="stroke:#181818;stroke-width:1.0;"/><line style="stroke:#181818;stroke-width:1.0;" x1="590.5" x2="1069" y1="379.9531" y2="379.9531"/><path d="M3,394.9531 L91,394.9531 L91,402.0859 L81,412.0859 L3,412.0859 L3,394.9531 " fill="#EEEEEE" style="stroke:#000000;stroke-width:1.5;"/><rect fill="none" height="46.2656" style="stroke:#000000;stroke-width:1.5;" width="234" x="3" y="394.9531"/><text fill="#000000" font-family="sans-serif" font-size="13" font-weight="bold" lengthAdjust="spacing" textLength="43" x="18" y="408.02">break</text><text fill="#000000" font-family="sans-serif" font-size="11" font-weight="bold" lengthAdjust="spacing" textLength="126" x="106" y="407.1636">[evaluate to false]</text><polygon fill="#181818" points="11,429.2188,1,433.2188,11,437.2188,7,433.2188" style="stroke:#181818;stroke-width:1.0;"/><line style="stroke:#181818;stroke-width:1.0;stroke-dasharray:2.0,2.0;" x1="5" x2="107" y1="433.2188" y2="433.2188"/><text fill="#000000" font-family="sans-serif" font-size="13" lengthAdjust="spacing" textLength="82" x="17" y="428.1528">empty result</text><path d="M3,462.2188 L81,462.2188 L81,469.3516 L71,479.3516 L3,479.3516 L3,462.2188 " fill="#EEEEEE" style="stroke:#000000;stroke-width:1.5;"/><rect fill="none" height="292.3594" style="stroke:#000000;stroke-width:1.5;" width="1146.5" x="3" y="462.2188"/><text fill="#000000" font-family="sans-serif" font-size="13" font-weight="bold" lengthAdjust="spacing" textLength="33" x="18" y="475.2856">loop</text><text fill="#000000" font-family="sans-serif" font-size="11" font-weight="bold" lengthAdjust="spacing" textLength="183" x="96" y="474.4292">[for each remaining clause]</text><polygon fill="#181818" points="377,496.4844,387,500.4844,377,504.4844,381,500.4844" style="stroke:#181818;stroke-width:1.0;"/><line style="stroke:#181818;stroke-width:1.0;" x1="118" x2="383" y1="500.4844" y2="500.4844"/><text fill="#000000" font-family="sans-serif" font-size="13" lengthAdjust="spacing" textLength="252" x="125" y="495.4185">CreateClauseEvaluator(Synonym, Map)</text><polygon fill="#181818" points="789.5,510.4844,799.5,514.4844,789.5,518.4844,793.5,514.4844" style="stroke:#181818;stroke-width:1.0;"/><line style="stroke:#181818;stroke-width:1.0;" x1="399" x2="795.5" y1="514.4844" y2="514.4844"/><rect fill="#E2E2F0" height="30.2969" rx="2.5" ry="2.5" style="stroke:#181818;stroke-width:0.5;" width="199" x="801.5" y="508.4844"/><text fill="#000000" font-family="sans-serif" font-size="14" lengthAdjust="spacing" textLength="185" x="808.5" y="528.4795">evaluator:ClauseEvaluator</text><polygon fill="#181818" points="129,566.9141,119,570.9141,129,574.9141,125,570.9141" style="stroke:#181818;stroke-width:1.0;"/><line style="stroke:#181818;stroke-width:1.0;stroke-dasharray:2.0,2.0;" x1="123" x2="393" y1="570.9141" y2="570.9141"/><text fill="#000000" font-family="sans-serif" font-size="13" lengthAdjust="spacing" textLength="104" x="135" y="565.8481">ClauseEvaluator</text><polygon fill="#181818" points="884,596.0469,894,600.0469,884,604.0469,888,600.0469" style="stroke:#181818;stroke-width:1.0;"/><line style="stroke:#181818;stroke-width:1.0;" x1="118" x2="890" y1="600.0469" y2="600.0469"/><text fill="#000000" font-family="sans-serif" font-size="13" lengthAdjust="spacing" textLength="132" x="125" y="594.981">EvaluateClause(pkb)</text><polygon fill="#181818" points="1063,610.0469,1073,614.0469,1063,618.0469,1067,614.0469" style="stroke:#181818;stroke-width:1.0;"/><line style="stroke:#181818;stroke-width:1.0;" x1="906" x2="1069" y1="614.0469" y2="614.0469"/><polygon fill="#181818" points="129,639.1797,119,643.1797,129,647.1797,125,643.1797" style="stroke:#181818;stroke-width:1.0;"/><line style="stroke:#181818;stroke-width:1.0;stroke-dasharray:2.0,2.0;" x1="123" x2="900" y1="643.1797" y2="643.1797"/><text fill="#000000" font-family="sans-serif" font-size="13" lengthAdjust="spacing" textLength="36" x="135" y="638.1138">result</text><path d="M3,658.1797 L91,658.1797 L91,665.3125 L81,675.3125 L3,675.3125 L3,658.1797 " fill="#EEEEEE" style="stroke:#000000;stroke-width:1.5;"/><rect fill="none" height="46.2656" style="stroke:#000000;stroke-width:1.5;" width="286" x="3" y="658.1797"/><text fill="#000000" font-family="sans-serif" font-size="13" font-weight="bold" lengthAdjust="spacing" textLength="43" x="18" y="671.2466">break</text><text fill="#000000" font-family="sans-serif" font-size="11" font-weight="bold" lengthAdjust="spacing" textLength="178" x="106" y="670.3901">[evaluate to empty result]</text><polygon fill="#181818" points="11,692.4453,1,696.4453,11,700.4453,7,696.4453" style="stroke:#181818;stroke-width:1.0;"/><line style="stroke:#181818;stroke-width:1.0;stroke-dasharray:2.0,2.0;" x1="5" x2="107" y1="696.4453" y2="696.4453"/><text fill="#000000" font-family="sans-serif" font-size="13" lengthAdjust="spacing" textLength="82" x="17" y="691.3794">empty result</text><polygon fill="#181818" points="745,728.5781,755,732.5781,745,736.5781,749,732.5781" style="stroke:#181818;stroke-width:1.0;"/><line style="stroke:#181818;stroke-width:1.0;" x1="118" x2="751" y1="732.5781" y2="732.5781"/><text fill="#000000" font-family="sans-serif" font-size="13" lengthAdjust="spacing" textLength="109" x="125" y="727.5122">JoinResult(result)</text><polygon fill="#181818" points="129,742.5781,119,746.5781,129,750.5781,125,746.5781" style="stroke:#181818;stroke-width:1.0;"/><line style="stroke:#181818;stroke-width:1.0;stroke-dasharray:2.0,2.0;" x1="123" x2="761" y1="746.5781" y2="746.5781"/><polygon fill="#181818" points="745,778.7109,755,782.7109,745,786.7109,749,782.7109" style="stroke:#181818;stroke-width:1.0;"/><line style="stroke:#181818;stroke-width:1.0;" x1="118" x2="751" y1="782.7109" y2="782.7109"/><text fill="#000000" font-family="sans-serif" font-size="13" lengthAdjust="spacing" textLength="154" x="125" y="777.645">ProjectResult(synonym)</text><polygon fill="#181818" points="129,807.8438,119,811.8438,129,815.8438,125,811.8438" style="stroke:#181818;stroke-width:1.0;"/><line style="stroke:#181818;stroke-width:1.0;stroke-dasharray:2.0,2.0;" x1="123" x2="761" y1="811.8438" y2="811.8438"/><text fill="#000000" font-family="sans-serif" font-size="13" lengthAdjust="spacing" textLength="42" x="135" y="806.7778">output</text><polygon fill="#181818" points="11,836.9766,1,840.9766,11,844.9766,7,840.9766" style="stroke:#181818;stroke-width:1.0;"/><line style="stroke:#181818;stroke-width:1.0;stroke-dasharray:2.0,2.0;" x1="5" x2="112" y1="840.9766" y2="840.9766"/><text fill="#000000" font-family="sans-serif" font-size="13" lengthAdjust="spacing" textLength="42" x="17" y="835.9106">output</text><!--SRC=[jLD1ReCm4Bpx5HQzXAPy05Kv4BMLcbQYuG7L0fl4ZR6fCLNo-penIJ2Kb4iE82sxCypEs1kM8rr9gLEv8yIygFSH9nwzUsFhZOvuZQG4fLd6IX2Qnj_ywGTu3Legfp7dK5UOx8M6dTFmKYavWlZ44owqisSUpvbVObLpxL9SWQB8wKLwl8XEqbyKed2rBw8bGluC6UHu0GQpzbBJQKYR0YS-QRU61oEeM9OWnqmdsjG52jq3syNkxqFtkyiQ125LrW72fInDD8eYP1lQs4YpemCTxhRx1s5pXKP6nwo9wKknBnxeEvG-QME2sOYO3j8TK5zw1z9HEU8VBK_jx5oAIYjWnj1oc_fa18UHvIIT6ZEsj9b7gYLT0JSMFWP1Mrz8iIZr_cI_EH_7fnE3miA8OM9zio1k6S0mT_iusrxZztYVhuqEdl9-E4uA_sVqroKpoxnA9cmniSC-iMLFoZMMMCalSwaReih6DiWKobgNTK_qkV4B]--></g></svg>