<?xml version="1.0" encoding="UTF-8" standalone="no"?><svg xmlns="http://www.w3.org/2000/svg" xmlns:xlink="http://www.w3.org/1999/xlink" contentStyleType="text/css" height="720px" preserveAspectRatio="none" style="width:1421px;height:720px;background:#FFFFFF;" version="1.1" viewBox="0 0 1421 720" width="1421px" zoomAndPan="magnify"><defs/><g><rect fill="#FFFFFF" height="444.3516" style="stroke:#181818;stroke-width:1.0;" width="10" x="383" y="137.8594"/><rect fill="#FFFFFF" height="29.1328" style="stroke:#181818;stroke-width:1.0;" width="10" x="787" y="290.8828"/><rect fill="#FFFFFF" height="29.1328" style="stroke:#181818;stroke-width:1.0;" width="10" x="787" y="349.1484"/><rect fill="#FFFFFF" height="29.1328" style="stroke:#181818;stroke-width:1.0;" width="10" x="787" y="407.4141"/><rect fill="#FFFFFF" height="87.3984" style="stroke:#181818;stroke-width:1.0;" width="10" x="787" y="465.6797"/><rect fill="#FFFFFF" height="29.1328" style="stroke:#181818;stroke-width:1.0;" width="10" x="1358.5" y="652.6406"/><line style="stroke:#181818;stroke-width:0.5;stroke-dasharray:5.0,5.0;" x1="241.5" x2="241.5" y1="36.2969" y2="713.7734"/><line style="stroke:#181818;stroke-width:0.5;stroke-dasharray:5.0,5.0;" x1="387.5" x2="387.5" y1="106.0781" y2="713.7734"/><line style="stroke:#181818;stroke-width:0.5;stroke-dasharray:5.0,5.0;" x1="791.5" x2="791.5" y1="176.5078" y2="713.7734"/><line style="stroke:#181818;stroke-width:0.5;stroke-dasharray:5.0,5.0;" x1="1012" x2="1012" y1="217.8047" y2="713.7734"/><line style="stroke:#181818;stroke-width:0.5;stroke-dasharray:5.0,5.0;" x1="1205" x2="1205" y1="259.1016" y2="713.7734"/><line style="stroke:#181818;stroke-width:0.5;stroke-dasharray:5.0,5.0;" x1="1363" x2="1363" y1="620.8594" y2="713.7734"/><rect fill="#E2E2F0" height="30.2969" rx="2.5" ry="2.5" style="stroke:#181818;stroke-width:0.5;" width="43" x="220.5" y="5"/><text fill="#000000" font-family="sans-serif" font-size="14" lengthAdjust="spacing" textLength="29" x="227.5" y="24.9951">QPS</text><rect fill="#FFFFFF" height="444.3516" style="stroke:#181818;stroke-width:1.0;" width="10" x="383" y="137.8594"/><rect fill="#FFFFFF" height="29.1328" style="stroke:#181818;stroke-width:1.0;" width="10" x="787" y="290.8828"/><rect fill="#FFFFFF" height="29.1328" style="stroke:#181818;stroke-width:1.0;" width="10" x="787" y="349.1484"/><rect fill="#FFFFFF" height="29.1328" style="stroke:#181818;stroke-width:1.0;" width="10" x="787" y="407.4141"/><rect fill="#FFFFFF" height="87.3984" style="stroke:#181818;stroke-width:1.0;" width="10" x="787" y="465.6797"/><rect fill="#FFFFFF" height="29.1328" style="stroke:#181818;stroke-width:1.0;" width="10" x="1358.5" y="652.6406"/><polygon fill="#181818" points="230,63.4297,240,67.4297,230,71.4297,234,67.4297" style="stroke:#181818;stroke-width:1.0;"/><line style="stroke:#181818;stroke-width:1.0;" x1="0" x2="236" y1="67.4297" y2="67.4297"/><text fill="#000000" font-family="sans-serif" font-size="13" lengthAdjust="spacing" textLength="218" x="7" y="62.3638">ProcessQuery(query, results, pkb)</text><polygon fill="#181818" points="325.5,77.4297,335.5,81.4297,325.5,85.4297,329.5,81.4297" style="stroke:#181818;stroke-width:1.0;"/><line style="stroke:#181818;stroke-width:1.0;" x1="242" x2="331.5" y1="81.4297" y2="81.4297"/><rect fill="#E2E2F0" height="30.2969" rx="2.5" ry="2.5" style="stroke:#181818;stroke-width:0.5;" width="101" x="337.5" y="75.4297"/><text fill="#000000" font-family="sans-serif" font-size="14" lengthAdjust="spacing" textLength="87" x="344.5" y="95.4248">QueryParser</text><polygon fill="#181818" points="371,133.8594,381,137.8594,371,141.8594,375,137.8594" style="stroke:#181818;stroke-width:1.0;"/><line style="stroke:#181818;stroke-width:1.0;" x1="242" x2="377" y1="137.8594" y2="137.8594"/><text fill="#000000" font-family="sans-serif" font-size="13" lengthAdjust="spacing" textLength="122" x="249" y="132.7935">ParseQuery(query)</text><polygon fill="#181818" points="722.5,147.8594,732.5,151.8594,722.5,155.8594,726.5,151.8594" style="stroke:#181818;stroke-width:1.0;"/><line style="stroke:#181818;stroke-width:1.0;" x1="393" x2="728.5" y1="151.8594" y2="151.8594"/><rect fill="#E2E2F0" height="30.2969" rx="2.5" ry="2.5" style="stroke:#181818;stroke-width:0.5;" width="115" x="734.5" y="145.8594"/><text fill="#000000" font-family="sans-serif" font-size="14" lengthAdjust="spacing" textLength="101" x="741.5" y="165.8545">QPSTokenizer</text><polygon fill="#181818" points="913,189.1563,923,193.1563,913,197.1563,917,193.1563" style="stroke:#181818;stroke-width:1.0;"/><line style="stroke:#181818;stroke-width:1.0;" x1="792" x2="919" y1="193.1563" y2="193.1563"/><rect fill="#E2E2F0" height="30.2969" rx="2.5" ry="2.5" style="stroke:#181818;stroke-width:0.5;" width="174" x="925" y="187.1563"/><text fill="#000000" font-family="sans-serif" font-size="14" lengthAdjust="spacing" textLength="160" x="932" y="207.1514">ClauseSyntaxValidator</text><polygon fill="#181818" points="1097,230.4531,1107,234.4531,1097,238.4531,1101,234.4531" style="stroke:#181818;stroke-width:1.0;"/><line style="stroke:#181818;stroke-width:1.0;" x1="792" x2="1103" y1="234.4531" y2="234.4531"/><rect fill="#E2E2F0" height="30.2969" rx="2.5" ry="2.5" style="stroke:#181818;stroke-width:0.5;" width="193" x="1109" y="228.4531"/><text fill="#000000" font-family="sans-serif" font-size="14" lengthAdjust="spacing" textLength="179" x="1116" y="248.4482">ClauseSemanticValidator</text><polygon fill="#181818" points="775,286.8828,785,290.8828,775,294.8828,779,290.8828" style="stroke:#181818;stroke-width:1.0;"/><line style="stroke:#181818;stroke-width:1.0;" x1="393" x2="781" y1="290.8828" y2="290.8828"/><text fill="#000000" font-family="sans-serif" font-size="13" lengthAdjust="spacing" textLength="113" x="400" y="285.8169">SplitQuery(query)</text><polygon fill="#181818" points="404,316.0156,394,320.0156,404,324.0156,400,320.0156" style="stroke:#181818;stroke-width:1.0;"/><line style="stroke:#181818;stroke-width:1.0;stroke-dasharray:2.0,2.0;" x1="398" x2="791" y1="320.0156" y2="320.0156"/><text fill="#000000" font-family="sans-serif" font-size="13" lengthAdjust="spacing" textLength="192" x="410" y="314.9497">declaration_lines &amp; select_line</text><polygon fill="#181818" points="775,345.1484,785,349.1484,775,353.1484,779,349.1484" style="stroke:#181818;stroke-width:1.0;"/><line style="stroke:#181818;stroke-width:1.0;" x1="393" x2="781" y1="349.1484" y2="349.1484"/><text fill="#000000" font-family="sans-serif" font-size="13" lengthAdjust="spacing" textLength="375" x="400" y="344.0825">ExtractAbstractSyntaxFromDeclarations(declaration_lines)</text><polygon fill="#181818" points="404,374.2813,394,378.2813,404,382.2813,400,378.2813" style="stroke:#181818;stroke-width:1.0;"/><line style="stroke:#181818;stroke-width:1.0;stroke-dasharray:2.0,2.0;" x1="398" x2="791" y1="378.2813" y2="378.2813"/><text fill="#000000" font-family="sans-serif" font-size="13" lengthAdjust="spacing" textLength="104" x="410" y="373.2153">declaration map</text><polygon fill="#181818" points="775,403.4141,785,407.4141,775,411.4141,779,407.4141" style="stroke:#181818;stroke-width:1.0;"/><line style="stroke:#181818;stroke-width:1.0;" x1="393" x2="781" y1="407.4141" y2="407.4141"/><text fill="#000000" font-family="sans-serif" font-size="13" lengthAdjust="spacing" textLength="174" x="400" y="402.3481">ParseSynonym(select_line)</text><polygon fill="#181818" points="404,432.5469,394,436.5469,404,440.5469,400,436.5469" style="stroke:#181818;stroke-width:1.0;"/><line style="stroke:#181818;stroke-width:1.0;stroke-dasharray:2.0,2.0;" x1="398" x2="791" y1="436.5469" y2="436.5469"/><text fill="#000000" font-family="sans-serif" font-size="13" lengthAdjust="spacing" textLength="60" x="410" y="431.481">synonym</text><polygon fill="#181818" points="775,461.6797,785,465.6797,775,469.6797,779,465.6797" style="stroke:#181818;stroke-width:1.0;"/><line style="stroke:#181818;stroke-width:1.0;" x1="393" x2="781" y1="465.6797" y2="465.6797"/><text fill="#000000" font-family="sans-serif" font-size="13" lengthAdjust="spacing" textLength="190" x="400" y="460.6138">ParseSubClauses(clause_line)</text><polygon fill="#181818" points="1000,490.8125,1010,494.8125,1000,498.8125,1004,494.8125" style="stroke:#181818;stroke-width:1.0;"/><line style="stroke:#181818;stroke-width:1.0;" x1="797" x2="1006" y1="494.8125" y2="494.8125"/><text fill="#000000" font-family="sans-serif" font-size="13" lengthAdjust="spacing" textLength="191" x="804" y="489.7466">ValidateClauseSyntax(clause)</text><polygon fill="#181818" points="1193.5,519.9453,1203.5,523.9453,1193.5,527.9453,1197.5,523.9453" style="stroke:#181818;stroke-width:1.0;"/><line style="stroke:#181818;stroke-width:1.0;" x1="797" x2="1199.5" y1="523.9453" y2="523.9453"/><text fill="#000000" font-family="sans-serif" font-size="13" lengthAdjust="spacing" textLength="206" x="804" y="518.8794">ValidateClauseSemantic(clause)</text><polygon fill="#181818" points="404,549.0781,394,553.0781,404,557.0781,400,553.0781" style="stroke:#181818;stroke-width:1.0;"/><line style="stroke:#181818;stroke-width:1.0;stroke-dasharray:2.0,2.0;" x1="398" x2="791" y1="553.0781" y2="553.0781"/><text fill="#000000" font-family="sans-serif" font-size="13" lengthAdjust="spacing" textLength="63" x="410" y="548.0122">clause list</text><polygon fill="#181818" points="253,578.2109,243,582.2109,253,586.2109,249,582.2109" style="stroke:#181818;stroke-width:1.0;"/><line style="stroke:#181818;stroke-width:1.0;stroke-dasharray:2.0,2.0;" x1="247" x2="387" y1="582.2109" y2="582.2109"/><text fill="#000000" font-family="sans-serif" font-size="13" lengthAdjust="spacing" textLength="37" x="259" y="577.145">query</text><polygon fill="#181818" points="1300,607.3438,1310,611.3438,1300,615.3438,1304,611.3438" style="stroke:#181818;stroke-width:1.0;"/><line style="stroke:#181818;stroke-width:1.0;" x1="242" x2="1306" y1="611.3438" y2="611.3438"/><text fill="#000000" font-family="sans-serif" font-size="13" lengthAdjust="spacing" textLength="158" x="249" y="606.2778">PqlEvaluator(query, pkb)</text><rect fill="#E2E2F0" height="30.2969" rx="2.5" ry="2.5" style="stroke:#181818;stroke-width:0.5;" width="103" x="1312" y="590.2109"/><text fill="#000000" font-family="sans-serif" font-size="14" lengthAdjust="spacing" textLength="89" x="1319" y="610.2061">PqlEvaluator</text><polygon fill="#181818" points="1346.5,648.6406,1356.5,652.6406,1346.5,656.6406,1350.5,652.6406" style="stroke:#181818;stroke-width:1.0;"/><line style="stroke:#181818;stroke-width:1.0;" x1="242" x2="1352.5" y1="652.6406" y2="652.6406"/><text fill="#000000" font-family="sans-serif" font-size="13" lengthAdjust="spacing" textLength="66" x="249" y="647.5747">evaluate()</text><polygon fill="#181818" points="253,677.7734,243,681.7734,253,685.7734,249,681.7734" style="stroke:#181818;stroke-width:1.0;"/><line style="stroke:#181818;stroke-width:1.0;stroke-dasharray:2.0,2.0;" x1="247" x2="1362.5" y1="681.7734" y2="681.7734"/><text fill="#000000" font-family="sans-serif" font-size="13" lengthAdjust="spacing" textLength="36" x="259" y="676.7075">result</text><polygon fill="#181818" points="11,691.7734,1,695.7734,11,699.7734,7,695.7734" style="stroke:#181818;stroke-width:1.0;"/><line style="stroke:#181818;stroke-width:1.0;stroke-dasharray:2.0,2.0;" x1="5" x2="241" y1="695.7734" y2="695.7734"/><!--SRC=[bLF1ReCm3Btp5JvDj3G_WAPAqzQTgPXsdGBrjAY1q3XCxRv-8Q4b2Dfr5uBjb_VisFuIEuHFfKoXZX5RRxCyXKoh4ecsBUfJVEY-Az18hJIqWcPVB28BizWkad5Dg9VBYGiOInAmP9qLKDdB0yW9lgazrkBdp78nsVfPyfOmFzM67z-v53jkr5KKLhmseXpXhYabIGfv8uKP9nRIZefXB8KTbf9hReIgFwIeaU0122MMnfctnJP7etbfdWfofo_fLQlgPM2bU2BnZvoWuitj79pVAglwLCL1vd-9aBzo3tbR-6PGNBfpZd- -godqlnY6Uvh5VHsVSFI0UPP9dHu5Kf0PrUgAjG0t9NxEiuFSV7FP-ZcprGVsUME6HGcZtLkXDp1UH67e8jGlM_J8c7Ny0W00]--></g></svg>