<?xml version="1.0" encoding="UTF-8" standalone="no"?><svg xmlns="http://www.w3.org/2000/svg" xmlns:xlink="http://www.w3.org/1999/xlink" contentStyleType="text/css" height="830px" preserveAspectRatio="none" style="width:1634px;height:830px;background:#FFFFFF;" version="1.1" viewBox="0 0 1634 830" width="1634px" zoomAndPan="magnify"><defs/><g><!--class Program--><g id="elem_Program"><rect codeLine="1" fill="#F1F1F1" height="96.8906" id="Program" rx="2.5" ry="2.5" style="stroke:#181818;stroke-width:0.5;" width="316" x="728.5" y="7"/><ellipse cx="851.75" cy="23" fill="#ADD1B2" rx="11" ry="11" style="stroke:#181818;stroke-width:1.0;"/><path d="M854.0938,18.6719 C853.1563,18.2344 852.5625,18.0938 851.6875,18.0938 C849.0625,18.0938 847.0625,20.1719 847.0625,22.8906 L847.0625,24.0156 C847.0625,26.5938 849.1719,28.4844 852.0625,28.4844 C853.2813,28.4844 854.4375,28.1875 855.1875,27.6406 C855.7656,27.2344 856.0938,26.7813 856.0938,26.3906 C856.0938,25.9375 855.7031,25.5469 855.2344,25.5469 C855.0156,25.5469 854.8125,25.625 854.625,25.8125 C854.1719,26.2969 854.1719,26.2969 853.9844,26.3906 C853.5625,26.6563 852.875,26.7813 852.1094,26.7813 C850.0625,26.7813 848.7656,25.6875 848.7656,23.9844 L848.7656,22.8906 C848.7656,21.1094 850.0156,19.7969 851.75,19.7969 C852.3281,19.7969 852.9375,19.9531 853.4063,20.2031 C853.8906,20.4844 854.0625,20.7031 854.1563,21.1094 C854.2188,21.5156 854.25,21.6406 854.3906,21.7656 C854.5313,21.9063 854.7656,22.0156 854.9844,22.0156 C855.25,22.0156 855.5156,21.875 855.6875,21.6563 C855.7969,21.5 855.8281,21.3125 855.8281,20.8906 L855.8281,19.4688 C855.8281,19.0313 855.8125,18.9063 855.7188,18.75 C855.5625,18.4844 855.2813,18.3438 854.9844,18.3438 C854.6875,18.3438 854.4844,18.4375 854.2656,18.75 L854.0938,18.6719 Z " fill="#000000"/><text fill="#000000" font-family="sans-serif" font-size="14" lengthAdjust="spacing" textLength="61" x="872.25" y="27.8467">Program</text><line style="stroke:#181818;stroke-width:0.5;" x1="729.5" x2="1043.5" y1="39" y2="39"/><rect fill="none" height="6" style="stroke:#C82930;stroke-width:1.0;" width="6" x="736.5" y="49.6484"/><text fill="#000000" font-family="sans-serif" font-size="14" lengthAdjust="spacing" textLength="252" x="748.5" y="55.9951">procedure_list_ : ProcListContainer</text><line style="stroke:#181818;stroke-width:0.5;" x1="729.5" x2="1043.5" y1="63.2969" y2="63.2969"/><ellipse cx="739.5" cy="76.9453" fill="#84BE84" rx="3" ry="3" style="stroke:#038048;stroke-width:1.0;"/><text fill="#000000" font-family="sans-serif" font-size="14" lengthAdjust="spacing" textLength="235" x="748.5" y="80.292">AddToProcedureList(Procedure*)</text><ellipse cx="739.5" cy="93.2422" fill="#84BE84" rx="3" ry="3" style="stroke:#038048;stroke-width:1.0;"/><text fill="#000000" font-family="sans-serif" font-size="14" lengthAdjust="spacing" text-decoration="underline" textLength="290" x="748.5" y="96.5889">GetAndIncreaseStatementNumber(): int</text></g><!--class Procedure--><g id="elem_Procedure"><rect codeLine="6" fill="#F1F1F1" height="96.8906" id="Procedure" rx="2.5" ry="2.5" style="stroke:#181818;stroke-width:0.5;" width="282" x="745.5" y="164"/><ellipse cx="845.75" cy="180" fill="#ADD1B2" rx="11" ry="11" style="stroke:#181818;stroke-width:1.0;"/><path d="M848.0938,175.6719 C847.1563,175.2344 846.5625,175.0938 845.6875,175.0938 C843.0625,175.0938 841.0625,177.1719 841.0625,179.8906 L841.0625,181.0156 C841.0625,183.5938 843.1719,185.4844 846.0625,185.4844 C847.2813,185.4844 848.4375,185.1875 849.1875,184.6406 C849.7656,184.2344 850.0938,183.7813 850.0938,183.3906 C850.0938,182.9375 849.7031,182.5469 849.2344,182.5469 C849.0156,182.5469 848.8125,182.625 848.625,182.8125 C848.1719,183.2969 848.1719,183.2969 847.9844,183.3906 C847.5625,183.6563 846.875,183.7813 846.1094,183.7813 C844.0625,183.7813 842.7656,182.6875 842.7656,180.9844 L842.7656,179.8906 C842.7656,178.1094 844.0156,176.7969 845.75,176.7969 C846.3281,176.7969 846.9375,176.9531 847.4063,177.2031 C847.8906,177.4844 848.0625,177.7031 848.1563,178.1094 C848.2188,178.5156 848.25,178.6406 848.3906,178.7656 C848.5313,178.9063 848.7656,179.0156 848.9844,179.0156 C849.25,179.0156 849.5156,178.875 849.6875,178.6563 C849.7969,178.5 849.8281,178.3125 849.8281,177.8906 L849.8281,176.4688 C849.8281,176.0313 849.8125,175.9063 849.7188,175.75 C849.5625,175.4844 849.2813,175.3438 848.9844,175.3438 C848.6875,175.3438 848.4844,175.4375 848.2656,175.75 L848.0938,175.6719 Z " fill="#000000"/><text fill="#000000" font-family="sans-serif" font-size="14" lengthAdjust="spacing" textLength="73" x="866.25" y="184.8467">Procedure</text><line style="stroke:#181818;stroke-width:0.5;" x1="746.5" x2="1026.5" y1="196" y2="196"/><rect fill="none" height="6" style="stroke:#C82930;stroke-width:1.0;" width="6" x="753.5" y="206.6484"/><text fill="#000000" font-family="sans-serif" font-size="14" lengthAdjust="spacing" textLength="179" x="765.5" y="212.9951">procedure_name_: string</text><rect fill="none" height="6" style="stroke:#C82930;stroke-width:1.0;" width="6" x="753.5" y="222.9453"/><text fill="#000000" font-family="sans-serif" font-size="14" lengthAdjust="spacing" textLength="256" x="765.5" y="229.292">statement_list_: StmtListContainer</text><line style="stroke:#181818;stroke-width:0.5;" x1="746.5" x2="1026.5" y1="236.5938" y2="236.5938"/><ellipse cx="756.5" cy="250.2422" fill="#84BE84" rx="3" ry="3" style="stroke:#038048;stroke-width:1.0;"/><text fill="#000000" font-family="sans-serif" font-size="14" lengthAdjust="spacing" textLength="247" x="765.5" y="253.5889">AddToStatementList(Statement*)</text></g><!--class Statement--><g id="elem_Statement"><rect codeLine="12" fill="#F1F1F1" height="96.8906" id="Statement" rx="2.5" ry="2.5" style="stroke:#181818;stroke-width:0.5;" width="202" x="785.5" y="321"/><ellipse cx="845.25" cy="337" fill="#A9DCDF" rx="11" ry="11" style="stroke:#181818;stroke-width:1.0;"/><path d="M847.3281,338.8125 L847.7188,339.7969 L847.3281,339.7969 C846.875,339.7969 846.7656,339.8125 846.6094,339.9219 C846.3594,340.0781 846.2031,340.3594 846.2031,340.6563 C846.2031,340.9219 846.3438,341.1719 846.5625,341.3281 C846.7031,341.4531 846.9063,341.5 847.3281,341.5 L849.6875,341.5 C850.0469,341.5 850.2656,341.4688 850.4063,341.375 C850.6563,341.2344 850.8125,340.9375 850.8125,340.6563 C850.8125,340.375 850.6719,340.125 850.4531,339.9688 C850.2813,339.8281 850.125,339.7969 849.6563,339.7969 L846.2656,331.5938 L842.5938,331.5938 C842.1406,331.5938 842.0156,331.6094 841.8594,331.7031 C841.6094,331.875 841.4531,332.1563 841.4531,332.4375 C841.4531,332.7188 841.5938,332.9688 841.8125,333.1406 C841.9844,333.25 842.1563,333.2813 842.5938,333.2813 L843.6719,333.2813 L841.0313,339.7969 C840.6094,339.7969 840.4531,339.8125 840.2969,339.9219 C840.0469,340.0781 839.8906,340.3594 839.8906,340.6563 C839.8906,341.2188 840.2656,341.5 841.0156,341.5 L843.2813,341.5 C843.6406,341.5 843.8594,341.4688 843.9844,341.375 C844.25,341.2344 844.3906,340.9375 844.3906,340.6563 C844.3906,340.375 844.2656,340.125 844.0469,339.9531 C843.875,339.8281 843.7344,339.7969 843.2813,339.7969 L842.8906,339.7969 L843.2813,338.8125 L847.3281,338.8125 Z M846.625,337.1094 L843.9531,337.1094 L845.2969,333.8438 L846.625,337.1094 Z " fill="#000000"/><text fill="#000000" font-family="sans-serif" font-size="14" font-style="italic" lengthAdjust="spacing" textLength="74" x="865.75" y="341.8467">Statement</text><line style="stroke:#181818;stroke-width:0.5;" x1="786.5" x2="986.5" y1="353" y2="353"/><rect fill="none" height="6" style="stroke:#C82930;stroke-width:1.0;" width="6" x="793.5" y="363.6484"/><text fill="#000000" font-family="sans-serif" font-size="14" lengthAdjust="spacing" textLength="176" x="805.5" y="369.9951">statement_number_: int</text><rect fill="none" height="6" style="stroke:#C82930;stroke-width:1.0;" width="6" x="793.5" y="379.9453"/><text fill="#000000" font-family="sans-serif" font-size="14" lengthAdjust="spacing" textLength="176" x="805.5" y="386.292">statement_type_: string</text><rect fill="none" height="6" style="stroke:#C82930;stroke-width:1.0;" width="6" x="793.5" y="396.2422"/><text fill="#000000" font-family="sans-serif" font-size="14" lengthAdjust="spacing" textLength="176" x="805.5" y="402.5889">in_scope_of_proc: string</text><line style="stroke:#181818;stroke-width:0.5;" x1="786.5" x2="986.5" y1="409.8906" y2="409.8906"/></g><!--class AssignStatement--><g id="elem_AssignStatement"><rect codeLine="19" fill="#F1F1F1" height="96.8906" id="AssignStatement" rx="2.5" ry="2.5" style="stroke:#181818;stroke-width:0.5;" width="231" x="7" y="494"/><ellipse cx="55.75" cy="510" fill="#ADD1B2" rx="11" ry="11" style="stroke:#181818;stroke-width:1.0;"/><path d="M58.0938,505.6719 C57.1563,505.2344 56.5625,505.0938 55.6875,505.0938 C53.0625,505.0938 51.0625,507.1719 51.0625,509.8906 L51.0625,511.0156 C51.0625,513.5938 53.1719,515.4844 56.0625,515.4844 C57.2813,515.4844 58.4375,515.1875 59.1875,514.6406 C59.7656,514.2344 60.0938,513.7813 60.0938,513.3906 C60.0938,512.9375 59.7031,512.5469 59.2344,512.5469 C59.0156,512.5469 58.8125,512.625 58.625,512.8125 C58.1719,513.2969 58.1719,513.2969 57.9844,513.3906 C57.5625,513.6563 56.875,513.7813 56.1094,513.7813 C54.0625,513.7813 52.7656,512.6875 52.7656,510.9844 L52.7656,509.8906 C52.7656,508.1094 54.0156,506.7969 55.75,506.7969 C56.3281,506.7969 56.9375,506.9531 57.4063,507.2031 C57.8906,507.4844 58.0625,507.7031 58.1563,508.1094 C58.2188,508.5156 58.25,508.6406 58.3906,508.7656 C58.5313,508.9063 58.7656,509.0156 58.9844,509.0156 C59.25,509.0156 59.5156,508.875 59.6875,508.6563 C59.7969,508.5 59.8281,508.3125 59.8281,507.8906 L59.8281,506.4688 C59.8281,506.0313 59.8125,505.9063 59.7188,505.75 C59.5625,505.4844 59.2813,505.3438 58.9844,505.3438 C58.6875,505.3438 58.4844,505.4375 58.2656,505.75 L58.0938,505.6719 Z " fill="#000000"/><text fill="#000000" font-family="sans-serif" font-size="14" lengthAdjust="spacing" textLength="125" x="76.25" y="514.8467">AssignStatement</text><line style="stroke:#181818;stroke-width:0.5;" x1="8" x2="237" y1="526" y2="526"/><rect fill="none" height="6" style="stroke:#C82930;stroke-width:1.0;" width="6" x="15" y="536.6484"/><text fill="#000000" font-family="sans-serif" font-size="14" lengthAdjust="spacing" textLength="132" x="27" y="542.9951">variable_: Variable</text><rect fill="none" height="6" style="stroke:#C82930;stroke-width:1.0;" width="6" x="15" y="552.9453"/><text fill="#000000" font-family="sans-serif" font-size="14" lengthAdjust="spacing" textLength="176" x="27" y="559.292">expression_ : Expression</text><line style="stroke:#181818;stroke-width:0.5;" x1="8" x2="237" y1="566.5938" y2="566.5938"/><ellipse cx="18" cy="580.2422" fill="#84BE84" rx="3" ry="3" style="stroke:#038048;stroke-width:1.0;"/><text fill="#000000" font-family="sans-serif" font-size="14" lengthAdjust="spacing" textLength="205" x="27" y="583.5889">AddExpression(Expression *)</text></g><!--class IfStatement--><g id="elem_IfStatement"><rect codeLine="24" fill="#F1F1F1" height="129.4844" id="IfStatement" rx="2.5" ry="2.5" style="stroke:#181818;stroke-width:0.5;" width="301" x="273" y="478"/><ellipse cx="374.75" cy="494" fill="#ADD1B2" rx="11" ry="11" style="stroke:#181818;stroke-width:1.0;"/><path d="M377.0938,489.6719 C376.1563,489.2344 375.5625,489.0938 374.6875,489.0938 C372.0625,489.0938 370.0625,491.1719 370.0625,493.8906 L370.0625,495.0156 C370.0625,497.5938 372.1719,499.4844 375.0625,499.4844 C376.2813,499.4844 377.4375,499.1875 378.1875,498.6406 C378.7656,498.2344 379.0938,497.7813 379.0938,497.3906 C379.0938,496.9375 378.7031,496.5469 378.2344,496.5469 C378.0156,496.5469 377.8125,496.625 377.625,496.8125 C377.1719,497.2969 377.1719,497.2969 376.9844,497.3906 C376.5625,497.6563 375.875,497.7813 375.1094,497.7813 C373.0625,497.7813 371.7656,496.6875 371.7656,494.9844 L371.7656,493.8906 C371.7656,492.1094 373.0156,490.7969 374.75,490.7969 C375.3281,490.7969 375.9375,490.9531 376.4063,491.2031 C376.8906,491.4844 377.0625,491.7031 377.1563,492.1094 C377.2188,492.5156 377.25,492.6406 377.3906,492.7656 C377.5313,492.9063 377.7656,493.0156 377.9844,493.0156 C378.25,493.0156 378.5156,492.875 378.6875,492.6563 C378.7969,492.5 378.8281,492.3125 378.8281,491.8906 L378.8281,490.4688 C378.8281,490.0313 378.8125,489.9063 378.7188,489.75 C378.5625,489.4844 378.2813,489.3438 377.9844,489.3438 C377.6875,489.3438 377.4844,489.4375 377.2656,489.75 L377.0938,489.6719 Z " fill="#000000"/><text fill="#000000" font-family="sans-serif" font-size="14" lengthAdjust="spacing" textLength="89" x="395.25" y="498.8467">IfStatement</text><line style="stroke:#181818;stroke-width:0.5;" x1="274" x2="573" y1="510" y2="510"/><rect fill="none" height="6" style="stroke:#C82930;stroke-width:1.0;" width="6" x="281" y="520.6484"/><text fill="#000000" font-family="sans-serif" font-size="14" lengthAdjust="spacing" textLength="154" x="293" y="526.9951">condition_: Condition</text><rect fill="none" height="6" style="stroke:#C82930;stroke-width:1.0;" width="6" x="281" y="536.9453"/><text fill="#000000" font-family="sans-serif" font-size="14" lengthAdjust="spacing" textLength="275" x="293" y="543.292">then_statements_: StmtListContainer</text><rect fill="none" height="6" style="stroke:#C82930;stroke-width:1.0;" width="6" x="281" y="553.2422"/><text fill="#000000" font-family="sans-serif" font-size="14" lengthAdjust="spacing" textLength="270" x="293" y="559.5889">else_statements_: StmtListContainer</text><line style="stroke:#181818;stroke-width:0.5;" x1="274" x2="573" y1="566.8906" y2="566.8906"/><ellipse cx="284" cy="580.5391" fill="#84BE84" rx="3" ry="3" style="stroke:#038048;stroke-width:1.0;"/><text fill="#000000" font-family="sans-serif" font-size="14" lengthAdjust="spacing" textLength="223" x="293" y="583.8857">AddThenStmtList(Statement*)</text><ellipse cx="284" cy="596.8359" fill="#84BE84" rx="3" ry="3" style="stroke:#038048;stroke-width:1.0;"/><text fill="#000000" font-family="sans-serif" font-size="14" lengthAdjust="spacing" textLength="216" x="293" y="600.1826">AddElseStmtList(Statement*)</text></g><!--class WhileStatement--><g id="elem_WhileStatement"><rect codeLine="32" fill="#F1F1F1" height="96.8906" id="WhileStatement" rx="2.5" ry="2.5" style="stroke:#181818;stroke-width:0.5;" width="292" x="609.5" y="494"/><ellipse cx="691.75" cy="510" fill="#ADD1B2" rx="11" ry="11" style="stroke:#181818;stroke-width:1.0;"/><path d="M694.0938,505.6719 C693.1563,505.2344 692.5625,505.0938 691.6875,505.0938 C689.0625,505.0938 687.0625,507.1719 687.0625,509.8906 L687.0625,511.0156 C687.0625,513.5938 689.1719,515.4844 692.0625,515.4844 C693.2813,515.4844 694.4375,515.1875 695.1875,514.6406 C695.7656,514.2344 696.0938,513.7813 696.0938,513.3906 C696.0938,512.9375 695.7031,512.5469 695.2344,512.5469 C695.0156,512.5469 694.8125,512.625 694.625,512.8125 C694.1719,513.2969 694.1719,513.2969 693.9844,513.3906 C693.5625,513.6563 692.875,513.7813 692.1094,513.7813 C690.0625,513.7813 688.7656,512.6875 688.7656,510.9844 L688.7656,509.8906 C688.7656,508.1094 690.0156,506.7969 691.75,506.7969 C692.3281,506.7969 692.9375,506.9531 693.4063,507.2031 C693.8906,507.4844 694.0625,507.7031 694.1563,508.1094 C694.2188,508.5156 694.25,508.6406 694.3906,508.7656 C694.5313,508.9063 694.7656,509.0156 694.9844,509.0156 C695.25,509.0156 695.5156,508.875 695.6875,508.6563 C695.7969,508.5 695.8281,508.3125 695.8281,507.8906 L695.8281,506.4688 C695.8281,506.0313 695.8125,505.9063 695.7188,505.75 C695.5625,505.4844 695.2813,505.3438 694.9844,505.3438 C694.6875,505.3438 694.4844,505.4375 694.2656,505.75 L694.0938,505.6719 Z " fill="#000000"/><text fill="#000000" font-family="sans-serif" font-size="14" lengthAdjust="spacing" textLength="119" x="712.25" y="514.8467">WhileStatement</text><line style="stroke:#181818;stroke-width:0.5;" x1="610.5" x2="900.5" y1="526" y2="526"/><rect fill="none" height="6" style="stroke:#C82930;stroke-width:1.0;" width="6" x="617.5" y="536.6484"/><text fill="#000000" font-family="sans-serif" font-size="14" lengthAdjust="spacing" textLength="154" x="629.5" y="542.9951">condition_: Condition</text><rect fill="none" height="6" style="stroke:#C82930;stroke-width:1.0;" width="6" x="617.5" y="552.9453"/><text fill="#000000" font-family="sans-serif" font-size="14" lengthAdjust="spacing" textLength="266" x="629.5" y="559.292">loop_statements: StmtListContainer</text><line style="stroke:#181818;stroke-width:0.5;" x1="610.5" x2="900.5" y1="566.5938" y2="566.5938"/><ellipse cx="620.5" cy="580.2422" fill="#84BE84" rx="3" ry="3" style="stroke:#038048;stroke-width:1.0;"/><text fill="#000000" font-family="sans-serif" font-size="14" lengthAdjust="spacing" textLength="203" x="629.5" y="583.5889">AddStatement(Statement*)</text></g><!--class ReadStatement--><g id="elem_ReadStatement"><rect codeLine="38" fill="#F1F1F1" height="64.2969" id="ReadStatement" rx="2.5" ry="2.5" style="stroke:#181818;stroke-width:0.5;" width="162" x="936.5" y="510.5"/><ellipse cx="958.25" cy="526.5" fill="#ADD1B2" rx="11" ry="11" style="stroke:#181818;stroke-width:1.0;"/><path d="M960.5938,522.1719 C959.6563,521.7344 959.0625,521.5938 958.1875,521.5938 C955.5625,521.5938 953.5625,523.6719 953.5625,526.3906 L953.5625,527.5156 C953.5625,530.0938 955.6719,531.9844 958.5625,531.9844 C959.7813,531.9844 960.9375,531.6875 961.6875,531.1406 C962.2656,530.7344 962.5938,530.2813 962.5938,529.8906 C962.5938,529.4375 962.2031,529.0469 961.7344,529.0469 C961.5156,529.0469 961.3125,529.125 961.125,529.3125 C960.6719,529.7969 960.6719,529.7969 960.4844,529.8906 C960.0625,530.1563 959.375,530.2813 958.6094,530.2813 C956.5625,530.2813 955.2656,529.1875 955.2656,527.4844 L955.2656,526.3906 C955.2656,524.6094 956.5156,523.2969 958.25,523.2969 C958.8281,523.2969 959.4375,523.4531 959.9063,523.7031 C960.3906,523.9844 960.5625,524.2031 960.6563,524.6094 C960.7188,525.0156 960.75,525.1406 960.8906,525.2656 C961.0313,525.4063 961.2656,525.5156 961.4844,525.5156 C961.75,525.5156 962.0156,525.375 962.1875,525.1563 C962.2969,525 962.3281,524.8125 962.3281,524.3906 L962.3281,522.9688 C962.3281,522.5313 962.3125,522.4063 962.2188,522.25 C962.0625,521.9844 961.7813,521.8438 961.4844,521.8438 C961.1875,521.8438 960.9844,521.9375 960.7656,522.25 L960.5938,522.1719 Z " fill="#000000"/><text fill="#000000" font-family="sans-serif" font-size="14" lengthAdjust="spacing" textLength="115" x="973.75" y="531.3467">ReadStatement</text><line style="stroke:#181818;stroke-width:0.5;" x1="937.5" x2="1097.5" y1="542.5" y2="542.5"/><rect fill="none" height="6" style="stroke:#C82930;stroke-width:1.0;" width="6" x="944.5" y="553.1484"/><text fill="#000000" font-family="sans-serif" font-size="14" lengthAdjust="spacing" textLength="136" x="956.5" y="559.4951">variable_ : Variable</text><line style="stroke:#181818;stroke-width:0.5;" x1="937.5" x2="1097.5" y1="566.7969" y2="566.7969"/></g><!--class PrintStatement--><g id="elem_PrintStatement"><rect codeLine="41" fill="#F1F1F1" height="64.2969" id="PrintStatement" rx="2.5" ry="2.5" style="stroke:#181818;stroke-width:0.5;" width="162" x="1133.5" y="510.5"/><ellipse cx="1155.7" cy="526.5" fill="#ADD1B2" rx="11" ry="11" style="stroke:#181818;stroke-width:1.0;"/><path d="M1158.0438,522.1719 C1157.1063,521.7344 1156.5125,521.5938 1155.6375,521.5938 C1153.0125,521.5938 1151.0125,523.6719 1151.0125,526.3906 L1151.0125,527.5156 C1151.0125,530.0938 1153.1219,531.9844 1156.0125,531.9844 C1157.2313,531.9844 1158.3875,531.6875 1159.1375,531.1406 C1159.7156,530.7344 1160.0438,530.2813 1160.0438,529.8906 C1160.0438,529.4375 1159.6531,529.0469 1159.1844,529.0469 C1158.9656,529.0469 1158.7625,529.125 1158.575,529.3125 C1158.1219,529.7969 1158.1219,529.7969 1157.9344,529.8906 C1157.5125,530.1563 1156.825,530.2813 1156.0594,530.2813 C1154.0125,530.2813 1152.7156,529.1875 1152.7156,527.4844 L1152.7156,526.3906 C1152.7156,524.6094 1153.9656,523.2969 1155.7,523.2969 C1156.2781,523.2969 1156.8875,523.4531 1157.3563,523.7031 C1157.8406,523.9844 1158.0125,524.2031 1158.1063,524.6094 C1158.1688,525.0156 1158.2,525.1406 1158.3406,525.2656 C1158.4813,525.4063 1158.7156,525.5156 1158.9344,525.5156 C1159.2,525.5156 1159.4656,525.375 1159.6375,525.1563 C1159.7469,525 1159.7781,524.8125 1159.7781,524.3906 L1159.7781,522.9688 C1159.7781,522.5313 1159.7625,522.4063 1159.6688,522.25 C1159.5125,521.9844 1159.2313,521.8438 1158.9344,521.8438 C1158.6375,521.8438 1158.4344,521.9375 1158.2156,522.25 L1158.0438,522.1719 Z " fill="#000000"/><text fill="#000000" font-family="sans-serif" font-size="14" lengthAdjust="spacing" textLength="114" x="1171.3" y="531.3467">PrintStatement</text><line style="stroke:#181818;stroke-width:0.5;" x1="1134.5" x2="1294.5" y1="542.5" y2="542.5"/><rect fill="none" height="6" style="stroke:#C82930;stroke-width:1.0;" width="6" x="1141.5" y="553.1484"/><text fill="#000000" font-family="sans-serif" font-size="14" lengthAdjust="spacing" textLength="136" x="1153.5" y="559.4951">variable_ : Variable</text><line style="stroke:#181818;stroke-width:0.5;" x1="1134.5" x2="1294.5" y1="566.7969" y2="566.7969"/></g><!--class Expression--><g id="elem_Expression"><rect codeLine="46" fill="#F1F1F1" height="96.8906" id="Expression" rx="2.5" ry="2.5" style="stroke:#181818;stroke-width:0.5;" width="242" x="1330.5" y="494"/><ellipse cx="1408.75" cy="510" fill="#A9DCDF" rx="11" ry="11" style="stroke:#181818;stroke-width:1.0;"/><path d="M1410.8281,511.8125 L1411.2188,512.7969 L1410.8281,512.7969 C1410.375,512.7969 1410.2656,512.8125 1410.1094,512.9219 C1409.8594,513.0781 1409.7031,513.3594 1409.7031,513.6563 C1409.7031,513.9219 1409.8438,514.1719 1410.0625,514.3281 C1410.2031,514.4531 1410.4063,514.5 1410.8281,514.5 L1413.1875,514.5 C1413.5469,514.5 1413.7656,514.4688 1413.9063,514.375 C1414.1563,514.2344 1414.3125,513.9375 1414.3125,513.6563 C1414.3125,513.375 1414.1719,513.125 1413.9531,512.9688 C1413.7813,512.8281 1413.625,512.7969 1413.1563,512.7969 L1409.7656,504.5938 L1406.0938,504.5938 C1405.6406,504.5938 1405.5156,504.6094 1405.3594,504.7031 C1405.1094,504.875 1404.9531,505.1563 1404.9531,505.4375 C1404.9531,505.7188 1405.0938,505.9688 1405.3125,506.1406 C1405.4844,506.25 1405.6563,506.2813 1406.0938,506.2813 L1407.1719,506.2813 L1404.5313,512.7969 C1404.1094,512.7969 1403.9531,512.8125 1403.7969,512.9219 C1403.5469,513.0781 1403.3906,513.3594 1403.3906,513.6563 C1403.3906,514.2188 1403.7656,514.5 1404.5156,514.5 L1406.7813,514.5 C1407.1406,514.5 1407.3594,514.4688 1407.4844,514.375 C1407.75,514.2344 1407.8906,513.9375 1407.8906,513.6563 C1407.8906,513.375 1407.7656,513.125 1407.5469,512.9531 C1407.375,512.8281 1407.2344,512.7969 1406.7813,512.7969 L1406.3906,512.7969 L1406.7813,511.8125 L1410.8281,511.8125 Z M1410.125,510.1094 L1407.4531,510.1094 L1408.7969,506.8438 L1410.125,510.1094 Z " fill="#000000"/><text fill="#000000" font-family="sans-serif" font-size="14" font-style="italic" lengthAdjust="spacing" textLength="77" x="1429.25" y="514.8467">Expression</text><line style="stroke:#181818;stroke-width:0.5;" x1="1331.5" x2="1571.5" y1="526" y2="526"/><rect fill="none" height="6" style="stroke:#C82930;stroke-width:1.0;" width="6" x="1338.5" y="536.6484"/><text fill="#000000" font-family="sans-serif" font-size="14" lengthAdjust="spacing" textLength="170" x="1350.5" y="542.9951">expression_type: string</text><rect fill="none" height="6" style="stroke:#C82930;stroke-width:1.0;" width="6" x="1338.5" y="552.9453"/><text fill="#000000" font-family="sans-serif" font-size="14" lengthAdjust="spacing" textLength="98" x="1350.5" y="559.292">name_: string</text><polygon fill="none" points="1341.5,567.2422,1345.5,571.2422,1341.5,575.2422,1337.5,571.2422" style="stroke:#B38D22;stroke-width:1.0;"/><text fill="#000000" font-family="sans-serif" font-size="14" lengthAdjust="spacing" textLength="216" x="1350.5" y="575.5889">arguments_: PairOfArguments</text><line style="stroke:#181818;stroke-width:0.5;" x1="1331.5" x2="1571.5" y1="582.8906" y2="582.8906"/></g><!--class Variable--><g id="elem_Variable"><rect codeLine="54" fill="#F1F1F1" height="48" id="Variable" rx="2.5" ry="2.5" style="stroke:#181818;stroke-width:0.5;" width="91" x="1536" y="667"/><ellipse cx="1551" cy="683" fill="#ADD1B2" rx="11" ry="11" style="stroke:#181818;stroke-width:1.0;"/><path d="M1553.3438,678.6719 C1552.4063,678.2344 1551.8125,678.0938 1550.9375,678.0938 C1548.3125,678.0938 1546.3125,680.1719 1546.3125,682.8906 L1546.3125,684.0156 C1546.3125,686.5938 1548.4219,688.4844 1551.3125,688.4844 C1552.5313,688.4844 1553.6875,688.1875 1554.4375,687.6406 C1555.0156,687.2344 1555.3438,686.7813 1555.3438,686.3906 C1555.3438,685.9375 1554.9531,685.5469 1554.4844,685.5469 C1554.2656,685.5469 1554.0625,685.625 1553.875,685.8125 C1553.4219,686.2969 1553.4219,686.2969 1553.2344,686.3906 C1552.8125,686.6563 1552.125,686.7813 1551.3594,686.7813 C1549.3125,686.7813 1548.0156,685.6875 1548.0156,683.9844 L1548.0156,682.8906 C1548.0156,681.1094 1549.2656,679.7969 1551,679.7969 C1551.5781,679.7969 1552.1875,679.9531 1552.6563,680.2031 C1553.1406,680.4844 1553.3125,680.7031 1553.4063,681.1094 C1553.4688,681.5156 1553.5,681.6406 1553.6406,681.7656 C1553.7813,681.9063 1554.0156,682.0156 1554.2344,682.0156 C1554.5,682.0156 1554.7656,681.875 1554.9375,681.6563 C1555.0469,681.5 1555.0781,681.3125 1555.0781,680.8906 L1555.0781,679.4688 C1555.0781,679.0313 1555.0625,678.9063 1554.9688,678.75 C1554.8125,678.4844 1554.5313,678.3438 1554.2344,678.3438 C1553.9375,678.3438 1553.7344,678.4375 1553.5156,678.75 L1553.3438,678.6719 Z " fill="#000000"/><text fill="#000000" font-family="sans-serif" font-size="14" lengthAdjust="spacing" textLength="59" x="1565" y="687.8467">Variable</text><line style="stroke:#181818;stroke-width:0.5;" x1="1537" x2="1626" y1="699" y2="699"/><line style="stroke:#181818;stroke-width:0.5;" x1="1537" x2="1626" y1="707" y2="707"/></g><!--class Constant--><g id="elem_Constant"><rect codeLine="57" fill="#F1F1F1" height="48" id="Constant" rx="2.5" ry="2.5" style="stroke:#181818;stroke-width:0.5;" width="98" x="1402.5" y="667"/><ellipse cx="1417.5" cy="683" fill="#ADD1B2" rx="11" ry="11" style="stroke:#181818;stroke-width:1.0;"/><path d="M1419.8438,678.6719 C1418.9063,678.2344 1418.3125,678.0938 1417.4375,678.0938 C1414.8125,678.0938 1412.8125,680.1719 1412.8125,682.8906 L1412.8125,684.0156 C1412.8125,686.5938 1414.9219,688.4844 1417.8125,688.4844 C1419.0313,688.4844 1420.1875,688.1875 1420.9375,687.6406 C1421.5156,687.2344 1421.8438,686.7813 1421.8438,686.3906 C1421.8438,685.9375 1421.4531,685.5469 1420.9844,685.5469 C1420.7656,685.5469 1420.5625,685.625 1420.375,685.8125 C1419.9219,686.2969 1419.9219,686.2969 1419.7344,686.3906 C1419.3125,686.6563 1418.625,686.7813 1417.8594,686.7813 C1415.8125,686.7813 1414.5156,685.6875 1414.5156,683.9844 L1414.5156,682.8906 C1414.5156,681.1094 1415.7656,679.7969 1417.5,679.7969 C1418.0781,679.7969 1418.6875,679.9531 1419.1563,680.2031 C1419.6406,680.4844 1419.8125,680.7031 1419.9063,681.1094 C1419.9688,681.5156 1420,681.6406 1420.1406,681.7656 C1420.2813,681.9063 1420.5156,682.0156 1420.7344,682.0156 C1421,682.0156 1421.2656,681.875 1421.4375,681.6563 C1421.5469,681.5 1421.5781,681.3125 1421.5781,680.8906 L1421.5781,679.4688 C1421.5781,679.0313 1421.5625,678.9063 1421.4688,678.75 C1421.3125,678.4844 1421.0313,678.3438 1420.7344,678.3438 C1420.4375,678.3438 1420.2344,678.4375 1420.0156,678.75 L1419.8438,678.6719 Z " fill="#000000"/><text fill="#000000" font-family="sans-serif" font-size="14" lengthAdjust="spacing" textLength="66" x="1431.5" y="687.8467">Constant</text><line style="stroke:#181818;stroke-width:0.5;" x1="1403.5" x2="1499.5" y1="699" y2="699"/><line style="stroke:#181818;stroke-width:0.5;" x1="1403.5" x2="1499.5" y1="707" y2="707"/></g><!--class Operation--><g id="elem_Operation"><rect codeLine="60" fill="#F1F1F1" height="48" id="Operation" rx="2.5" ry="2.5" style="stroke:#181818;stroke-width:0.5;" width="105" x="1262" y="667"/><ellipse cx="1277" cy="683" fill="#ADD1B2" rx="11" ry="11" style="stroke:#181818;stroke-width:1.0;"/><path d="M1279.3438,678.6719 C1278.4063,678.2344 1277.8125,678.0938 1276.9375,678.0938 C1274.3125,678.0938 1272.3125,680.1719 1272.3125,682.8906 L1272.3125,684.0156 C1272.3125,686.5938 1274.4219,688.4844 1277.3125,688.4844 C1278.5313,688.4844 1279.6875,688.1875 1280.4375,687.6406 C1281.0156,687.2344 1281.3438,686.7813 1281.3438,686.3906 C1281.3438,685.9375 1280.9531,685.5469 1280.4844,685.5469 C1280.2656,685.5469 1280.0625,685.625 1279.875,685.8125 C1279.4219,686.2969 1279.4219,686.2969 1279.2344,686.3906 C1278.8125,686.6563 1278.125,686.7813 1277.3594,686.7813 C1275.3125,686.7813 1274.0156,685.6875 1274.0156,683.9844 L1274.0156,682.8906 C1274.0156,681.1094 1275.2656,679.7969 1277,679.7969 C1277.5781,679.7969 1278.1875,679.9531 1278.6563,680.2031 C1279.1406,680.4844 1279.3125,680.7031 1279.4063,681.1094 C1279.4688,681.5156 1279.5,681.6406 1279.6406,681.7656 C1279.7813,681.9063 1280.0156,682.0156 1280.2344,682.0156 C1280.5,682.0156 1280.7656,681.875 1280.9375,681.6563 C1281.0469,681.5 1281.0781,681.3125 1281.0781,680.8906 L1281.0781,679.4688 C1281.0781,679.0313 1281.0625,678.9063 1280.9688,678.75 C1280.8125,678.4844 1280.5313,678.3438 1280.2344,678.3438 C1279.9375,678.3438 1279.7344,678.4375 1279.5156,678.75 L1279.3438,678.6719 Z " fill="#000000"/><text fill="#000000" font-family="sans-serif" font-size="14" lengthAdjust="spacing" textLength="73" x="1291" y="687.8467">Operation</text><line style="stroke:#181818;stroke-width:0.5;" x1="1263" x2="1366" y1="699" y2="699"/><line style="stroke:#181818;stroke-width:0.5;" x1="1263" x2="1366" y1="707" y2="707"/></g><!--class RelationalOperation--><g id="elem_RelationalOperation"><rect codeLine="65" fill="#F1F1F1" height="48" id="RelationalOperation" rx="2.5" ry="2.5" style="stroke:#181818;stroke-width:0.5;" width="177" x="1441" y="775"/><ellipse cx="1456" cy="791" fill="#ADD1B2" rx="11" ry="11" style="stroke:#181818;stroke-width:1.0;"/><path d="M1458.3438,786.6719 C1457.4063,786.2344 1456.8125,786.0938 1455.9375,786.0938 C1453.3125,786.0938 1451.3125,788.1719 1451.3125,790.8906 L1451.3125,792.0156 C1451.3125,794.5938 1453.4219,796.4844 1456.3125,796.4844 C1457.5313,796.4844 1458.6875,796.1875 1459.4375,795.6406 C1460.0156,795.2344 1460.3438,794.7813 1460.3438,794.3906 C1460.3438,793.9375 1459.9531,793.5469 1459.4844,793.5469 C1459.2656,793.5469 1459.0625,793.625 1458.875,793.8125 C1458.4219,794.2969 1458.4219,794.2969 1458.2344,794.3906 C1457.8125,794.6563 1457.125,794.7813 1456.3594,794.7813 C1454.3125,794.7813 1453.0156,793.6875 1453.0156,791.9844 L1453.0156,790.8906 C1453.0156,789.1094 1454.2656,787.7969 1456,787.7969 C1456.5781,787.7969 1457.1875,787.9531 1457.6563,788.2031 C1458.1406,788.4844 1458.3125,788.7031 1458.4063,789.1094 C1458.4688,789.5156 1458.5,789.6406 1458.6406,789.7656 C1458.7813,789.9063 1459.0156,790.0156 1459.2344,790.0156 C1459.5,790.0156 1459.7656,789.875 1459.9375,789.6563 C1460.0469,789.5 1460.0781,789.3125 1460.0781,788.8906 L1460.0781,787.4688 C1460.0781,787.0313 1460.0625,786.9063 1459.9688,786.75 C1459.8125,786.4844 1459.5313,786.3438 1459.2344,786.3438 C1458.9375,786.3438 1458.7344,786.4375 1458.5156,786.75 L1458.3438,786.6719 Z " fill="#000000"/><text fill="#000000" font-family="sans-serif" font-size="14" lengthAdjust="spacing" textLength="145" x="1470" y="795.8467">RelationalOperation</text><line style="stroke:#181818;stroke-width:0.5;" x1="1442" x2="1617" y1="807" y2="807"/><line style="stroke:#181818;stroke-width:0.5;" x1="1442" x2="1617" y1="815" y2="815"/></g><!--class ArithmeticOperation--><g id="elem_ArithmeticOperation"><rect codeLine="68" fill="#F1F1F1" height="48" id="ArithmeticOperation" rx="2.5" ry="2.5" style="stroke:#181818;stroke-width:0.5;" width="183" x="1223" y="775"/><ellipse cx="1238" cy="791" fill="#ADD1B2" rx="11" ry="11" style="stroke:#181818;stroke-width:1.0;"/><path d="M1240.3438,786.6719 C1239.4063,786.2344 1238.8125,786.0938 1237.9375,786.0938 C1235.3125,786.0938 1233.3125,788.1719 1233.3125,790.8906 L1233.3125,792.0156 C1233.3125,794.5938 1235.4219,796.4844 1238.3125,796.4844 C1239.5313,796.4844 1240.6875,796.1875 1241.4375,795.6406 C1242.0156,795.2344 1242.3438,794.7813 1242.3438,794.3906 C1242.3438,793.9375 1241.9531,793.5469 1241.4844,793.5469 C1241.2656,793.5469 1241.0625,793.625 1240.875,793.8125 C1240.4219,794.2969 1240.4219,794.2969 1240.2344,794.3906 C1239.8125,794.6563 1239.125,794.7813 1238.3594,794.7813 C1236.3125,794.7813 1235.0156,793.6875 1235.0156,791.9844 L1235.0156,790.8906 C1235.0156,789.1094 1236.2656,787.7969 1238,787.7969 C1238.5781,787.7969 1239.1875,787.9531 1239.6563,788.2031 C1240.1406,788.4844 1240.3125,788.7031 1240.4063,789.1094 C1240.4688,789.5156 1240.5,789.6406 1240.6406,789.7656 C1240.7813,789.9063 1241.0156,790.0156 1241.2344,790.0156 C1241.5,790.0156 1241.7656,789.875 1241.9375,789.6563 C1242.0469,789.5 1242.0781,789.3125 1242.0781,788.8906 L1242.0781,787.4688 C1242.0781,787.0313 1242.0625,786.9063 1241.9688,786.75 C1241.8125,786.4844 1241.5313,786.3438 1241.2344,786.3438 C1240.9375,786.3438 1240.7344,786.4375 1240.5156,786.75 L1240.3438,786.6719 Z " fill="#000000"/><text fill="#000000" font-family="sans-serif" font-size="14" lengthAdjust="spacing" textLength="151" x="1252" y="795.8467">ArithmeticOperation</text><line style="stroke:#181818;stroke-width:0.5;" x1="1224" x2="1405" y1="807" y2="807"/><line style="stroke:#181818;stroke-width:0.5;" x1="1224" x2="1405" y1="815" y2="815"/></g><!--class ConditionalOperation--><g id="elem_ConditionalOperation"><rect codeLine="71" fill="#F1F1F1" height="48" id="ConditionalOperation" rx="2.5" ry="2.5" style="stroke:#181818;stroke-width:0.5;" width="187" x="1001" y="775"/><ellipse cx="1016" cy="791" fill="#ADD1B2" rx="11" ry="11" style="stroke:#181818;stroke-width:1.0;"/><path d="M1018.3438,786.6719 C1017.4063,786.2344 1016.8125,786.0938 1015.9375,786.0938 C1013.3125,786.0938 1011.3125,788.1719 1011.3125,790.8906 L1011.3125,792.0156 C1011.3125,794.5938 1013.4219,796.4844 1016.3125,796.4844 C1017.5313,796.4844 1018.6875,796.1875 1019.4375,795.6406 C1020.0156,795.2344 1020.3438,794.7813 1020.3438,794.3906 C1020.3438,793.9375 1019.9531,793.5469 1019.4844,793.5469 C1019.2656,793.5469 1019.0625,793.625 1018.875,793.8125 C1018.4219,794.2969 1018.4219,794.2969 1018.2344,794.3906 C1017.8125,794.6563 1017.125,794.7813 1016.3594,794.7813 C1014.3125,794.7813 1013.0156,793.6875 1013.0156,791.9844 L1013.0156,790.8906 C1013.0156,789.1094 1014.2656,787.7969 1016,787.7969 C1016.5781,787.7969 1017.1875,787.9531 1017.6563,788.2031 C1018.1406,788.4844 1018.3125,788.7031 1018.4063,789.1094 C1018.4688,789.5156 1018.5,789.6406 1018.6406,789.7656 C1018.7813,789.9063 1019.0156,790.0156 1019.2344,790.0156 C1019.5,790.0156 1019.7656,789.875 1019.9375,789.6563 C1020.0469,789.5 1020.0781,789.3125 1020.0781,788.8906 L1020.0781,787.4688 C1020.0781,787.0313 1020.0625,786.9063 1019.9688,786.75 C1019.8125,786.4844 1019.5313,786.3438 1019.2344,786.3438 C1018.9375,786.3438 1018.7344,786.4375 1018.5156,786.75 L1018.3438,786.6719 Z " fill="#000000"/><text fill="#000000" font-family="sans-serif" font-size="14" lengthAdjust="spacing" textLength="155" x="1030" y="795.8467">ConditionalOperation</text><line style="stroke:#181818;stroke-width:0.5;" x1="1002" x2="1187" y1="807" y2="807"/><line style="stroke:#181818;stroke-width:0.5;" x1="1002" x2="1187" y1="815" y2="815"/></g><!--reverse link Statement to AssignStatement--><g id="link_Statement_AssignStatement"><path d="M765.326,381.097 C636.533,394.667 428.067,423.275 255.5,478 C241.72,482.37 227.544,487.904 213.818,493.876 " fill="none" id="Statement-backto-AssignStatement" style="stroke:#181818;stroke-width:1.0;"/><polygon fill="none" points="764.684,374.126,785.294,379.047,766.114,388.053,764.684,374.126" style="stroke:#181818;stroke-width:1.0;"/></g><!--reverse link Statement to IfStatement--><g id="link_Statement_IfStatement"><path d="M766.251,414.196 C712.977,433.625 649.571,456.845 592.5,478 C586.475,480.233 580.332,482.516 574.127,484.826 " fill="none" id="Statement-backto-IfStatement" style="stroke:#181818;stroke-width:1.0;"/><polygon fill="none" points="764.201,407.492,785.389,407.22,768.995,420.646,764.201,407.492" style="stroke:#181818;stroke-width:1.0;"/></g><!--reverse link Statement to WhileStatement--><g id="link_Statement_WhileStatement"><path d="M837.681,434.225 C822.557,453.968 806.161,475.37 792.022,493.826 " fill="none" id="Statement-backto-WhileStatement" style="stroke:#181818;stroke-width:1.0;"/><polygon fill="none" points="832.29,429.753,850.009,418.133,843.403,438.267,832.29,429.753" style="stroke:#181818;stroke-width:1.0;"/></g><!--reverse link Statement to ReadStatement--><g id="link_Statement_ReadStatement"><path d="M935.343,434.258 C955.24,460.23 977.334,489.069 993.594,510.294 " fill="none" id="Statement-backto-ReadStatement" style="stroke:#181818;stroke-width:1.0;"/><polygon fill="none" points="929.597,438.267,922.991,418.133,940.71,429.753,929.597,438.267" style="stroke:#181818;stroke-width:1.0;"/></g><!--reverse link Statement to PrintStatement--><g id="link_Statement_PrintStatement"><path d="M1006.114,422.611 C1042.11,439.303 1081.37,458.532 1116.5,478 C1134.23,487.828 1153.06,499.667 1169.43,510.446 " fill="none" id="Statement-backto-PrintStatement" style="stroke:#181818;stroke-width:1.0;"/><polygon fill="none" points="1002.882,428.829,987.625,414.125,1008.72,416.105,1002.882,428.829" style="stroke:#181818;stroke-width:1.0;"/></g><!--reverse link Expression to Variable--><g id="link_Expression_Variable"><path d="M1507.02,606.065 C1526.16,627.632 1546.41,650.461 1560.96,666.857 " fill="none" id="Expression-backto-Variable" style="stroke:#181818;stroke-width:1.0;"/><polygon fill="none" points="1501.75,610.67,1493.71,591.064,1512.22,601.378,1501.75,610.67" style="stroke:#181818;stroke-width:1.0;"/></g><!--reverse link Expression to Constant--><g id="link_Expression_Constant"><path d="M1451.5,611.085 C1451.5,631.122 1451.5,651.728 1451.5,666.857 " fill="none" id="Expression-backto-Constant" style="stroke:#181818;stroke-width:1.0;"/><polygon fill="none" points="1444.5,611.064,1451.5,591.064,1458.5,611.064,1444.5,611.064" style="stroke:#181818;stroke-width:1.0;"/></g><!--reverse link Expression to Operation--><g id="link_Expression_Operation"><path d="M1393.28,605.753 C1373.03,627.411 1351.55,650.382 1336.14,666.857 " fill="none" id="Expression-backto-Operation" style="stroke:#181818;stroke-width:1.0;"/><polygon fill="none" points="1388.25,600.891,1407.02,591.064,1398.47,610.453,1388.25,600.891" style="stroke:#181818;stroke-width:1.0;"/></g><!--reverse link Operation to RelationalOperation--><g id="link_Operation_RelationalOperation"><path d="M1379.35,723.972 C1412.59,740.3612 1452.33,759.9516 1482.57,774.8617 " fill="none" id="Operation-backto-RelationalOperation" style="stroke:#181818;stroke-width:1.0;"/><polygon fill="none" points="1375.99,730.123,1361.15,715,1382.19,717.566,1375.99,730.123" style="stroke:#181818;stroke-width:1.0;"/></g><!--reverse link Operation to ArithmeticOperation--><g id="link_Operation_ArithmeticOperation"><path d="M1314.5,735.024 C1314.5,748.5792 1314.5,763.0381 1314.5,774.6784 " fill="none" id="Operation-backto-ArithmeticOperation" style="stroke:#181818;stroke-width:1.0;"/><polygon fill="none" points="1307.5,735,1314.5,715,1321.5,735,1307.5,735" style="stroke:#181818;stroke-width:1.0;"/></g><!--reverse link Operation to ConditionalOperation--><g id="link_Operation_ConditionalOperation"><path d="M1248.62,723.744 C1214.51,740.1789 1173.61,759.8823 1142.52,774.8617 " fill="none" id="Operation-backto-ConditionalOperation" style="stroke:#181818;stroke-width:1.0;"/><polygon fill="none" points="1245.71,717.376,1266.76,715,1251.78,729.988,1245.71,717.376" style="stroke:#181818;stroke-width:1.0;"/></g><!--link Program to Procedure--><g id="link_Program_Procedure"><path codeLine="75" d="M886.5,116.27 C886.5,116.27 886.5,139.886 886.5,150.832 " fill="none" id="Program-Procedure" style="stroke:#181818;stroke-width:1.0;"/><polygon fill="none" points="886.5,104.27,882.5,110.27,886.5,116.27,890.5,110.27,886.5,104.27" style="stroke:#181818;stroke-width:1.0;"/><polygon fill="#181818" points="886.5,163.888,890.5,154.888,886.5,158.888,882.5,154.888,886.5,163.888" style="stroke:#181818;stroke-width:1.0;"/><line style="stroke:#181818;stroke-width:1.0;" x1="886.5" x2="886.5" y1="158.888" y2="150.888"/></g><!--link Procedure to Statement--><g id="link_Procedure_Statement"><path codeLine="76" d="M886.5,273.27 C886.5,273.27 886.5,296.886 886.5,307.832 " fill="none" id="Procedure-Statement" style="stroke:#181818;stroke-width:1.0;"/><polygon fill="none" points="886.5,261.27,882.5,267.27,886.5,273.27,890.5,267.27,886.5,261.27" style="stroke:#181818;stroke-width:1.0;"/><polygon fill="#181818" points="886.5,320.888,890.5,311.888,886.5,315.888,882.5,311.888,886.5,320.888" style="stroke:#181818;stroke-width:1.0;"/><line style="stroke:#181818;stroke-width:1.0;" x1="886.5" x2="886.5" y1="315.888" y2="307.888"/></g><!--link Statement to Statement--><g id="link_Statement_Statement"><path codeLine="77" d="M999.2932,344.209 C999.2932,344.209 1022.5,357.423 1022.5,369.5 C1022.5,381.577 1013.81,389.915 1000.454,394.512 " fill="none" id="Statement-Statement" style="stroke:#181818;stroke-width:1.0;"/><polygon fill="none" points="987.624,341.411,992.526,346.6997,999.2932,344.209,994.3913,338.9202,987.624,341.411" style="stroke:#181818;stroke-width:1.0;"/><polygon fill="#181818" points="987.624,397.589,997.3086,399.3803,992.4862,396.4232,995.4433,391.6008,987.624,397.589" style="stroke:#181818;stroke-width:1.0;"/><line style="stroke:#181818;stroke-width:1.0;" x1="992.4862" x2="1000.266" y1="396.4232" y2="394.557"/></g><!--link Statement to Expression--><g id="link_Statement_Expression"><path codeLine="78" d="M999.4327,392.9664 C999.4327,392.9664 1209.67,441.396 1313.5,478 C1322.86,481.299 1332.44,484.999 1341.99,488.912 " fill="none" id="Statement-Expression" style="stroke:#181818;stroke-width:1.0;"/><polygon fill="none" points="987.698,390.457,992.7289,395.6233,999.4327,392.9664,994.4018,387.8001,987.698,390.457" style="stroke:#181818;stroke-width:1.0;"/><polygon fill="#181818" points="1354.04,493.967,1347.2877,486.7972,1349.4292,492.033,1344.1933,494.1745,1354.04,493.967" style="stroke:#181818;stroke-width:1.0;"/><line style="stroke:#181818;stroke-width:1.0;" x1="1349.4292" x2="1342.05" y1="492.033" y2="488.938"/></g><!--SRC=[dLJRQjmm47tNLmpqPTEmF-27WWcb14eJcf0-6gqywnNOaf5cIyAo_nx9Nesqbsv2t-IvdJDdngDwwJqyEjivES1Em2tKRVjiWqLXktNuKtjQyDVN6t4BEq-IjDh33wJQjFT6EPGUdu8L1pJqQpkiq2rkAj26n1B6bDtqeLW3LSHJiV2TDIIrGIVsGYKcSsp1XGjFNFWhS86ok943DXLuSjfqqULJv8nRmHCDT0ehv2faI4Km4-3oaK1PmqnTDNDJHnvw6u-1jMcyii5erqtanxu0T-Ypzbvt9eFXAw5fJ-2d_h-_ZWv3j3MB_8Iv-R_IQRdg8_hBuHdDo75Hx9p5Aj-lpv4pD2k_GPCaEvPz9jR7cGyNfwAiQJL50XNSfNTqKAZPi7J-ub1Y1w7sHs7xfEMVZUxnYfIf7pPyccrlxLZGkCI2DVsDihrEefWN50FBgnyswpyhdArniIenhzY8kAtbifxyDbz0kcwRL7-KsZsiwsI9tGgo7OOnkjs1TwB1Z3DsWERsWcH1oQAn8ueSzZ2Yar7_VyRjcG7iMFj-of7zUNgs52YrqxGPC5onJoRmMbo5EF1BvzGkbz_oHHFvjaqE7gp8Gx_ko4gy0m00]--></g></svg>