<?xml version="1.0" encoding="UTF-8" standalone="no"?><svg xmlns="http://www.w3.org/2000/svg" xmlns:xlink="http://www.w3.org/1999/xlink" contentStyleType="text/css" height="271px" preserveAspectRatio="none" style="width:559px;height:271px;background:#FFFFFF;" version="1.1" viewBox="0 0 559 271" width="559px" zoomAndPan="magnify"><defs/><g><!--entity SP--><g id="elem_SP"><rect fill="#F1F1F1" height="46.2969" rx="2.5" ry="2.5" style="stroke:#181818;stroke-width:0.5;" width="58" x="168" y="7"/><rect fill="#F1F1F1" height="10" style="stroke:#181818;stroke-width:0.5;" width="15" x="206" y="12"/><rect fill="#F1F1F1" height="2" style="stroke:#181818;stroke-width:0.5;" width="4" x="204" y="14"/><rect fill="#F1F1F1" height="2" style="stroke:#181818;stroke-width:0.5;" width="4" x="204" y="18"/><text fill="#000000" font-family="sans-serif" font-size="14" lengthAdjust="spacing" textLength="18" x="183" y="39.9951">SP</text></g><!--entity Tokenizer--><g id="elem_Tokenizer"><rect fill="#F1F1F1" height="46.2969" rx="2.5" ry="2.5" style="stroke:#181818;stroke-width:0.5;" width="112" x="7" y="113"/><rect fill="#F1F1F1" height="10" style="stroke:#181818;stroke-width:0.5;" width="15" x="99" y="118"/><rect fill="#F1F1F1" height="2" style="stroke:#181818;stroke-width:0.5;" width="4" x="97" y="120"/><rect fill="#F1F1F1" height="2" style="stroke:#181818;stroke-width:0.5;" width="4" x="97" y="124"/><text fill="#000000" font-family="sans-serif" font-size="14" lengthAdjust="spacing" textLength="72" x="22" y="145.9951">Tokenizer</text></g><!--entity Parser--><g id="elem_Parser"><rect fill="#F1F1F1" height="46.2969" rx="2.5" ry="2.5" style="stroke:#181818;stroke-width:0.5;" width="85" x="154.5" y="113"/><rect fill="#F1F1F1" height="10" style="stroke:#181818;stroke-width:0.5;" width="15" x="219.5" y="118"/><rect fill="#F1F1F1" height="2" style="stroke:#181818;stroke-width:0.5;" width="4" x="217.5" y="120"/><rect fill="#F1F1F1" height="2" style="stroke:#181818;stroke-width:0.5;" width="4" x="217.5" y="124"/><text fill="#000000" font-family="sans-serif" font-size="14" lengthAdjust="spacing" textLength="45" x="169.5" y="145.9951">Parser</text></g><!--entity DesignExtractor--><g id="elem_DesignExtractor"><rect fill="#F1F1F1" height="46.2969" rx="2.5" ry="2.5" style="stroke:#181818;stroke-width:0.5;" width="157" x="274.5" y="113"/><rect fill="#F1F1F1" height="10" style="stroke:#181818;stroke-width:0.5;" width="15" x="411.5" y="118"/><rect fill="#F1F1F1" height="2" style="stroke:#181818;stroke-width:0.5;" width="4" x="409.5" y="120"/><rect fill="#F1F1F1" height="2" style="stroke:#181818;stroke-width:0.5;" width="4" x="409.5" y="124"/><text fill="#000000" font-family="sans-serif" font-size="14" lengthAdjust="spacing" textLength="117" x="289.5" y="145.9951">DesignExtractor</text></g><!--entity EntityExtractor--><g id="elem_EntityExtractor"><rect fill="#F1F1F1" height="46.2969" rx="2.5" ry="2.5" style="stroke:#181818;stroke-width:0.5;" width="152" x="173" y="219"/><rect fill="#F1F1F1" height="10" style="stroke:#181818;stroke-width:0.5;" width="15" x="305" y="224"/><rect fill="#F1F1F1" height="2" style="stroke:#181818;stroke-width:0.5;" width="4" x="303" y="226"/><rect fill="#F1F1F1" height="2" style="stroke:#181818;stroke-width:0.5;" width="4" x="303" y="230"/><text fill="#000000" font-family="sans-serif" font-size="14" lengthAdjust="spacing" textLength="112" x="188" y="251.9951">EntityExtractor</text></g><!--entity AbstractionExtractor--><g id="elem_AbstractionExtractor"><rect fill="#F1F1F1" height="46.2969" rx="2.5" ry="2.5" style="stroke:#181818;stroke-width:0.5;" width="193" x="360.5" y="219"/><rect fill="#F1F1F1" height="10" style="stroke:#181818;stroke-width:0.5;" width="15" x="533.5" y="224"/><rect fill="#F1F1F1" height="2" style="stroke:#181818;stroke-width:0.5;" width="4" x="531.5" y="226"/><rect fill="#F1F1F1" height="2" style="stroke:#181818;stroke-width:0.5;" width="4" x="531.5" y="230"/><text fill="#000000" font-family="sans-serif" font-size="14" lengthAdjust="spacing" textLength="153" x="375.5" y="251.9951">AbstractionExtractor</text></g><!--link SP to Tokenizer--><g id="link_SP_Tokenizer"><path d="M168.582,53.056 C147.174,69.671 117.795,92.473 95.4615,109.806 " fill="none" id="SP-to-Tokenizer" style="stroke:#181818;stroke-width:1.0;"/><polygon fill="#181818" points="91.377,112.976,100.9394,110.618,95.327,109.9104,96.0345,104.298,91.377,112.976" style="stroke:#181818;stroke-width:1.0;"/></g><!--link SP to Parser--><g id="link_SP_Parser"><path d="M197,53.056 C197,69.05 197,90.778 197,107.842 " fill="none" id="SP-to-Parser" style="stroke:#181818;stroke-width:1.0;"/><polygon fill="#181818" points="197,112.976,201,103.976,197,107.976,193,103.976,197,112.976" style="stroke:#181818;stroke-width:1.0;"/></g><!--link SP to DesignExtractor--><g id="link_SP_DesignExtractor"><path d="M226.342,50.562 C251.56,67.373 288.075,91.716 315.425,109.95 " fill="none" id="SP-to-DesignExtractor" style="stroke:#181818;stroke-width:1.0;"/><polygon fill="#181818" points="319.733,112.822,314.4627,104.5019,315.5725,110.0488,310.0256,111.1587,319.733,112.822" style="stroke:#181818;stroke-width:1.0;"/></g><!--link DesignExtractor to EntityExtractor--><g id="link_DesignExtractor_EntityExtractor"><path d="M330.944,159.056 C314.536,175.4639 292.094,197.9062 274.844,215.1562 " fill="none" id="DesignExtractor-to-EntityExtractor" style="stroke:#181818;stroke-width:1.0;"/><polygon fill="#181818" points="271.024,218.9761,280.2163,215.4404,274.5595,215.4405,274.5593,209.7836,271.024,218.9761" style="stroke:#181818;stroke-width:1.0;"/></g><!--link DesignExtractor to AbstractionExtractor--><g id="link_DesignExtractor_AbstractionExtractor"><path d="M375.056,159.056 C391.464,175.4639 413.906,197.9062 431.156,215.1562 " fill="none" id="DesignExtractor-to-AbstractionExtractor" style="stroke:#181818;stroke-width:1.0;"/><polygon fill="#181818" points="434.976,218.9761,431.4407,209.7836,431.4405,215.4405,425.7837,215.4404,434.976,218.9761" style="stroke:#181818;stroke-width:1.0;"/></g><!--link Tokenizer to Parser--><!--link Parser to DesignExtractor--><!--SRC=[IyxFBSZFIyqhKGWEuE9AXlD2yhDJypAhKekG1GCIYufHHLnIYpFJyrmhIeeIaqloYv1aNFDACaigiSau9XM31JFpaJHo1GSewEhQ8TaB5O3Q2UMXsuV61wj1jncR6gnkWDkje1kTaPcIafeN2xCUGY69enaA0000]--></g></svg>