<?xml version="1.0" encoding="UTF-8" standalone="no"?><svg xmlns="http://www.w3.org/2000/svg" xmlns:xlink="http://www.w3.org/1999/xlink" contentStyleType="text/css" height="915px" preserveAspectRatio="none" style="width:1728px;height:915px;background:#FFFFFF;" version="1.1" viewBox="0 0 1728 915" width="1728px" zoomAndPan="magnify"><defs/><g><rect fill="#FFFFFF" height="894.4688" style="stroke:#181818;stroke-width:1.5;" width="1717" x="5" y="15"/><path d="M244,15 L244,24.2969 L234,34.2969 L5,34.2969 " fill="none" style="stroke:#181818;stroke-width:1.5;"/><text fill="#000000" font-family="sans-serif" font-size="14" lengthAdjust="spacing" textLength="229" x="8" y="28.9951">sd Extract design from program</text><rect fill="none" height="192.7969" style="stroke:#000000;stroke-width:1.5;" width="1602.5" x="103.5" y="344.1797"/><rect fill="none" height="60.2656" style="stroke:#000000;stroke-width:1.5;" width="1582.5" x="113.5" y="469.7109"/><rect fill="none" height="310.1953" style="stroke:#000000;stroke-width:1.5;" width="1612.5" x="93.5" y="550.9766"/><rect fill="none" height="177.6641" style="stroke:#000000;stroke-width:1.5;" width="1592.5" x="103.5" y="676.5078"/><rect fill="none" height="103.3984" style="stroke:#000000;stroke-width:1.5;" width="1297.5" x="113.5" y="700.6406"/><line style="stroke:#181818;stroke-width:0.5;stroke-dasharray:5.0,5.0;" x1="188.5" x2="188.5" y1="74.5938" y2="892.1719"/><line style="stroke:#181818;stroke-width:0.5;stroke-dasharray:5.0,5.0;" x1="467" x2="467" y1="144.375" y2="892.1719"/><line style="stroke:#181818;stroke-width:0.5;stroke-dasharray:5.0,5.0;" x1="713" x2="713" y1="185.6719" y2="892.1719"/><line style="stroke:#181818;stroke-width:0.5;stroke-dasharray:5.0,5.0;" x1="975" x2="975" y1="226.9688" y2="892.1719"/><line style="stroke:#181818;stroke-width:0.5;stroke-dasharray:5.0,5.0;" x1="1315" x2="1315" y1="268.2656" y2="892.1719"/><line style="stroke:#181818;stroke-width:0.5;stroke-dasharray:5.0,5.0;" x1="1448" x2="1448" y1="74.5938" y2="892.1719"/><line style="stroke:#181818;stroke-width:0.5;stroke-dasharray:5.0,5.0;" x1="1539" x2="1539" y1="74.5938" y2="892.1719"/><line style="stroke:#181818;stroke-width:0.5;stroke-dasharray:5.0,5.0;" x1="1639" x2="1639" y1="74.5938" y2="892.1719"/><rect fill="#E2E2F0" height="30.2969" rx="2.5" ry="2.5" style="stroke:#181818;stroke-width:0.5;" width="131" x="123.5" y="43.2969"/><text fill="#000000" font-family="sans-serif" font-size="14" lengthAdjust="spacing" textLength="117" x="130.5" y="63.292">DesignExtractor</text><rect fill="#E2E2F0" height="30.2969" rx="2.5" ry="2.5" style="stroke:#181818;stroke-width:0.5;" width="75" x="1411" y="43.2969"/><text fill="#000000" font-family="sans-serif" font-size="14" lengthAdjust="spacing" textLength="61" x="1418" y="63.292">Program</text><rect fill="#E2E2F0" height="30.2969" rx="2.5" ry="2.5" style="stroke:#181818;stroke-width:0.5;" width="87" x="1496" y="43.2969"/><text fill="#000000" font-family="sans-serif" font-size="14" lengthAdjust="spacing" textLength="73" x="1503" y="63.292">Procedure</text><rect fill="#E2E2F0" height="30.2969" rx="2.5" ry="2.5" style="stroke:#181818;stroke-width:0.5;" width="93" x="1593" y="43.2969"/><text fill="#000000" font-family="sans-serif" font-size="14" lengthAdjust="spacing" textLength="79" x="1600" y="63.292">Statement</text><polygon fill="#181818" points="177,101.7266,187,105.7266,177,109.7266,181,105.7266" style="stroke:#181818;stroke-width:1.0;"/><line style="stroke:#181818;stroke-width:1.0;" x1="10" x2="183" y1="105.7266" y2="105.7266"/><text fill="#000000" font-family="sans-serif" font-size="13" lengthAdjust="spacing" textLength="155" x="17" y="100.6606">ExtractDesign(program)</text><polygon fill="#181818" points="330,130.8594,340,134.8594,330,138.8594,334,134.8594" style="stroke:#181818;stroke-width:1.0;"/><line style="stroke:#181818;stroke-width:1.0;" x1="189" x2="336" y1="134.8594" y2="134.8594"/><text fill="#000000" font-family="sans-serif" font-size="13" lengthAdjust="spacing" textLength="129" x="196" y="129.7935">EntityExtractor(pkb)</text><rect fill="#E2E2F0" height="30.2969" rx="2.5" ry="2.5" style="stroke:#181818;stroke-width:0.5;" width="250" x="342" y="113.7266"/><text fill="#000000" font-family="sans-serif" font-size="14" lengthAdjust="spacing" textLength="236" x="349" y="133.7217">entity_extractor:EntityExtractor</text><polygon fill="#181818" points="615,172.1563,625,176.1563,615,180.1563,619,176.1563" style="stroke:#181818;stroke-width:1.0;"/><line style="stroke:#181818;stroke-width:1.0;" x1="467" x2="621" y1="176.1563" y2="176.1563"/><text fill="#000000" font-family="sans-serif" font-size="13" lengthAdjust="spacing" textLength="136" x="474" y="171.0903">PkbWriteFacade(pkb)</text><rect fill="#E2E2F0" height="30.2969" rx="2.5" ry="2.5" style="stroke:#181818;stroke-width:0.5;" width="173" x="627" y="155.0234"/><text fill="#000000" font-family="sans-serif" font-size="14" lengthAdjust="spacing" textLength="159" x="634" y="175.0186">pwf1:PkbWriteFacade</text><polygon fill="#181818" points="798,213.4531,808,217.4531,798,221.4531,802,217.4531" style="stroke:#181818;stroke-width:1.0;"/><line style="stroke:#181818;stroke-width:1.0;" x1="189" x2="804" y1="217.4531" y2="217.4531"/><text fill="#000000" font-family="sans-serif" font-size="13" lengthAdjust="spacing" textLength="165" x="196" y="212.3872">AbstractionExtractor(pkb)</text><rect fill="#E2E2F0" height="30.2969" rx="2.5" ry="2.5" style="stroke:#181818;stroke-width:0.5;" width="330" x="810" y="196.3203"/><text fill="#000000" font-family="sans-serif" font-size="14" lengthAdjust="spacing" textLength="316" x="817" y="216.3154">abstraction_extractor:AbstractionExtractor</text><polygon fill="#181818" points="1217,254.75,1227,258.75,1217,262.75,1221,258.75" style="stroke:#181818;stroke-width:1.0;"/><line style="stroke:#181818;stroke-width:1.0;" x1="975" x2="1223" y1="258.75" y2="258.75"/><text fill="#000000" font-family="sans-serif" font-size="13" lengthAdjust="spacing" textLength="136" x="982" y="253.6841">PkbWriteFacade(pkb)</text><rect fill="#E2E2F0" height="30.2969" rx="2.5" ry="2.5" style="stroke:#181818;stroke-width:0.5;" width="172" x="1229" y="237.6172"/><text fill="#000000" font-family="sans-serif" font-size="14" lengthAdjust="spacing" textLength="158" x="1236" y="257.6123">pwf2:PkbWriteFacade</text><polygon fill="#181818" points="1436.5,296.0469,1446.5,300.0469,1436.5,304.0469,1440.5,300.0469" style="stroke:#181818;stroke-width:1.0;"/><line style="stroke:#181818;stroke-width:1.0;" x1="189" x2="1442.5" y1="300.0469" y2="300.0469"/><text fill="#000000" font-family="sans-serif" font-size="13" lengthAdjust="spacing" textLength="179" x="196" y="294.981">program.GetProcedureList()</text><polygon fill="#181818" points="200,325.1797,190,329.1797,200,333.1797,196,329.1797" style="stroke:#181818;stroke-width:1.0;"/><line style="stroke:#181818;stroke-width:1.0;stroke-dasharray:2.0,2.0;" x1="194" x2="1447.5" y1="329.1797" y2="329.1797"/><text fill="#000000" font-family="sans-serif" font-size="13" lengthAdjust="spacing" textLength="72" x="206" y="324.1138">procedures</text><path d="M103.5,344.1797 L181.5,344.1797 L181.5,351.3125 L171.5,361.3125 L103.5,361.3125 L103.5,344.1797 " fill="#EEEEEE" style="stroke:#000000;stroke-width:1.5;"/><rect fill="none" height="192.7969" style="stroke:#000000;stroke-width:1.5;" width="1602.5" x="103.5" y="344.1797"/><text fill="#000000" font-family="sans-serif" font-size="13" font-weight="bold" lengthAdjust="spacing" textLength="33" x="118.5" y="357.2466">loop</text><text fill="#000000" font-family="sans-serif" font-size="11" font-weight="bold" lengthAdjust="spacing" textLength="113" x="196.5" y="356.3901">[p in procedures]</text><polygon fill="#181818" points="1527.5,378.4453,1537.5,382.4453,1527.5,386.4453,1531.5,382.4453" style="stroke:#181818;stroke-width:1.0;"/><line style="stroke:#181818;stroke-width:1.0;" x1="189" x2="1533.5" y1="382.4453" y2="382.4453"/><text fill="#000000" font-family="sans-serif" font-size="13" lengthAdjust="spacing" textLength="169" x="196" y="377.3794">p.Accept(entity_extractor)</text><polygon fill="#181818" points="200,392.4453,190,396.4453,200,400.4453,196,396.4453" style="stroke:#181818;stroke-width:1.0;"/><line style="stroke:#181818;stroke-width:1.0;stroke-dasharray:2.0,2.0;" x1="194" x2="1538.5" y1="396.4453" y2="396.4453"/><polygon fill="#181818" points="1527.5,421.5781,1537.5,425.5781,1527.5,429.5781,1531.5,425.5781" style="stroke:#181818;stroke-width:1.0;"/><line style="stroke:#181818;stroke-width:1.0;" x1="189" x2="1533.5" y1="425.5781" y2="425.5781"/><text fill="#000000" font-family="sans-serif" font-size="13" lengthAdjust="spacing" textLength="135" x="196" y="420.5122">p.GetStatementList()</text><polygon fill="#181818" points="200,450.7109,190,454.7109,200,458.7109,196,454.7109" style="stroke:#181818;stroke-width:1.0;"/><line style="stroke:#181818;stroke-width:1.0;stroke-dasharray:2.0,2.0;" x1="194" x2="1538.5" y1="454.7109" y2="454.7109"/><text fill="#000000" font-family="sans-serif" font-size="13" lengthAdjust="spacing" textLength="74" x="206" y="449.645">statements</text><path d="M113.5,469.7109 L191.5,469.7109 L191.5,476.8438 L181.5,486.8438 L113.5,486.8438 L113.5,469.7109 " fill="#EEEEEE" style="stroke:#000000;stroke-width:1.5;"/><rect fill="none" height="60.2656" style="stroke:#000000;stroke-width:1.5;" width="1582.5" x="113.5" y="469.7109"/><text fill="#000000" font-family="sans-serif" font-size="13" font-weight="bold" lengthAdjust="spacing" textLength="33" x="128.5" y="482.7778">loop</text><text fill="#000000" font-family="sans-serif" font-size="11" font-weight="bold" lengthAdjust="spacing" textLength="116" x="206.5" y="481.9214">[s in statements]</text><polygon fill="#181818" points="1627.5,503.9766,1637.5,507.9766,1627.5,511.9766,1631.5,507.9766" style="stroke:#181818;stroke-width:1.0;"/><line style="stroke:#181818;stroke-width:1.0;" x1="189" x2="1633.5" y1="507.9766" y2="507.9766"/><text fill="#000000" font-family="sans-serif" font-size="13" lengthAdjust="spacing" textLength="168" x="196" y="502.9106">s.Accept(entity_extractor)</text><polygon fill="#181818" points="200,517.9766,190,521.9766,200,525.9766,196,521.9766" style="stroke:#181818;stroke-width:1.0;"/><line style="stroke:#181818;stroke-width:1.0;stroke-dasharray:2.0,2.0;" x1="194" x2="1638.5" y1="521.9766" y2="521.9766"/><path d="M93.5,550.9766 L171.5,550.9766 L171.5,558.1094 L161.5,568.1094 L93.5,568.1094 L93.5,550.9766 " fill="#EEEEEE" style="stroke:#000000;stroke-width:1.5;"/><rect fill="none" height="310.1953" style="stroke:#000000;stroke-width:1.5;" width="1612.5" x="93.5" y="550.9766"/><text fill="#000000" font-family="sans-serif" font-size="13" font-weight="bold" lengthAdjust="spacing" textLength="33" x="108.5" y="564.0435">loop</text><text fill="#000000" font-family="sans-serif" font-size="11" font-weight="bold" lengthAdjust="spacing" textLength="113" x="186.5" y="563.187">[p in procedures]</text><polygon fill="#181818" points="1527.5,585.2422,1537.5,589.2422,1527.5,593.2422,1531.5,589.2422" style="stroke:#181818;stroke-width:1.0;"/><line style="stroke:#181818;stroke-width:1.0;" x1="189" x2="1533.5" y1="589.2422" y2="589.2422"/><text fill="#000000" font-family="sans-serif" font-size="13" lengthAdjust="spacing" textLength="204" x="196" y="584.1763">p.Accept(abstraction_extractor)</text><polygon fill="#181818" points="200,599.2422,190,603.2422,200,607.2422,196,603.2422" style="stroke:#181818;stroke-width:1.0;"/><line style="stroke:#181818;stroke-width:1.0;stroke-dasharray:2.0,2.0;" x1="194" x2="1538.5" y1="603.2422" y2="603.2422"/><polygon fill="#181818" points="1527.5,628.375,1537.5,632.375,1527.5,636.375,1531.5,632.375" style="stroke:#181818;stroke-width:1.0;"/><line style="stroke:#181818;stroke-width:1.0;" x1="189" x2="1533.5" y1="632.375" y2="632.375"/><text fill="#000000" font-family="sans-serif" font-size="13" lengthAdjust="spacing" textLength="135" x="196" y="627.3091">p.GetStatementList()</text><polygon fill="#181818" points="200,657.5078,190,661.5078,200,665.5078,196,661.5078" style="stroke:#181818;stroke-width:1.0;"/><line style="stroke:#181818;stroke-width:1.0;stroke-dasharray:2.0,2.0;" x1="194" x2="1538.5" y1="661.5078" y2="661.5078"/><text fill="#000000" font-family="sans-serif" font-size="13" lengthAdjust="spacing" textLength="74" x="206" y="656.4419">statements</text><path d="M103.5,676.5078 L181.5,676.5078 L181.5,683.6406 L171.5,693.6406 L103.5,693.6406 L103.5,676.5078 " fill="#EEEEEE" style="stroke:#000000;stroke-width:1.5;"/><rect fill="none" height="177.6641" style="stroke:#000000;stroke-width:1.5;" width="1592.5" x="103.5" y="676.5078"/><text fill="#000000" font-family="sans-serif" font-size="13" font-weight="bold" lengthAdjust="spacing" textLength="33" x="118.5" y="689.5747">loop</text><text fill="#000000" font-family="sans-serif" font-size="11" font-weight="bold" lengthAdjust="spacing" textLength="116" x="196.5" y="688.7183">[s in statements]</text><path d="M113.5,700.6406 L185.5,700.6406 L185.5,707.7734 L175.5,717.7734 L113.5,717.7734 L113.5,700.6406 " fill="#EEEEEE" style="stroke:#000000;stroke-width:1.5;"/><rect fill="none" height="103.3984" style="stroke:#000000;stroke-width:1.5;" width="1297.5" x="113.5" y="700.6406"/><text fill="#000000" font-family="sans-serif" font-size="13" font-weight="bold" lengthAdjust="spacing" textLength="27" x="128.5" y="713.7075">opt</text><text fill="#000000" font-family="sans-serif" font-size="11" font-weight="bold" lengthAdjust="spacing" textLength="146" x="200.5" y="712.8511">[prev_stmt != nullptr]</text><polygon fill="#181818" points="963,734.9063,973,738.9063,963,742.9063,967,738.9063" style="stroke:#181818;stroke-width:1.0;"/><line style="stroke:#181818;stroke-width:1.0;" x1="189" x2="969" y1="738.9063" y2="738.9063"/><text fill="#000000" font-family="sans-serif" font-size="13" lengthAdjust="spacing" textLength="184" x="196" y="733.8403">ExtractFollows(prev_stmt, s)</text><polygon fill="#181818" points="1303,764.0391,1313,768.0391,1303,772.0391,1307,768.0391" style="stroke:#181818;stroke-width:1.0;"/><line style="stroke:#181818;stroke-width:1.0;" x1="975" x2="1309" y1="768.0391" y2="768.0391"/><text fill="#000000" font-family="sans-serif" font-size="13" lengthAdjust="spacing" textLength="316" x="982" y="762.9731">AddFollowsRelation(prev_stmt_no, curr_stmt_no)</text><polygon fill="#181818" points="986,778.0391,976,782.0391,986,786.0391,982,782.0391" style="stroke:#181818;stroke-width:1.0;"/><line style="stroke:#181818;stroke-width:1.0;stroke-dasharray:2.0,2.0;" x1="980" x2="1314" y1="782.0391" y2="782.0391"/><polygon fill="#181818" points="200,792.0391,190,796.0391,200,800.0391,196,796.0391" style="stroke:#181818;stroke-width:1.0;"/><line style="stroke:#181818;stroke-width:1.0;stroke-dasharray:2.0,2.0;" x1="194" x2="974" y1="796.0391" y2="796.0391"/><polygon fill="#181818" points="1627.5,828.1719,1637.5,832.1719,1627.5,836.1719,1631.5,832.1719" style="stroke:#181818;stroke-width:1.0;"/><line style="stroke:#181818;stroke-width:1.0;" x1="189" x2="1633.5" y1="832.1719" y2="832.1719"/><text fill="#000000" font-family="sans-serif" font-size="13" lengthAdjust="spacing" textLength="203" x="196" y="827.106">s.Accept(abstraction_extractor)</text><polygon fill="#181818" points="200,842.1719,190,846.1719,200,850.1719,196,846.1719" style="stroke:#181818;stroke-width:1.0;"/><line style="stroke:#181818;stroke-width:1.0;stroke-dasharray:2.0,2.0;" x1="194" x2="1638.5" y1="846.1719" y2="846.1719"/><polygon fill="#181818" points="21,870.1719,11,874.1719,21,878.1719,17,874.1719" style="stroke:#181818;stroke-width:1.0;"/><line style="stroke:#181818;stroke-width:1.0;stroke-dasharray:2.0,2.0;" x1="15" x2="188" y1="874.1719" y2="874.1719"/><!--SRC=[pLInJiCm5Dpz5OzEYTHMecC4I9MWB0mL38oL4pl5Qc9RjalBtsCdJjgcXZJ0m139ER-xyxsy-8qH2haG9XLxL6B6SuLB2fh0mzued1aWLBCrXro94gGIQxkFqEGExYlSLmcL-5KDHxuoHfcYs50OKMwO-LZHGtq5jFmHwWY2zUXd9T118hb93wvobrydoqtwgfYX2vnXGaUeNxNo3d4JE0LgjzOEfxgIO88VgSyFQ4_S0Vm4Gl1P-jbv-W4cJHzc5_OXa6bP3qBIpCxqaHgBPPHi5NrYsaJn6UrcCZdXrSKQeK882H8OFqO1mhRrlXMOphECIXDrFtiSe7hhcdk1j4tpOcopIolkq_I89g0RWZjx5KcxI2TmqBbriXhVXGgVe6NR2ie9SiylEneSfV_TLY6DZKhVLzgK1gvkWM-BGXfLRGOFDkolzEk5A0gnqr5hDGOTUuy_-WFdX7YNPrfWHpkuhRWOGxPLgddxaRThSFWI2JUhgXzo1peHDuO3vltBaRjyw1tUgVq4]--></g></svg>