<?xml version="1.0" encoding="us-ascii" standalone="no"?><svg xmlns="http://www.w3.org/2000/svg" xmlns:xlink="http://www.w3.org/1999/xlink" contentStyleType="text/css" height="750px" preserveAspectRatio="none" style="width:3994px;height:750px;background:#FFFFFF;" version="1.1" viewBox="0 0 3994 750" width="3994px" zoomAndPan="magnify"><defs/><g><!--class ParserVisitor--><g id="elem_ParserVisitor"><rect codeLine="1" fill="#F1F1F1" height="227.2656" id="ParserVisitor" rx="2.5" ry="2.5" style="stroke:#181818;stroke-width:0.5;" width="596" x="1168" y="7"/><ellipse cx="1416.75" cy="23" fill="#B4A7E5" rx="11" ry="11" style="stroke:#181818;stroke-width:1.0;"/><path d="M1417.7031,19.7813 L1419.4219,19.7813 C1419.8125,19.7813 1420,19.75 1420.125,19.6719 C1420.3906,19.5156 1420.5313,19.2344 1420.5313,18.9375 C1420.5313,18.6719 1420.4219,18.4063 1420.1875,18.2344 C1420.0156,18.125 1419.875,18.0938 1419.4219,18.0938 L1414.2813,18.0938 C1413.8438,18.0938 1413.7188,18.1094 1413.5625,18.2031 C1413.3125,18.3594 1413.1563,18.6563 1413.1563,18.9375 C1413.1563,19.2188 1413.2969,19.4688 1413.5156,19.6406 C1413.6719,19.75 1413.8594,19.7813 1414.2813,19.7813 L1416,19.7813 L1416,26.2969 L1414.2813,26.2969 C1413.8438,26.2969 1413.7188,26.3125 1413.5625,26.4219 C1413.3125,26.5781 1413.1563,26.8594 1413.1563,27.1563 C1413.1563,27.4063 1413.2969,27.6719 1413.5156,27.8281 C1413.6719,27.9531 1413.875,28 1414.2813,28 L1419.4219,28 C1420.1719,28 1420.5313,27.7188 1420.5313,27.1563 C1420.5313,26.875 1420.4219,26.625 1420.1875,26.4531 C1420.0156,26.3281 1419.875,26.2969 1419.4219,26.2969 L1417.7031,26.2969 L1417.7031,19.7813 Z " fill="#000000"/><text fill="#000000" font-family="sans-serif" font-size="14" font-style="italic" lengthAdjust="spacing" textLength="90" x="1437.25" y="27.8467">ParserVisitor</text><line style="stroke:#181818;stroke-width:0.5;" x1="1169" x2="1763" y1="39" y2="39"/><line style="stroke:#181818;stroke-width:0.5;" x1="1169" x2="1763" y1="47" y2="47"/><ellipse cx="1179" cy="60.6484" fill="#84BE84" rx="3" ry="3" style="stroke:#038048;stroke-width:1.0;"/><text fill="#000000" font-family="sans-serif" font-size="14" lengthAdjust="spacing" textLength="367" x="1188" y="63.9951">VisitProcedure(procedure:shared_ptr&lt;Procedure&gt;)</text><ellipse cx="1179" cy="76.9453" fill="#84BE84" rx="3" ry="3" style="stroke:#038048;stroke-width:1.0;"/><text fill="#000000" font-family="sans-serif" font-size="14" lengthAdjust="spacing" textLength="322" x="1188" y="80.292">VisitVariable(variable:shared_ptr&lt;Variable&gt;)</text><ellipse cx="1179" cy="93.2422" fill="#84BE84" rx="3" ry="3" style="stroke:#038048;stroke-width:1.0;"/><text fill="#000000" font-family="sans-serif" font-size="14" lengthAdjust="spacing" textLength="343" x="1188" y="96.5889">VisitConstant(constant:shared_ptr&lt;Constant&gt;)</text><ellipse cx="1179" cy="109.5391" fill="#84BE84" rx="3" ry="3" style="stroke:#038048;stroke-width:1.0;"/><text fill="#000000" font-family="sans-serif" font-size="14" lengthAdjust="spacing" textLength="523" x="1188" y="112.8857">VisitArithmeticalOperation(program:shared_ptr&lt;ArithmeticOperation&gt;)</text><ellipse cx="1179" cy="125.8359" fill="#84BE84" rx="3" ry="3" style="stroke:#038048;stroke-width:1.0;"/><text fill="#000000" font-family="sans-serif" font-size="14" lengthAdjust="spacing" textLength="534" x="1188" y="129.1826">VisitRelationalOperation(rel_operation:shared_ptr&lt;RelationalOperation&gt;)</text><ellipse cx="1179" cy="142.1328" fill="#84BE84" rx="3" ry="3" style="stroke:#038048;stroke-width:1.0;"/><text fill="#000000" font-family="sans-serif" font-size="14" lengthAdjust="spacing" textLength="570" x="1188" y="145.4795">VisitConditionalOperation(cond_operation:shared_ptr&lt;ConditionalOperation&gt;)</text><ellipse cx="1179" cy="158.4297" fill="#84BE84" rx="3" ry="3" style="stroke:#038048;stroke-width:1.0;"/><text fill="#000000" font-family="sans-serif" font-size="14" lengthAdjust="spacing" textLength="525" x="1188" y="161.7764">VisitAssignStatement(assign_statement:shared_ptr&lt;AssignStatement&gt;)</text><ellipse cx="1179" cy="174.7266" fill="#84BE84" rx="3" ry="3" style="stroke:#038048;stroke-width:1.0;"/><text fill="#000000" font-family="sans-serif" font-size="14" lengthAdjust="spacing" textLength="493" x="1188" y="178.0732">VisitReadStatement(read_statement:shared_ptr&lt;ReadStatement&gt;)</text><ellipse cx="1179" cy="191.0234" fill="#84BE84" rx="3" ry="3" style="stroke:#038048;stroke-width:1.0;"/><text fill="#000000" font-family="sans-serif" font-size="14" lengthAdjust="spacing" textLength="495" x="1188" y="194.3701">VisitPrintStatement(print_statement:shared_ptr&lt;PrintStatement&gt;)</text><ellipse cx="1179" cy="207.3203" fill="#84BE84" rx="3" ry="3" style="stroke:#038048;stroke-width:1.0;"/><text fill="#000000" font-family="sans-serif" font-size="14" lengthAdjust="spacing" textLength="419" x="1188" y="210.667">VisitIfStatement(if_statement:shared_ptr&lt;IfStatement&gt;)</text><ellipse cx="1179" cy="223.6172" fill="#84BE84" rx="3" ry="3" style="stroke:#038048;stroke-width:1.0;"/><text fill="#000000" font-family="sans-serif" font-size="14" lengthAdjust="spacing" textLength="506" x="1188" y="226.9639">VisitWhileStatement(while_statement:shared_ptr&lt;WhileStatement&gt;)</text></g><!--class EntityExtractor--><g id="elem_EntityExtractor"><rect codeLine="15" fill="#F1F1F1" height="292.4531" id="EntityExtractor" rx="2.5" ry="2.5" style="stroke:#181818;stroke-width:0.5;" width="596" x="504" y="310.5"/><ellipse cx="741.75" cy="326.5" fill="#ADD1B2" rx="11" ry="11" style="stroke:#181818;stroke-width:1.0;"/><path d="M744.0938,322.1719 C743.1563,321.7344 742.5625,321.5938 741.6875,321.5938 C739.0625,321.5938 737.0625,323.6719 737.0625,326.3906 L737.0625,327.5156 C737.0625,330.0938 739.1719,331.9844 742.0625,331.9844 C743.2813,331.9844 744.4375,331.6875 745.1875,331.1406 C745.7656,330.7344 746.0938,330.2813 746.0938,329.8906 C746.0938,329.4375 745.7031,329.0469 745.2344,329.0469 C745.0156,329.0469 744.8125,329.125 744.625,329.3125 C744.1719,329.7969 744.1719,329.7969 743.9844,329.8906 C743.5625,330.1563 742.875,330.2813 742.1094,330.2813 C740.0625,330.2813 738.7656,329.1875 738.7656,327.4844 L738.7656,326.3906 C738.7656,324.6094 740.0156,323.2969 741.75,323.2969 C742.3281,323.2969 742.9375,323.4531 743.4063,323.7031 C743.8906,323.9844 744.0625,324.2031 744.1563,324.6094 C744.2188,325.0156 744.25,325.1406 744.3906,325.2656 C744.5313,325.4063 744.7656,325.5156 744.9844,325.5156 C745.25,325.5156 745.5156,325.375 745.6875,325.1563 C745.7969,325 745.8281,324.8125 745.8281,324.3906 L745.8281,322.9688 C745.8281,322.5313 745.8125,322.4063 745.7188,322.25 C745.5625,321.9844 745.2813,321.8438 744.9844,321.8438 C744.6875,321.8438 744.4844,321.9375 744.2656,322.25 L744.0938,322.1719 Z " fill="#000000"/><text fill="#000000" font-family="sans-serif" font-size="14" lengthAdjust="spacing" textLength="112" x="762.25" y="331.3467">EntityExtractor</text><line style="stroke:#181818;stroke-width:0.5;" x1="505" x2="1099" y1="342.5" y2="342.5"/><rect fill="none" height="6" style="stroke:#C82930;stroke-width:1.0;" width="6" x="512" y="353.1484"/><text fill="#000000" font-family="sans-serif" font-size="14" lengthAdjust="spacing" textLength="170" x="524" y="359.4951">pkb_:shared_ptr&lt;PKB&gt;</text><rect fill="none" height="6" style="stroke:#C82930;stroke-width:1.0;" width="6" x="512" y="369.4453"/><text fill="#000000" font-family="sans-serif" font-size="14" lengthAdjust="spacing" textLength="351" x="524" y="375.792">pkb_write_facade:shared_ptr&lt;PkbWriteFacade&gt;</text><line style="stroke:#181818;stroke-width:0.5;" x1="505" x2="1099" y1="383.0938" y2="383.0938"/><rect fill="#F24D5C" height="6" style="stroke:#C82930;stroke-width:1.0;" width="6" x="512" y="393.7422"/><text fill="#000000" font-family="sans-serif" font-size="14" lengthAdjust="spacing" textLength="385" x="524" y="400.0889">ProcessStatements(statements:StmtListContainer&amp;)</text><ellipse cx="515" cy="413.0391" fill="#84BE84" rx="3" ry="3" style="stroke:#038048;stroke-width:1.0;"/><text fill="#000000" font-family="sans-serif" font-size="14" lengthAdjust="spacing" textLength="285" x="524" y="416.3857">EntityExtractor(pkb:shared_ptr&lt;PKB&gt;)</text><ellipse cx="515" cy="429.3359" fill="#84BE84" rx="3" ry="3" style="stroke:#038048;stroke-width:1.0;"/><text fill="#000000" font-family="sans-serif" font-size="14" lengthAdjust="spacing" textLength="367" x="524" y="432.6826">VisitProcedure(procedure:shared_ptr&lt;Procedure&gt;)</text><ellipse cx="515" cy="445.6328" fill="#84BE84" rx="3" ry="3" style="stroke:#038048;stroke-width:1.0;"/><text fill="#000000" font-family="sans-serif" font-size="14" lengthAdjust="spacing" textLength="322" x="524" y="448.9795">VisitVariable(variable:shared_ptr&lt;Variable&gt;)</text><ellipse cx="515" cy="461.9297" fill="#84BE84" rx="3" ry="3" style="stroke:#038048;stroke-width:1.0;"/><text fill="#000000" font-family="sans-serif" font-size="14" lengthAdjust="spacing" textLength="343" x="524" y="465.2764">VisitConstant(constant:shared_ptr&lt;Constant&gt;)</text><ellipse cx="515" cy="478.2266" fill="#84BE84" rx="3" ry="3" style="stroke:#038048;stroke-width:1.0;"/><text fill="#000000" font-family="sans-serif" font-size="14" lengthAdjust="spacing" textLength="523" x="524" y="481.5732">VisitArithmeticalOperation(program:shared_ptr&lt;ArithmeticOperation&gt;)</text><ellipse cx="515" cy="494.5234" fill="#84BE84" rx="3" ry="3" style="stroke:#038048;stroke-width:1.0;"/><text fill="#000000" font-family="sans-serif" font-size="14" lengthAdjust="spacing" textLength="534" x="524" y="497.8701">VisitRelationalOperation(rel_operation:shared_ptr&lt;RelationalOperation&gt;)</text><ellipse cx="515" cy="510.8203" fill="#84BE84" rx="3" ry="3" style="stroke:#038048;stroke-width:1.0;"/><text fill="#000000" font-family="sans-serif" font-size="14" lengthAdjust="spacing" textLength="570" x="524" y="514.167">VisitConditionalOperation(cond_operation:shared_ptr&lt;ConditionalOperation&gt;)</text><ellipse cx="515" cy="527.1172" fill="#84BE84" rx="3" ry="3" style="stroke:#038048;stroke-width:1.0;"/><text fill="#000000" font-family="sans-serif" font-size="14" lengthAdjust="spacing" textLength="525" x="524" y="530.4639">VisitAssignStatement(assign_statement:shared_ptr&lt;AssignStatement&gt;)</text><ellipse cx="515" cy="543.4141" fill="#84BE84" rx="3" ry="3" style="stroke:#038048;stroke-width:1.0;"/><text fill="#000000" font-family="sans-serif" font-size="14" lengthAdjust="spacing" textLength="493" x="524" y="546.7607">VisitReadStatement(read_statement:shared_ptr&lt;ReadStatement&gt;)</text><ellipse cx="515" cy="559.7109" fill="#84BE84" rx="3" ry="3" style="stroke:#038048;stroke-width:1.0;"/><text fill="#000000" font-family="sans-serif" font-size="14" lengthAdjust="spacing" textLength="495" x="524" y="563.0576">VisitPrintStatement(print_statement:shared_ptr&lt;PrintStatement&gt;)</text><ellipse cx="515" cy="576.0078" fill="#84BE84" rx="3" ry="3" style="stroke:#038048;stroke-width:1.0;"/><text fill="#000000" font-family="sans-serif" font-size="14" lengthAdjust="spacing" textLength="419" x="524" y="579.3545">VisitIfStatement(if_statement:shared_ptr&lt;IfStatement&gt;)</text><ellipse cx="515" cy="592.3047" fill="#84BE84" rx="3" ry="3" style="stroke:#038048;stroke-width:1.0;"/><text fill="#000000" font-family="sans-serif" font-size="14" lengthAdjust="spacing" textLength="506" x="524" y="595.6514">VisitWhileStatement(while_statement:shared_ptr&lt;WhileStatement&gt;)</text></g><!--class AbstractionExtractor--><g id="elem_AbstractionExtractor"><rect codeLine="33" fill="#F1F1F1" height="325.0469" id="AbstractionExtractor" rx="2.5" ry="2.5" style="stroke:#181818;stroke-width:0.5;" width="662" x="1135" y="294"/><ellipse cx="1385.25" cy="310" fill="#ADD1B2" rx="11" ry="11" style="stroke:#181818;stroke-width:1.0;"/><path d="M1387.5938,305.6719 C1386.6563,305.2344 1386.0625,305.0938 1385.1875,305.0938 C1382.5625,305.0938 1380.5625,307.1719 1380.5625,309.8906 L1380.5625,311.0156 C1380.5625,313.5938 1382.6719,315.4844 1385.5625,315.4844 C1386.7813,315.4844 1387.9375,315.1875 1388.6875,314.6406 C1389.2656,314.2344 1389.5938,313.7813 1389.5938,313.3906 C1389.5938,312.9375 1389.2031,312.5469 1388.7344,312.5469 C1388.5156,312.5469 1388.3125,312.625 1388.125,312.8125 C1387.6719,313.2969 1387.6719,313.2969 1387.4844,313.3906 C1387.0625,313.6563 1386.375,313.7813 1385.6094,313.7813 C1383.5625,313.7813 1382.2656,312.6875 1382.2656,310.9844 L1382.2656,309.8906 C1382.2656,308.1094 1383.5156,306.7969 1385.25,306.7969 C1385.8281,306.7969 1386.4375,306.9531 1386.9063,307.2031 C1387.3906,307.4844 1387.5625,307.7031 1387.6563,308.1094 C1387.7188,308.5156 1387.75,308.6406 1387.8906,308.7656 C1388.0313,308.9063 1388.2656,309.0156 1388.4844,309.0156 C1388.75,309.0156 1389.0156,308.875 1389.1875,308.6563 C1389.2969,308.5 1389.3281,308.3125 1389.3281,307.8906 L1389.3281,306.4688 C1389.3281,306.0313 1389.3125,305.9063 1389.2188,305.75 C1389.0625,305.4844 1388.7813,305.3438 1388.4844,305.3438 C1388.1875,305.3438 1387.9844,305.4375 1387.7656,305.75 L1387.5938,305.6719 Z " fill="#000000"/><text fill="#000000" font-family="sans-serif" font-size="14" lengthAdjust="spacing" textLength="153" x="1405.75" y="314.8467">AbstractionExtractor</text><line style="stroke:#181818;stroke-width:0.5;" x1="1136" x2="1796" y1="326" y2="326"/><rect fill="none" height="6" style="stroke:#C82930;stroke-width:1.0;" width="6" x="1143" y="336.6484"/><text fill="#000000" font-family="sans-serif" font-size="14" lengthAdjust="spacing" textLength="170" x="1155" y="342.9951">pkb_:shared_ptr&lt;PKB&gt;</text><rect fill="none" height="6" style="stroke:#C82930;stroke-width:1.0;" width="6" x="1143" y="352.9453"/><text fill="#000000" font-family="sans-serif" font-size="14" lengthAdjust="spacing" textLength="351" x="1155" y="359.292">pkb_write_facade:shared_ptr&lt;PkbWriteFacade&gt;</text><line style="stroke:#181818;stroke-width:0.5;" x1="1136" x2="1796" y1="366.5938" y2="366.5938"/><rect fill="#F24D5C" height="6" style="stroke:#C82930;stroke-width:1.0;" width="6" x="1143" y="377.2422"/><text fill="#000000" font-family="sans-serif" font-size="14" lengthAdjust="spacing" textLength="603" x="1155" y="383.5889">ProcessStatements(statements:vector&lt;shared_ptr&lt;Statement&gt;&gt;&amp;, parent:string)</text><rect fill="#F24D5C" height="6" style="stroke:#C82930;stroke-width:1.0;" width="6" x="1143" y="393.5391"/><text fill="#000000" font-family="sans-serif" font-size="14" lengthAdjust="spacing" textLength="475" x="1155" y="399.8857">ExtractParent(parent:string, child_stmt:shared_ptr&lt;Statement&gt;)</text><ellipse cx="1146" cy="412.8359" fill="#84BE84" rx="3" ry="3" style="stroke:#038048;stroke-width:1.0;"/><text fill="#000000" font-family="sans-serif" font-size="14" lengthAdjust="spacing" textLength="326" x="1155" y="416.1826">AbstractionExtractor(pkb:shared_ptr&lt;PKB&gt;)</text><ellipse cx="1146" cy="429.1328" fill="#84BE84" rx="3" ry="3" style="stroke:#038048;stroke-width:1.0;"/><text fill="#000000" font-family="sans-serif" font-size="14" lengthAdjust="spacing" textLength="367" x="1155" y="432.4795">VisitProcedure(procedure:shared_ptr&lt;Procedure&gt;)</text><ellipse cx="1146" cy="445.4297" fill="#84BE84" rx="3" ry="3" style="stroke:#038048;stroke-width:1.0;"/><text fill="#000000" font-family="sans-serif" font-size="14" lengthAdjust="spacing" textLength="322" x="1155" y="448.7764">VisitVariable(variable:shared_ptr&lt;Variable&gt;)</text><ellipse cx="1146" cy="461.7266" fill="#84BE84" rx="3" ry="3" style="stroke:#038048;stroke-width:1.0;"/><text fill="#000000" font-family="sans-serif" font-size="14" lengthAdjust="spacing" textLength="343" x="1155" y="465.0732">VisitConstant(constant:shared_ptr&lt;Constant&gt;)</text><ellipse cx="1146" cy="478.0234" fill="#84BE84" rx="3" ry="3" style="stroke:#038048;stroke-width:1.0;"/><text fill="#000000" font-family="sans-serif" font-size="14" lengthAdjust="spacing" textLength="523" x="1155" y="481.3701">VisitArithmeticalOperation(program:shared_ptr&lt;ArithmeticOperation&gt;)</text><ellipse cx="1146" cy="494.3203" fill="#84BE84" rx="3" ry="3" style="stroke:#038048;stroke-width:1.0;"/><text fill="#000000" font-family="sans-serif" font-size="14" lengthAdjust="spacing" textLength="534" x="1155" y="497.667">VisitRelationalOperation(rel_operation:shared_ptr&lt;RelationalOperation&gt;)</text><ellipse cx="1146" cy="510.6172" fill="#84BE84" rx="3" ry="3" style="stroke:#038048;stroke-width:1.0;"/><text fill="#000000" font-family="sans-serif" font-size="14" lengthAdjust="spacing" textLength="570" x="1155" y="513.9639">VisitConditionalOperation(cond_operation:shared_ptr&lt;ConditionalOperation&gt;)</text><ellipse cx="1146" cy="526.9141" fill="#84BE84" rx="3" ry="3" style="stroke:#038048;stroke-width:1.0;"/><text fill="#000000" font-family="sans-serif" font-size="14" lengthAdjust="spacing" textLength="525" x="1155" y="530.2607">VisitAssignStatement(assign_statement:shared_ptr&lt;AssignStatement&gt;)</text><ellipse cx="1146" cy="543.2109" fill="#84BE84" rx="3" ry="3" style="stroke:#038048;stroke-width:1.0;"/><text fill="#000000" font-family="sans-serif" font-size="14" lengthAdjust="spacing" textLength="493" x="1155" y="546.5576">VisitReadStatement(read_statement:shared_ptr&lt;ReadStatement&gt;)</text><ellipse cx="1146" cy="559.5078" fill="#84BE84" rx="3" ry="3" style="stroke:#038048;stroke-width:1.0;"/><text fill="#000000" font-family="sans-serif" font-size="14" lengthAdjust="spacing" textLength="495" x="1155" y="562.8545">VisitPrintStatement(print_statement:shared_ptr&lt;PrintStatement&gt;)</text><ellipse cx="1146" cy="575.8047" fill="#84BE84" rx="3" ry="3" style="stroke:#038048;stroke-width:1.0;"/><text fill="#000000" font-family="sans-serif" font-size="14" lengthAdjust="spacing" textLength="419" x="1155" y="579.1514">VisitIfStatement(if_statement:shared_ptr&lt;IfStatement&gt;)</text><ellipse cx="1146" cy="592.1016" fill="#84BE84" rx="3" ry="3" style="stroke:#038048;stroke-width:1.0;"/><text fill="#000000" font-family="sans-serif" font-size="14" lengthAdjust="spacing" textLength="506" x="1155" y="595.4482">VisitWhileStatement(while_statement:shared_ptr&lt;WhileStatement&gt;)</text><ellipse cx="1146" cy="608.3984" fill="#84BE84" rx="3" ry="3" style="stroke:#038048;stroke-width:1.0;"/><text fill="#000000" font-family="sans-serif" font-size="14" lengthAdjust="spacing" textLength="636" x="1155" y="611.7451">ExtractFollows(prev_stmt:shared_ptr&lt;Statement&gt;, curr_stmt:shared_ptr&lt;Statement&gt;)</text></g><!--class Entity--><g id="elem_Entity"><rect codeLine="53" fill="#F1F1F1" height="64.2969" id="Entity" rx="2.5" ry="2.5" style="stroke:#181818;stroke-width:0.5;" width="330" x="1832" y="424.5"/><ellipse cx="1972.75" cy="440.5" fill="#B4A7E5" rx="11" ry="11" style="stroke:#181818;stroke-width:1.0;"/><path d="M1973.7031,437.2813 L1975.4219,437.2813 C1975.8125,437.2813 1976,437.25 1976.125,437.1719 C1976.3906,437.0156 1976.5313,436.7344 1976.5313,436.4375 C1976.5313,436.1719 1976.4219,435.9063 1976.1875,435.7344 C1976.0156,435.625 1975.875,435.5938 1975.4219,435.5938 L1970.2813,435.5938 C1969.8438,435.5938 1969.7188,435.6094 1969.5625,435.7031 C1969.3125,435.8594 1969.1563,436.1563 1969.1563,436.4375 C1969.1563,436.7188 1969.2969,436.9688 1969.5156,437.1406 C1969.6719,437.25 1969.8594,437.2813 1970.2813,437.2813 L1972,437.2813 L1972,443.7969 L1970.2813,443.7969 C1969.8438,443.7969 1969.7188,443.8125 1969.5625,443.9219 C1969.3125,444.0781 1969.1563,444.3594 1969.1563,444.6563 C1969.1563,444.9063 1969.2969,445.1719 1969.5156,445.3281 C1969.6719,445.4531 1969.875,445.5 1970.2813,445.5 L1975.4219,445.5 C1976.1719,445.5 1976.5313,445.2188 1976.5313,444.6563 C1976.5313,444.375 1976.4219,444.125 1976.1875,443.9531 C1976.0156,443.8281 1975.875,443.7969 1975.4219,443.7969 L1973.7031,443.7969 L1973.7031,437.2813 Z " fill="#000000"/><text fill="#000000" font-family="sans-serif" font-size="14" font-style="italic" lengthAdjust="spacing" textLength="40" x="1993.25" y="445.3467">Entity</text><line style="stroke:#181818;stroke-width:0.5;" x1="1833" x2="2161" y1="456.5" y2="456.5"/><line style="stroke:#181818;stroke-width:0.5;" x1="1833" x2="2161" y1="464.5" y2="464.5"/><ellipse cx="1843" cy="478.1484" fill="#84BE84" rx="3" ry="3" style="stroke:#038048;stroke-width:1.0;"/><text fill="#000000" font-family="sans-serif" font-size="14" lengthAdjust="spacing" textLength="304" x="1852" y="481.4951">Accept(visitor:shared_ptr&lt;ParserVisitor&gt;)</text></g><!--class Procedure--><g id="elem_Procedure"><rect codeLine="57" fill="#F1F1F1" height="64.2969" id="Procedure" rx="2.5" ry="2.5" style="stroke:#181818;stroke-width:0.5;" width="330" x="7" y="679"/><ellipse cx="131.25" cy="695" fill="#ADD1B2" rx="11" ry="11" style="stroke:#181818;stroke-width:1.0;"/><path d="M133.5938,690.6719 C132.6563,690.2344 132.0625,690.0938 131.1875,690.0938 C128.5625,690.0938 126.5625,692.1719 126.5625,694.8906 L126.5625,696.0156 C126.5625,698.5938 128.6719,700.4844 131.5625,700.4844 C132.7813,700.4844 133.9375,700.1875 134.6875,699.6406 C135.2656,699.2344 135.5938,698.7813 135.5938,698.3906 C135.5938,697.9375 135.2031,697.5469 134.7344,697.5469 C134.5156,697.5469 134.3125,697.625 134.125,697.8125 C133.6719,698.2969 133.6719,698.2969 133.4844,698.3906 C133.0625,698.6563 132.375,698.7813 131.6094,698.7813 C129.5625,698.7813 128.2656,697.6875 128.2656,695.9844 L128.2656,694.8906 C128.2656,693.1094 129.5156,691.7969 131.25,691.7969 C131.8281,691.7969 132.4375,691.9531 132.9063,692.2031 C133.3906,692.4844 133.5625,692.7031 133.6563,693.1094 C133.7188,693.5156 133.75,693.6406 133.8906,693.7656 C134.0313,693.9063 134.2656,694.0156 134.4844,694.0156 C134.75,694.0156 135.0156,693.875 135.1875,693.6563 C135.2969,693.5 135.3281,693.3125 135.3281,692.8906 L135.3281,691.4688 C135.3281,691.0313 135.3125,690.9063 135.2188,690.75 C135.0625,690.4844 134.7813,690.3438 134.4844,690.3438 C134.1875,690.3438 133.9844,690.4375 133.7656,690.75 L133.5938,690.6719 Z " fill="#000000"/><text fill="#000000" font-family="sans-serif" font-size="14" lengthAdjust="spacing" textLength="73" x="151.75" y="699.8467">Procedure</text><line style="stroke:#181818;stroke-width:0.5;" x1="8" x2="336" y1="711" y2="711"/><line style="stroke:#181818;stroke-width:0.5;" x1="8" x2="336" y1="719" y2="719"/><ellipse cx="18" cy="732.6484" fill="#84BE84" rx="3" ry="3" style="stroke:#038048;stroke-width:1.0;"/><text fill="#000000" font-family="sans-serif" font-size="14" lengthAdjust="spacing" textLength="304" x="27" y="735.9951">Accept(visitor:shared_ptr&lt;ParserVisitor&gt;)</text></g><!--class Variable--><g id="elem_Variable"><rect codeLine="61" fill="#F1F1F1" height="64.2969" id="Variable" rx="2.5" ry="2.5" style="stroke:#181818;stroke-width:0.5;" width="330" x="372" y="679"/><ellipse cx="503.25" cy="695" fill="#ADD1B2" rx="11" ry="11" style="stroke:#181818;stroke-width:1.0;"/><path d="M505.5938,690.6719 C504.6563,690.2344 504.0625,690.0938 503.1875,690.0938 C500.5625,690.0938 498.5625,692.1719 498.5625,694.8906 L498.5625,696.0156 C498.5625,698.5938 500.6719,700.4844 503.5625,700.4844 C504.7813,700.4844 505.9375,700.1875 506.6875,699.6406 C507.2656,699.2344 507.5938,698.7813 507.5938,698.3906 C507.5938,697.9375 507.2031,697.5469 506.7344,697.5469 C506.5156,697.5469 506.3125,697.625 506.125,697.8125 C505.6719,698.2969 505.6719,698.2969 505.4844,698.3906 C505.0625,698.6563 504.375,698.7813 503.6094,698.7813 C501.5625,698.7813 500.2656,697.6875 500.2656,695.9844 L500.2656,694.8906 C500.2656,693.1094 501.5156,691.7969 503.25,691.7969 C503.8281,691.7969 504.4375,691.9531 504.9063,692.2031 C505.3906,692.4844 505.5625,692.7031 505.6563,693.1094 C505.7188,693.5156 505.75,693.6406 505.8906,693.7656 C506.0313,693.9063 506.2656,694.0156 506.4844,694.0156 C506.75,694.0156 507.0156,693.875 507.1875,693.6563 C507.2969,693.5 507.3281,693.3125 507.3281,692.8906 L507.3281,691.4688 C507.3281,691.0313 507.3125,690.9063 507.2188,690.75 C507.0625,690.4844 506.7813,690.3438 506.4844,690.3438 C506.1875,690.3438 505.9844,690.4375 505.7656,690.75 L505.5938,690.6719 Z " fill="#000000"/><text fill="#000000" font-family="sans-serif" font-size="14" lengthAdjust="spacing" textLength="59" x="523.75" y="699.8467">Variable</text><line style="stroke:#181818;stroke-width:0.5;" x1="373" x2="701" y1="711" y2="711"/><line style="stroke:#181818;stroke-width:0.5;" x1="373" x2="701" y1="719" y2="719"/><ellipse cx="383" cy="732.6484" fill="#84BE84" rx="3" ry="3" style="stroke:#038048;stroke-width:1.0;"/><text fill="#000000" font-family="sans-serif" font-size="14" lengthAdjust="spacing" textLength="304" x="392" y="735.9951">Accept(visitor:shared_ptr&lt;ParserVisitor&gt;)</text></g><!--class Constant--><g id="elem_Constant"><rect codeLine="65" fill="#F1F1F1" height="64.2969" id="Constant" rx="2.5" ry="2.5" style="stroke:#181818;stroke-width:0.5;" width="330" x="737" y="679"/><ellipse cx="864.75" cy="695" fill="#ADD1B2" rx="11" ry="11" style="stroke:#181818;stroke-width:1.0;"/><path d="M867.0938,690.6719 C866.1563,690.2344 865.5625,690.0938 864.6875,690.0938 C862.0625,690.0938 860.0625,692.1719 860.0625,694.8906 L860.0625,696.0156 C860.0625,698.5938 862.1719,700.4844 865.0625,700.4844 C866.2813,700.4844 867.4375,700.1875 868.1875,699.6406 C868.7656,699.2344 869.0938,698.7813 869.0938,698.3906 C869.0938,697.9375 868.7031,697.5469 868.2344,697.5469 C868.0156,697.5469 867.8125,697.625 867.625,697.8125 C867.1719,698.2969 867.1719,698.2969 866.9844,698.3906 C866.5625,698.6563 865.875,698.7813 865.1094,698.7813 C863.0625,698.7813 861.7656,697.6875 861.7656,695.9844 L861.7656,694.8906 C861.7656,693.1094 863.0156,691.7969 864.75,691.7969 C865.3281,691.7969 865.9375,691.9531 866.4063,692.2031 C866.8906,692.4844 867.0625,692.7031 867.1563,693.1094 C867.2188,693.5156 867.25,693.6406 867.3906,693.7656 C867.5313,693.9063 867.7656,694.0156 867.9844,694.0156 C868.25,694.0156 868.5156,693.875 868.6875,693.6563 C868.7969,693.5 868.8281,693.3125 868.8281,692.8906 L868.8281,691.4688 C868.8281,691.0313 868.8125,690.9063 868.7188,690.75 C868.5625,690.4844 868.2813,690.3438 867.9844,690.3438 C867.6875,690.3438 867.4844,690.4375 867.2656,690.75 L867.0938,690.6719 Z " fill="#000000"/><text fill="#000000" font-family="sans-serif" font-size="14" lengthAdjust="spacing" textLength="66" x="885.25" y="699.8467">Constant</text><line style="stroke:#181818;stroke-width:0.5;" x1="738" x2="1066" y1="711" y2="711"/><line style="stroke:#181818;stroke-width:0.5;" x1="738" x2="1066" y1="719" y2="719"/><ellipse cx="748" cy="732.6484" fill="#84BE84" rx="3" ry="3" style="stroke:#038048;stroke-width:1.0;"/><text fill="#000000" font-family="sans-serif" font-size="14" lengthAdjust="spacing" textLength="304" x="757" y="735.9951">Accept(visitor:shared_ptr&lt;ParserVisitor&gt;)</text></g><!--class ArithmeticOperation--><g id="elem_ArithmeticOperation"><rect codeLine="69" fill="#F1F1F1" height="64.2969" id="ArithmeticOperation" rx="2.5" ry="2.5" style="stroke:#181818;stroke-width:0.5;" width="330" x="1102" y="679"/><ellipse cx="1187.25" cy="695" fill="#ADD1B2" rx="11" ry="11" style="stroke:#181818;stroke-width:1.0;"/><path d="M1189.5938,690.6719 C1188.6563,690.2344 1188.0625,690.0938 1187.1875,690.0938 C1184.5625,690.0938 1182.5625,692.1719 1182.5625,694.8906 L1182.5625,696.0156 C1182.5625,698.5938 1184.6719,700.4844 1187.5625,700.4844 C1188.7813,700.4844 1189.9375,700.1875 1190.6875,699.6406 C1191.2656,699.2344 1191.5938,698.7813 1191.5938,698.3906 C1191.5938,697.9375 1191.2031,697.5469 1190.7344,697.5469 C1190.5156,697.5469 1190.3125,697.625 1190.125,697.8125 C1189.6719,698.2969 1189.6719,698.2969 1189.4844,698.3906 C1189.0625,698.6563 1188.375,698.7813 1187.6094,698.7813 C1185.5625,698.7813 1184.2656,697.6875 1184.2656,695.9844 L1184.2656,694.8906 C1184.2656,693.1094 1185.5156,691.7969 1187.25,691.7969 C1187.8281,691.7969 1188.4375,691.9531 1188.9063,692.2031 C1189.3906,692.4844 1189.5625,692.7031 1189.6563,693.1094 C1189.7188,693.5156 1189.75,693.6406 1189.8906,693.7656 C1190.0313,693.9063 1190.2656,694.0156 1190.4844,694.0156 C1190.75,694.0156 1191.0156,693.875 1191.1875,693.6563 C1191.2969,693.5 1191.3281,693.3125 1191.3281,692.8906 L1191.3281,691.4688 C1191.3281,691.0313 1191.3125,690.9063 1191.2188,690.75 C1191.0625,690.4844 1190.7813,690.3438 1190.4844,690.3438 C1190.1875,690.3438 1189.9844,690.4375 1189.7656,690.75 L1189.5938,690.6719 Z " fill="#000000"/><text fill="#000000" font-family="sans-serif" font-size="14" lengthAdjust="spacing" textLength="151" x="1207.75" y="699.8467">ArithmeticOperation</text><line style="stroke:#181818;stroke-width:0.5;" x1="1103" x2="1431" y1="711" y2="711"/><line style="stroke:#181818;stroke-width:0.5;" x1="1103" x2="1431" y1="719" y2="719"/><ellipse cx="1113" cy="732.6484" fill="#84BE84" rx="3" ry="3" style="stroke:#038048;stroke-width:1.0;"/><text fill="#000000" font-family="sans-serif" font-size="14" lengthAdjust="spacing" textLength="304" x="1122" y="735.9951">Accept(visitor:shared_ptr&lt;ParserVisitor&gt;)</text></g><!--class RelationalOperation--><g id="elem_RelationalOperation"><rect codeLine="73" fill="#F1F1F1" height="64.2969" id="RelationalOperation" rx="2.5" ry="2.5" style="stroke:#181818;stroke-width:0.5;" width="330" x="1467" y="679"/><ellipse cx="1555.25" cy="695" fill="#ADD1B2" rx="11" ry="11" style="stroke:#181818;stroke-width:1.0;"/><path d="M1557.5938,690.6719 C1556.6563,690.2344 1556.0625,690.0938 1555.1875,690.0938 C1552.5625,690.0938 1550.5625,692.1719 1550.5625,694.8906 L1550.5625,696.0156 C1550.5625,698.5938 1552.6719,700.4844 1555.5625,700.4844 C1556.7813,700.4844 1557.9375,700.1875 1558.6875,699.6406 C1559.2656,699.2344 1559.5938,698.7813 1559.5938,698.3906 C1559.5938,697.9375 1559.2031,697.5469 1558.7344,697.5469 C1558.5156,697.5469 1558.3125,697.625 1558.125,697.8125 C1557.6719,698.2969 1557.6719,698.2969 1557.4844,698.3906 C1557.0625,698.6563 1556.375,698.7813 1555.6094,698.7813 C1553.5625,698.7813 1552.2656,697.6875 1552.2656,695.9844 L1552.2656,694.8906 C1552.2656,693.1094 1553.5156,691.7969 1555.25,691.7969 C1555.8281,691.7969 1556.4375,691.9531 1556.9063,692.2031 C1557.3906,692.4844 1557.5625,692.7031 1557.6563,693.1094 C1557.7188,693.5156 1557.75,693.6406 1557.8906,693.7656 C1558.0313,693.9063 1558.2656,694.0156 1558.4844,694.0156 C1558.75,694.0156 1559.0156,693.875 1559.1875,693.6563 C1559.2969,693.5 1559.3281,693.3125 1559.3281,692.8906 L1559.3281,691.4688 C1559.3281,691.0313 1559.3125,690.9063 1559.2188,690.75 C1559.0625,690.4844 1558.7813,690.3438 1558.4844,690.3438 C1558.1875,690.3438 1557.9844,690.4375 1557.7656,690.75 L1557.5938,690.6719 Z " fill="#000000"/><text fill="#000000" font-family="sans-serif" font-size="14" lengthAdjust="spacing" textLength="145" x="1575.75" y="699.8467">RelationalOperation</text><line style="stroke:#181818;stroke-width:0.5;" x1="1468" x2="1796" y1="711" y2="711"/><line style="stroke:#181818;stroke-width:0.5;" x1="1468" x2="1796" y1="719" y2="719"/><ellipse cx="1478" cy="732.6484" fill="#84BE84" rx="3" ry="3" style="stroke:#038048;stroke-width:1.0;"/><text fill="#000000" font-family="sans-serif" font-size="14" lengthAdjust="spacing" textLength="304" x="1487" y="735.9951">Accept(visitor:shared_ptr&lt;ParserVisitor&gt;)</text></g><!--class ConditionalOperation--><g id="elem_ConditionalOperation"><rect codeLine="77" fill="#F1F1F1" height="64.2969" id="ConditionalOperation" rx="2.5" ry="2.5" style="stroke:#181818;stroke-width:0.5;" width="330" x="1832" y="679"/><ellipse cx="1915.25" cy="695" fill="#ADD1B2" rx="11" ry="11" style="stroke:#181818;stroke-width:1.0;"/><path d="M1917.5938,690.6719 C1916.6563,690.2344 1916.0625,690.0938 1915.1875,690.0938 C1912.5625,690.0938 1910.5625,692.1719 1910.5625,694.8906 L1910.5625,696.0156 C1910.5625,698.5938 1912.6719,700.4844 1915.5625,700.4844 C1916.7813,700.4844 1917.9375,700.1875 1918.6875,699.6406 C1919.2656,699.2344 1919.5938,698.7813 1919.5938,698.3906 C1919.5938,697.9375 1919.2031,697.5469 1918.7344,697.5469 C1918.5156,697.5469 1918.3125,697.625 1918.125,697.8125 C1917.6719,698.2969 1917.6719,698.2969 1917.4844,698.3906 C1917.0625,698.6563 1916.375,698.7813 1915.6094,698.7813 C1913.5625,698.7813 1912.2656,697.6875 1912.2656,695.9844 L1912.2656,694.8906 C1912.2656,693.1094 1913.5156,691.7969 1915.25,691.7969 C1915.8281,691.7969 1916.4375,691.9531 1916.9063,692.2031 C1917.3906,692.4844 1917.5625,692.7031 1917.6563,693.1094 C1917.7188,693.5156 1917.75,693.6406 1917.8906,693.7656 C1918.0313,693.9063 1918.2656,694.0156 1918.4844,694.0156 C1918.75,694.0156 1919.0156,693.875 1919.1875,693.6563 C1919.2969,693.5 1919.3281,693.3125 1919.3281,692.8906 L1919.3281,691.4688 C1919.3281,691.0313 1919.3125,690.9063 1919.2188,690.75 C1919.0625,690.4844 1918.7813,690.3438 1918.4844,690.3438 C1918.1875,690.3438 1917.9844,690.4375 1917.7656,690.75 L1917.5938,690.6719 Z " fill="#000000"/><text fill="#000000" font-family="sans-serif" font-size="14" lengthAdjust="spacing" textLength="155" x="1935.75" y="699.8467">ConditionalOperation</text><line style="stroke:#181818;stroke-width:0.5;" x1="1833" x2="2161" y1="711" y2="711"/><line style="stroke:#181818;stroke-width:0.5;" x1="1833" x2="2161" y1="719" y2="719"/><ellipse cx="1843" cy="732.6484" fill="#84BE84" rx="3" ry="3" style="stroke:#038048;stroke-width:1.0;"/><text fill="#000000" font-family="sans-serif" font-size="14" lengthAdjust="spacing" textLength="304" x="1852" y="735.9951">Accept(visitor:shared_ptr&lt;ParserVisitor&gt;)</text></g><!--class AssignStatement--><g id="elem_AssignStatement"><rect codeLine="81" fill="#F1F1F1" height="64.2969" id="AssignStatement" rx="2.5" ry="2.5" style="stroke:#181818;stroke-width:0.5;" width="330" x="2197" y="679"/><ellipse cx="2295.25" cy="695" fill="#ADD1B2" rx="11" ry="11" style="stroke:#181818;stroke-width:1.0;"/><path d="M2297.5938,690.6719 C2296.6563,690.2344 2296.0625,690.0938 2295.1875,690.0938 C2292.5625,690.0938 2290.5625,692.1719 2290.5625,694.8906 L2290.5625,696.0156 C2290.5625,698.5938 2292.6719,700.4844 2295.5625,700.4844 C2296.7813,700.4844 2297.9375,700.1875 2298.6875,699.6406 C2299.2656,699.2344 2299.5938,698.7813 2299.5938,698.3906 C2299.5938,697.9375 2299.2031,697.5469 2298.7344,697.5469 C2298.5156,697.5469 2298.3125,697.625 2298.125,697.8125 C2297.6719,698.2969 2297.6719,698.2969 2297.4844,698.3906 C2297.0625,698.6563 2296.375,698.7813 2295.6094,698.7813 C2293.5625,698.7813 2292.2656,697.6875 2292.2656,695.9844 L2292.2656,694.8906 C2292.2656,693.1094 2293.5156,691.7969 2295.25,691.7969 C2295.8281,691.7969 2296.4375,691.9531 2296.9063,692.2031 C2297.3906,692.4844 2297.5625,692.7031 2297.6563,693.1094 C2297.7188,693.5156 2297.75,693.6406 2297.8906,693.7656 C2298.0313,693.9063 2298.2656,694.0156 2298.4844,694.0156 C2298.75,694.0156 2299.0156,693.875 2299.1875,693.6563 C2299.2969,693.5 2299.3281,693.3125 2299.3281,692.8906 L2299.3281,691.4688 C2299.3281,691.0313 2299.3125,690.9063 2299.2188,690.75 C2299.0625,690.4844 2298.7813,690.3438 2298.4844,690.3438 C2298.1875,690.3438 2297.9844,690.4375 2297.7656,690.75 L2297.5938,690.6719 Z " fill="#000000"/><text fill="#000000" font-family="sans-serif" font-size="14" lengthAdjust="spacing" textLength="125" x="2315.75" y="699.8467">AssignStatement</text><line style="stroke:#181818;stroke-width:0.5;" x1="2198" x2="2526" y1="711" y2="711"/><line style="stroke:#181818;stroke-width:0.5;" x1="2198" x2="2526" y1="719" y2="719"/><ellipse cx="2208" cy="732.6484" fill="#84BE84" rx="3" ry="3" style="stroke:#038048;stroke-width:1.0;"/><text fill="#000000" font-family="sans-serif" font-size="14" lengthAdjust="spacing" textLength="304" x="2217" y="735.9951">Accept(visitor:shared_ptr&lt;ParserVisitor&gt;)</text></g><!--class ReadStatement--><g id="elem_ReadStatement"><rect codeLine="85" fill="#F1F1F1" height="64.2969" id="ReadStatement" rx="2.5" ry="2.5" style="stroke:#181818;stroke-width:0.5;" width="330" x="2562" y="679"/><ellipse cx="2665.25" cy="695" fill="#ADD1B2" rx="11" ry="11" style="stroke:#181818;stroke-width:1.0;"/><path d="M2667.5938,690.6719 C2666.6563,690.2344 2666.0625,690.0938 2665.1875,690.0938 C2662.5625,690.0938 2660.5625,692.1719 2660.5625,694.8906 L2660.5625,696.0156 C2660.5625,698.5938 2662.6719,700.4844 2665.5625,700.4844 C2666.7813,700.4844 2667.9375,700.1875 2668.6875,699.6406 C2669.2656,699.2344 2669.5938,698.7813 2669.5938,698.3906 C2669.5938,697.9375 2669.2031,697.5469 2668.7344,697.5469 C2668.5156,697.5469 2668.3125,697.625 2668.125,697.8125 C2667.6719,698.2969 2667.6719,698.2969 2667.4844,698.3906 C2667.0625,698.6563 2666.375,698.7813 2665.6094,698.7813 C2663.5625,698.7813 2662.2656,697.6875 2662.2656,695.9844 L2662.2656,694.8906 C2662.2656,693.1094 2663.5156,691.7969 2665.25,691.7969 C2665.8281,691.7969 2666.4375,691.9531 2666.9063,692.2031 C2667.3906,692.4844 2667.5625,692.7031 2667.6563,693.1094 C2667.7188,693.5156 2667.75,693.6406 2667.8906,693.7656 C2668.0313,693.9063 2668.2656,694.0156 2668.4844,694.0156 C2668.75,694.0156 2669.0156,693.875 2669.1875,693.6563 C2669.2969,693.5 2669.3281,693.3125 2669.3281,692.8906 L2669.3281,691.4688 C2669.3281,691.0313 2669.3125,690.9063 2669.2188,690.75 C2669.0625,690.4844 2668.7813,690.3438 2668.4844,690.3438 C2668.1875,690.3438 2667.9844,690.4375 2667.7656,690.75 L2667.5938,690.6719 Z " fill="#000000"/><text fill="#000000" font-family="sans-serif" font-size="14" lengthAdjust="spacing" textLength="115" x="2685.75" y="699.8467">ReadStatement</text><line style="stroke:#181818;stroke-width:0.5;" x1="2563" x2="2891" y1="711" y2="711"/><line style="stroke:#181818;stroke-width:0.5;" x1="2563" x2="2891" y1="719" y2="719"/><ellipse cx="2573" cy="732.6484" fill="#84BE84" rx="3" ry="3" style="stroke:#038048;stroke-width:1.0;"/><text fill="#000000" font-family="sans-serif" font-size="14" lengthAdjust="spacing" textLength="304" x="2582" y="735.9951">Accept(visitor:shared_ptr&lt;ParserVisitor&gt;)</text></g><!--class PrintStatement--><g id="elem_PrintStatement"><rect codeLine="89" fill="#F1F1F1" height="64.2969" id="PrintStatement" rx="2.5" ry="2.5" style="stroke:#181818;stroke-width:0.5;" width="330" x="2927" y="679"/><ellipse cx="3030.75" cy="695" fill="#ADD1B2" rx="11" ry="11" style="stroke:#181818;stroke-width:1.0;"/><path d="M3033.0938,690.6719 C3032.1563,690.2344 3031.5625,690.0938 3030.6875,690.0938 C3028.0625,690.0938 3026.0625,692.1719 3026.0625,694.8906 L3026.0625,696.0156 C3026.0625,698.5938 3028.1719,700.4844 3031.0625,700.4844 C3032.2813,700.4844 3033.4375,700.1875 3034.1875,699.6406 C3034.7656,699.2344 3035.0938,698.7813 3035.0938,698.3906 C3035.0938,697.9375 3034.7031,697.5469 3034.2344,697.5469 C3034.0156,697.5469 3033.8125,697.625 3033.625,697.8125 C3033.1719,698.2969 3033.1719,698.2969 3032.9844,698.3906 C3032.5625,698.6563 3031.875,698.7813 3031.1094,698.7813 C3029.0625,698.7813 3027.7656,697.6875 3027.7656,695.9844 L3027.7656,694.8906 C3027.7656,693.1094 3029.0156,691.7969 3030.75,691.7969 C3031.3281,691.7969 3031.9375,691.9531 3032.4063,692.2031 C3032.8906,692.4844 3033.0625,692.7031 3033.1563,693.1094 C3033.2188,693.5156 3033.25,693.6406 3033.3906,693.7656 C3033.5313,693.9063 3033.7656,694.0156 3033.9844,694.0156 C3034.25,694.0156 3034.5156,693.875 3034.6875,693.6563 C3034.7969,693.5 3034.8281,693.3125 3034.8281,692.8906 L3034.8281,691.4688 C3034.8281,691.0313 3034.8125,690.9063 3034.7188,690.75 C3034.5625,690.4844 3034.2813,690.3438 3033.9844,690.3438 C3033.6875,690.3438 3033.4844,690.4375 3033.2656,690.75 L3033.0938,690.6719 Z " fill="#000000"/><text fill="#000000" font-family="sans-serif" font-size="14" lengthAdjust="spacing" textLength="114" x="3051.25" y="699.8467">PrintStatement</text><line style="stroke:#181818;stroke-width:0.5;" x1="2928" x2="3256" y1="711" y2="711"/><line style="stroke:#181818;stroke-width:0.5;" x1="2928" x2="3256" y1="719" y2="719"/><ellipse cx="2938" cy="732.6484" fill="#84BE84" rx="3" ry="3" style="stroke:#038048;stroke-width:1.0;"/><text fill="#000000" font-family="sans-serif" font-size="14" lengthAdjust="spacing" textLength="304" x="2947" y="735.9951">Accept(visitor:shared_ptr&lt;ParserVisitor&gt;)</text></g><!--class IfStatement--><g id="elem_IfStatement"><rect codeLine="93" fill="#F1F1F1" height="64.2969" id="IfStatement" rx="2.5" ry="2.5" style="stroke:#181818;stroke-width:0.5;" width="330" x="3292" y="679"/><ellipse cx="3408.25" cy="695" fill="#ADD1B2" rx="11" ry="11" style="stroke:#181818;stroke-width:1.0;"/><path d="M3410.5938,690.6719 C3409.6563,690.2344 3409.0625,690.0938 3408.1875,690.0938 C3405.5625,690.0938 3403.5625,692.1719 3403.5625,694.8906 L3403.5625,696.0156 C3403.5625,698.5938 3405.6719,700.4844 3408.5625,700.4844 C3409.7813,700.4844 3410.9375,700.1875 3411.6875,699.6406 C3412.2656,699.2344 3412.5938,698.7813 3412.5938,698.3906 C3412.5938,697.9375 3412.2031,697.5469 3411.7344,697.5469 C3411.5156,697.5469 3411.3125,697.625 3411.125,697.8125 C3410.6719,698.2969 3410.6719,698.2969 3410.4844,698.3906 C3410.0625,698.6563 3409.375,698.7813 3408.6094,698.7813 C3406.5625,698.7813 3405.2656,697.6875 3405.2656,695.9844 L3405.2656,694.8906 C3405.2656,693.1094 3406.5156,691.7969 3408.25,691.7969 C3408.8281,691.7969 3409.4375,691.9531 3409.9063,692.2031 C3410.3906,692.4844 3410.5625,692.7031 3410.6563,693.1094 C3410.7188,693.5156 3410.75,693.6406 3410.8906,693.7656 C3411.0313,693.9063 3411.2656,694.0156 3411.4844,694.0156 C3411.75,694.0156 3412.0156,693.875 3412.1875,693.6563 C3412.2969,693.5 3412.3281,693.3125 3412.3281,692.8906 L3412.3281,691.4688 C3412.3281,691.0313 3412.3125,690.9063 3412.2188,690.75 C3412.0625,690.4844 3411.7813,690.3438 3411.4844,690.3438 C3411.1875,690.3438 3410.9844,690.4375 3410.7656,690.75 L3410.5938,690.6719 Z " fill="#000000"/><text fill="#000000" font-family="sans-serif" font-size="14" lengthAdjust="spacing" textLength="89" x="3428.75" y="699.8467">IfStatement</text><line style="stroke:#181818;stroke-width:0.5;" x1="3293" x2="3621" y1="711" y2="711"/><line style="stroke:#181818;stroke-width:0.5;" x1="3293" x2="3621" y1="719" y2="719"/><ellipse cx="3303" cy="732.6484" fill="#84BE84" rx="3" ry="3" style="stroke:#038048;stroke-width:1.0;"/><text fill="#000000" font-family="sans-serif" font-size="14" lengthAdjust="spacing" textLength="304" x="3312" y="735.9951">Accept(visitor:shared_ptr&lt;ParserVisitor&gt;)</text></g><!--class WhileStatement--><g id="elem_WhileStatement"><rect codeLine="97" fill="#F1F1F1" height="64.2969" id="WhileStatement" rx="2.5" ry="2.5" style="stroke:#181818;stroke-width:0.5;" width="330" x="3657" y="679"/><ellipse cx="3758.25" cy="695" fill="#ADD1B2" rx="11" ry="11" style="stroke:#181818;stroke-width:1.0;"/><path d="M3760.5938,690.6719 C3759.6563,690.2344 3759.0625,690.0938 3758.1875,690.0938 C3755.5625,690.0938 3753.5625,692.1719 3753.5625,694.8906 L3753.5625,696.0156 C3753.5625,698.5938 3755.6719,700.4844 3758.5625,700.4844 C3759.7813,700.4844 3760.9375,700.1875 3761.6875,699.6406 C3762.2656,699.2344 3762.5938,698.7813 3762.5938,698.3906 C3762.5938,697.9375 3762.2031,697.5469 3761.7344,697.5469 C3761.5156,697.5469 3761.3125,697.625 3761.125,697.8125 C3760.6719,698.2969 3760.6719,698.2969 3760.4844,698.3906 C3760.0625,698.6563 3759.375,698.7813 3758.6094,698.7813 C3756.5625,698.7813 3755.2656,697.6875 3755.2656,695.9844 L3755.2656,694.8906 C3755.2656,693.1094 3756.5156,691.7969 3758.25,691.7969 C3758.8281,691.7969 3759.4375,691.9531 3759.9063,692.2031 C3760.3906,692.4844 3760.5625,692.7031 3760.6563,693.1094 C3760.7188,693.5156 3760.75,693.6406 3760.8906,693.7656 C3761.0313,693.9063 3761.2656,694.0156 3761.4844,694.0156 C3761.75,694.0156 3762.0156,693.875 3762.1875,693.6563 C3762.2969,693.5 3762.3281,693.3125 3762.3281,692.8906 L3762.3281,691.4688 C3762.3281,691.0313 3762.3125,690.9063 3762.2188,690.75 C3762.0625,690.4844 3761.7813,690.3438 3761.4844,690.3438 C3761.1875,690.3438 3760.9844,690.4375 3760.7656,690.75 L3760.5938,690.6719 Z " fill="#000000"/><text fill="#000000" font-family="sans-serif" font-size="14" lengthAdjust="spacing" textLength="119" x="3778.75" y="699.8467">WhileStatement</text><line style="stroke:#181818;stroke-width:0.5;" x1="3658" x2="3986" y1="711" y2="711"/><line style="stroke:#181818;stroke-width:0.5;" x1="3658" x2="3986" y1="719" y2="719"/><ellipse cx="3668" cy="732.6484" fill="#84BE84" rx="3" ry="3" style="stroke:#038048;stroke-width:1.0;"/><text fill="#000000" font-family="sans-serif" font-size="14" lengthAdjust="spacing" textLength="304" x="3677" y="735.9951">Accept(visitor:shared_ptr&lt;ParserVisitor&gt;)</text></g><!--reverse link ParserVisitor to EntityExtractor--><g id="link_ParserVisitor_EntityExtractor"><path d="M1219.54,243.199 C1185.4,260.195 1150.8,277.488 1118,294 C1107.27,299.402 1096.34,304.918 1085.3,310.499 " fill="none" id="ParserVisitor-backto-EntityExtractor" style="stroke:#181818;stroke-width:1.0;stroke-dasharray:7.0,7.0;"/><polygon fill="none" points="1216.87,236.711,1237.89,234.071,1223.1,249.246,1216.87,236.711" style="stroke:#181818;stroke-width:1.0;"/></g><!--reverse link ParserVisitor to AbstractionExtractor--><g id="link_ParserVisitor_AbstractionExtractor"><path d="M1466,254.269 C1466,267.279 1466,280.578 1466,293.833 " fill="none" id="ParserVisitor-backto-AbstractionExtractor" style="stroke:#181818;stroke-width:1.0;stroke-dasharray:7.0,7.0;"/><polygon fill="none" points="1459,254.112,1466,234.112,1473,254.111,1459,254.112" style="stroke:#181818;stroke-width:1.0;"/></g><!--reverse link Entity to Procedure--><g id="link_Entity_Procedure"><path d="M1960.37,504.39 C1927.11,542.979 1874.3,595.078 1815,619 C1664.33,679.7787 515.577,661.9917 354,679 C348.422,679.5872 342.756,680.239 337.04,680.9438 " fill="none" id="Entity-backto-Procedure" style="stroke:#181818;stroke-width:1.0;stroke-dasharray:7.0,7.0;"/><polygon fill="none" points="1955.19,499.665,1973.38,488.8,1965.94,508.638,1955.19,499.665" style="stroke:#181818;stroke-width:1.0;"/></g><!--reverse link Entity to Variable--><g id="link_Entity_Variable"><path d="M1960.28,504.187 C1926.97,542.649 1874.14,594.674 1815,619 C1589.42,711.7897 961.4,651.8107 719,679 C713.426,679.6252 707.763,680.3099 702.05,681.0428 " fill="none" id="Entity-backto-Variable" style="stroke:#181818;stroke-width:1.0;stroke-dasharray:7.0,7.0;"/><polygon fill="none" points="1955.1,499.47,1973.33,488.654,1965.83,508.472,1955.1,499.47" style="stroke:#181818;stroke-width:1.0;"/></g><!--reverse link Entity to Constant--><g id="link_Entity_Constant"><path d="M1959.82,504.115 C1926.39,542.29 1873.63,593.941 1815,619 C1665.33,682.9693 1246.5,658.7219 1085,679 C1079.24,679.7226 1073.39,680.4969 1067.49,681.3119 " fill="none" id="Entity-backto-Constant" style="stroke:#181818;stroke-width:1.0;stroke-dasharray:7.0,7.0;"/><polygon fill="none" points="1954.64,499.402,1972.93,488.696,1965.31,508.469,1954.64,499.402" style="stroke:#181818;stroke-width:1.0;"/></g><!--reverse link Entity to ArithmeticOperation--><g id="link_Entity_ArithmeticOperation"><path d="M1958.4,503.907 C1924.6,541.249 1872.07,591.829 1815,619 C1666.57,689.6717 1612.16,651.9376 1450,679 C1444.12,679.9813 1438.13,680.9827 1432.09,681.9961 " fill="none" id="Entity-backto-ArithmeticOperation" style="stroke:#181818;stroke-width:1.0;stroke-dasharray:7.0,7.0;"/><polygon fill="none" points="1953.23,499.194,1971.7,488.82,1963.73,508.452,1953.23,499.194" style="stroke:#181818;stroke-width:1.0;"/></g><!--reverse link Entity to RelationalOperation--><g id="link_Entity_RelationalOperation"><path d="M1952.37,503.218 C1917.14,537.735 1865.63,584.831 1815,619 C1780.74,642.122 1739.76,663.0456 1705.27,678.9826 " fill="none" id="Entity-backto-RelationalOperation" style="stroke:#181818;stroke-width:1.0;stroke-dasharray:7.0,7.0;"/><polygon fill="none" points="1947.76,497.928,1966.89,488.803,1957.63,507.862,1947.76,497.928" style="stroke:#181818;stroke-width:1.0;"/></g><!--reverse link Entity to ConditionalOperation--><g id="link_Entity_ConditionalOperation"><path d="M1997,508.836 C1997,559.843 1997,636.408 1997,678.8566 " fill="none" id="Entity-backto-ConditionalOperation" style="stroke:#181818;stroke-width:1.0;stroke-dasharray:7.0,7.0;"/><polygon fill="none" points="1990,508.715,1997,488.715,2004,508.715,1990,508.715" style="stroke:#181818;stroke-width:1.0;"/></g><!--reverse link Entity to AssignStatement--><g id="link_Entity_AssignStatement"><path d="M2058.76,500.225 C2131.93,550.841 2252.06,633.944 2316.98,678.8566 " fill="none" id="Entity-backto-AssignStatement" style="stroke:#181818;stroke-width:1.0;stroke-dasharray:7.0,7.0;"/><polygon fill="none" points="2054.59,505.85,2042.12,488.715,2062.55,494.336,2054.59,505.85" style="stroke:#181818;stroke-width:1.0;"/></g><!--reverse link Entity to ReadStatement--><g id="link_Entity_ReadStatement"><path d="M2106.11,495.239 C2250.66,545.24 2502.99,632.516 2637.14,678.9199 " fill="none" id="Entity-backto-ReadStatement" style="stroke:#181818;stroke-width:1.0;stroke-dasharray:7.0,7.0;"/><polygon fill="none" points="2103.49,501.741,2086.88,488.588,2108.07,488.51,2103.49,501.741" style="stroke:#181818;stroke-width:1.0;"/></g><!--reverse link Entity to PrintStatement--><g id="link_Entity_PrintStatement"><path d="M2151.17,493.052 C2366.27,542.651 2752.91,631.809 2957.14,678.9021 " fill="none" id="Entity-backto-PrintStatement" style="stroke:#181818;stroke-width:1.0;stroke-dasharray:7.0,7.0;"/><polygon fill="none" points="2149.46,499.84,2131.54,488.525,2152.6,486.198,2149.46,499.84" style="stroke:#181818;stroke-width:1.0;"/></g><!--reverse link Entity to IfStatement--><g id="link_Entity_IfStatement"><path d="M2182.14,489.519 C2469.24,539.171 3017.27,633.951 3291.75,681.4205 " fill="none" id="Entity-backto-IfStatement" style="stroke:#181818;stroke-width:1.0;stroke-dasharray:7.0,7.0;"/><polygon fill="none" points="2180.86,496.403,2162.35,486.097,2183.25,482.607,2180.86,496.403" style="stroke:#181818;stroke-width:1.0;"/></g><!--reverse link Entity to WhileStatement--><g id="link_Entity_WhileStatement"><path d="M2182.3,480.353 C2486.9,518.395 3112.31,598.514 3640,679 C3645.55,679.8458 3651.18,680.7207 3656.87,681.617 " fill="none" id="Entity-backto-WhileStatement" style="stroke:#181818;stroke-width:1.0;stroke-dasharray:7.0,7.0;"/><polygon fill="none" points="2181.24,487.275,2162.26,477.853,2182.98,473.383,2181.24,487.275" style="stroke:#181818;stroke-width:1.0;"/></g><!--reverse link ParserVisitor to Entity--><g id="link_ParserVisitor_Entity"><path codeLine="101" d="M1719.16,236.554 C1752.19,254.457 1784.95,273.774 1815,294 C1873.35,333.273 1932.79,389.776 1967.21,424.484 " fill="none" id="ParserVisitor-backto-Entity" style="stroke:#181818;stroke-width:1.0;stroke-dasharray:7.0,7.0;"/><polygon fill="#181818" points="1714.71,234.151,1720.7348,241.9421,1719.1114,236.5232,1724.5304,234.8998,1714.71,234.151" style="stroke:#181818;stroke-width:1.0;"/></g><!--SRC=[xLPDQoCn3BtdLyofJEZ73oWXa5rQM7QXeONsE3WU9J7rV22hISko_xssavcH4zDBVMYNt2phwKLIz3HMDG4kXOHiBj00FYgZgC7ixoWxpxmnnqP2-OAGjztfsgm5GbcqX9FUFHtt8Oy2bLXeo3Vx0m_ed0p_iwaDYPfokJzmVETa-1agMbT0IWfzrm8AKatjqbkXg7Zi0EnXZEOUjB_Y90YwQ3gBKqN0OGMbEkIorPHniXYSrsUCMjKF90Wgi6qHtYvCTn6K66A3yaGvSA2ruWm1ZiNFKTKq4BJEZ3E4I4RnQpd4gsKyc65OvDDQQHY2jywCnuT8I_5lD9BQjYoxgKdHsyqheP1kfbNLQWyonyD-cRNFYo8ewlUFQNU_jNC4XPM9ACFXVruyETUjztYuruCnVK8cxxCsrmzKqHzbtBYGK3NWcQ_u8D7S_kHX9kEJ7azw_EPwd2sCdt3RtAyaoWsuH2QCOSX-UdQHjVRUbKYsgwknezjdF_UEFF1VPDBMx_xPAkZAGKzZhJZ9_YJx_qZsxhks6-tRHkjcQspgiFb065OwBuWVAiUk4jK_M7TVpTrBTIObj9HlThiZQ0fVAdmRzOhXA-YJd9se4b9skaj86P5ZGlQ8GjEsuqYoALiJoZXfMvYy4_A6eaz8p1P2GjPmJIGX3fyDawloQi_r3W00]--></g></svg>