<?xml version="1.0" encoding="UTF-8" standalone="no"?><svg xmlns="http://www.w3.org/2000/svg" xmlns:xlink="http://www.w3.org/1999/xlink" contentStyleType="text/css" height="508px" preserveAspectRatio="none" style="width:668px;height:508px;background:#FFFFFF;" version="1.1" viewBox="0 0 668 508" width="668px" zoomAndPan="magnify"><defs/><g><rect fill="#FFFFFF" height="415.8906" style="stroke:#181818;stroke-width:1.0;" width="10" x="204" y="67.4297"/><rect fill="#FFFFFF" height="29.1328" style="stroke:#181818;stroke-width:1.0;" width="10" x="348" y="137.8594"/><rect fill="#FFFFFF" height="29.1328" style="stroke:#181818;stroke-width:1.0;" width="10" x="430.5" y="237.4219"/><rect fill="#FFFFFF" height="72.0703" style="stroke:#181818;stroke-width:1.0;" width="10" x="535.5" y="336.9844"/><rect fill="none" height="46.2656" style="stroke:#000000;stroke-width:1.5;" width="248" x="3" y="424.0547"/><line style="stroke:#181818;stroke-width:0.5;stroke-dasharray:5.0,5.0;" x1="209" x2="209" y1="36.2969" y2="501.3203"/><line style="stroke:#181818;stroke-width:0.5;stroke-dasharray:5.0,5.0;" x1="353" x2="353" y1="106.0781" y2="501.3203"/><line style="stroke:#181818;stroke-width:0.5;stroke-dasharray:5.0,5.0;" x1="435" x2="435" y1="205.6406" y2="501.3203"/><line style="stroke:#181818;stroke-width:0.5;stroke-dasharray:5.0,5.0;" x1="540" x2="540" y1="305.2031" y2="501.3203"/><line style="stroke:#181818;stroke-width:0.5;stroke-dasharray:5.0,5.0;" x1="637" x2="637" y1="36.2969" y2="501.3203"/><rect fill="#E2E2F0" height="30.2969" rx="2.5" ry="2.5" style="stroke:#181818;stroke-width:0.5;" width="32" x="193" y="5"/><text fill="#000000" font-family="sans-serif" font-size="14" lengthAdjust="spacing" textLength="18" x="200" y="24.9951">SP</text><rect fill="#E2E2F0" height="30.2969" rx="2.5" ry="2.5" style="stroke:#181818;stroke-width:0.5;" width="43" x="616" y="5"/><text fill="#000000" font-family="sans-serif" font-size="14" lengthAdjust="spacing" textLength="29" x="623" y="24.9951">PKB</text><rect fill="#FFFFFF" height="415.8906" style="stroke:#181818;stroke-width:1.0;" width="10" x="204" y="67.4297"/><rect fill="#FFFFFF" height="29.1328" style="stroke:#181818;stroke-width:1.0;" width="10" x="348" y="137.8594"/><rect fill="#FFFFFF" height="29.1328" style="stroke:#181818;stroke-width:1.0;" width="10" x="430.5" y="237.4219"/><rect fill="#FFFFFF" height="72.0703" style="stroke:#181818;stroke-width:1.0;" width="10" x="535.5" y="336.9844"/><polygon fill="#181818" points="192,63.4297,202,67.4297,192,71.4297,196,67.4297" style="stroke:#181818;stroke-width:1.0;"/><line style="stroke:#181818;stroke-width:1.0;" x1="0" x2="198" y1="67.4297" y2="67.4297"/><text fill="#000000" font-family="sans-serif" font-size="13" lengthAdjust="spacing" textLength="178" x="7" y="62.3638">ProcessSIMPLE(source, pkb)</text><polygon fill="#181818" points="298,92.5625,308,96.5625,298,100.5625,302,96.5625" style="stroke:#181818;stroke-width:1.0;"/><line style="stroke:#181818;stroke-width:1.0;" x1="214" x2="304" y1="96.5625" y2="96.5625"/><text fill="#000000" font-family="sans-serif" font-size="13" lengthAdjust="spacing" textLength="72" x="221" y="91.4966">Tokenizer()</text><rect fill="#E2E2F0" height="30.2969" rx="2.5" ry="2.5" style="stroke:#181818;stroke-width:0.5;" width="86" x="310" y="75.4297"/><text fill="#000000" font-family="sans-serif" font-size="14" lengthAdjust="spacing" textLength="72" x="317" y="95.4248">Tokenizer</text><polygon fill="#181818" points="336,133.8594,346,137.8594,336,141.8594,340,137.8594" style="stroke:#181818;stroke-width:1.0;"/><line style="stroke:#181818;stroke-width:1.0;" x1="214" x2="342" y1="137.8594" y2="137.8594"/><text fill="#000000" font-family="sans-serif" font-size="13" lengthAdjust="spacing" textLength="110" x="221" y="132.7935">Tokenize(source)</text><polygon fill="#181818" points="225,162.9922,215,166.9922,225,170.9922,221,166.9922" style="stroke:#181818;stroke-width:1.0;"/><line style="stroke:#181818;stroke-width:1.0;stroke-dasharray:2.0,2.0;" x1="219" x2="352" y1="166.9922" y2="166.9922"/><text fill="#000000" font-family="sans-serif" font-size="13" lengthAdjust="spacing" textLength="43" x="231" y="161.9263">tokens</text><polygon fill="#181818" points="394,192.125,404,196.125,394,200.125,398,196.125" style="stroke:#181818;stroke-width:1.0;"/><line style="stroke:#181818;stroke-width:1.0;" x1="214" x2="400" y1="196.125" y2="196.125"/><text fill="#000000" font-family="sans-serif" font-size="13" lengthAdjust="spacing" textLength="51" x="221" y="191.0591">Parser()</text><rect fill="#E2E2F0" height="30.2969" rx="2.5" ry="2.5" style="stroke:#181818;stroke-width:0.5;" width="59" x="406" y="174.9922"/><text fill="#000000" font-family="sans-serif" font-size="14" lengthAdjust="spacing" textLength="45" x="413" y="194.9873">Parser</text><polygon fill="#181818" points="418.5,233.4219,428.5,237.4219,418.5,241.4219,422.5,237.4219" style="stroke:#181818;stroke-width:1.0;"/><line style="stroke:#181818;stroke-width:1.0;" x1="214" x2="424.5" y1="237.4219" y2="237.4219"/><text fill="#000000" font-family="sans-serif" font-size="13" lengthAdjust="spacing" textLength="133" x="221" y="232.356">ParseSource(tokens)</text><polygon fill="#181818" points="225,262.5547,215,266.5547,225,270.5547,221,266.5547" style="stroke:#181818;stroke-width:1.0;"/><line style="stroke:#181818;stroke-width:1.0;stroke-dasharray:2.0,2.0;" x1="219" x2="434.5" y1="266.5547" y2="266.5547"/><text fill="#000000" font-family="sans-serif" font-size="13" lengthAdjust="spacing" textLength="55" x="231" y="261.4888">program</text><polygon fill="#181818" points="463,291.6875,473,295.6875,463,299.6875,467,295.6875" style="stroke:#181818;stroke-width:1.0;"/><line style="stroke:#181818;stroke-width:1.0;" x1="214" x2="469" y1="295.6875" y2="295.6875"/><text fill="#000000" font-family="sans-serif" font-size="13" lengthAdjust="spacing" textLength="136" x="221" y="290.6216">DesignExtractor(pkb)</text><rect fill="#E2E2F0" height="30.2969" rx="2.5" ry="2.5" style="stroke:#181818;stroke-width:0.5;" width="131" x="475" y="274.5547"/><text fill="#000000" font-family="sans-serif" font-size="14" lengthAdjust="spacing" textLength="117" x="482" y="294.5498">DesignExtractor</text><polygon fill="#181818" points="523.5,332.9844,533.5,336.9844,523.5,340.9844,527.5,336.9844" style="stroke:#181818;stroke-width:1.0;"/><line style="stroke:#181818;stroke-width:1.0;" x1="214" x2="529.5" y1="336.9844" y2="336.9844"/><text fill="#000000" font-family="sans-serif" font-size="13" lengthAdjust="spacing" textLength="155" x="221" y="331.9185">ExtractDesign(program)</text><rect fill="none" height="53.0703" style="stroke:#000000;stroke-width:1.5;" width="190" x="472" y="344.9844"/><path d="M472,344.9844 L540,344.9844 L540,351.9844 L530,361.9844 L472,361.9844 L472,344.9844 " fill="#EEEEEE" style="stroke:#000000;stroke-width:2.0;"/><text fill="#000000" font-family="sans-serif" font-size="13" font-weight="bold" lengthAdjust="spacing" textLength="23" x="485" y="359.0513">ref</text><text fill="#000000" font-family="sans-serif" font-size="12" lengthAdjust="spacing" textLength="86" x="524" y="377.123">Extract design</text><text fill="#000000" font-family="sans-serif" font-size="12" lengthAdjust="spacing" textLength="84" x="527" y="391.0918">from program</text><polygon fill="#181818" points="225,405.0547,215,409.0547,225,413.0547,221,409.0547" style="stroke:#181818;stroke-width:1.0;"/><line style="stroke:#181818;stroke-width:1.0;stroke-dasharray:2.0,2.0;" x1="219" x2="539.5" y1="409.0547" y2="409.0547"/><path d="M3,424.0547 L91,424.0547 L91,431.1875 L81,441.1875 L3,441.1875 L3,424.0547 " fill="#EEEEEE" style="stroke:#000000;stroke-width:1.5;"/><rect fill="none" height="46.2656" style="stroke:#000000;stroke-width:1.5;" width="248" x="3" y="424.0547"/><text fill="#000000" font-family="sans-serif" font-size="13" font-weight="bold" lengthAdjust="spacing" textLength="43" x="18" y="437.1216">break</text><text fill="#000000" font-family="sans-serif" font-size="11" font-weight="bold" lengthAdjust="spacing" textLength="140" x="106" y="436.2651">[catch SpaException]</text><polygon fill="#181818" points="11,458.3203,1,462.3203,11,466.3203,7,462.3203" style="stroke:#181818;stroke-width:1.0;"/><line style="stroke:#181818;stroke-width:1.0;stroke-dasharray:2.0,2.0;" x1="5" x2="203" y1="462.3203" y2="462.3203"/><text fill="#000000" font-family="sans-serif" font-size="13" lengthAdjust="spacing" textLength="143" x="17" y="457.2544">display error message</text><polygon fill="#181818" points="11,479.3203,1,483.3203,11,487.3203,7,483.3203" style="stroke:#181818;stroke-width:1.0;"/><line style="stroke:#181818;stroke-width:1.0;stroke-dasharray:2.0,2.0;" x1="5" x2="208" y1="483.3203" y2="483.3203"/><!--SRC=[TPB1RiCW38RlF8MFgTIyG3JjC2s7QPk4b1rt8SH9KHQ83AsoFVreGYX3wmdxj_dz6N5I7K9lZ6lDmbZv20slW9EHQ6tpyixVwiAQCqaymZos1oQaKnVXqFSn02O9hyc76L6h7oJMSF0cCQzkON6uNmmp4lkROuoW37ZkgbXW7VxJlYDnGJRoR4aLpaZoHsvMX68pJqY2qNP4XfdCG69A6KBZ3l2CLWswNXpv3hEJP6gL2yNwodTwGxZfHK18KFEHX3sOYwVE2aVWhq_H3hgr-gcX9pF5pLXsAQoURfpFOwrVVGGfd3n1CujwaJWxPJHxAClrsJfbvo_n3KZa7IV_oSI037NdMTsPj1-Q_B1V]--></g></svg>