<?xml version="1.0" encoding="UTF-8" standalone="no"?><svg xmlns="http://www.w3.org/2000/svg" xmlns:xlink="http://www.w3.org/1999/xlink" contentStyleType="text/css" height="1550px" preserveAspectRatio="none" style="width:2657px;height:1550px;background:#FFFFFF;" version="1.1" viewBox="0 0 2657 1550" width="2657px" zoomAndPan="magnify"><defs/><g><!--class Parser--><g id="elem_Parser"><rect codeLine="1" fill="#F1F1F1" height="80.5938" id="Parser" rx="2.5" ry="2.5" style="stroke:#181818;stroke-width:0.5;" width="310" x="1338" y="7"/><ellipse cx="1466.25" cy="23" fill="#ADD1B2" rx="11" ry="11" style="stroke:#181818;stroke-width:1.0;"/><path d="M1468.5938,18.6719 C1467.6563,18.2344 1467.0625,18.0938 1466.1875,18.0938 C1463.5625,18.0938 1461.5625,20.1719 1461.5625,22.8906 L1461.5625,24.0156 C1461.5625,26.5938 1463.6719,28.4844 1466.5625,28.4844 C1467.7813,28.4844 1468.9375,28.1875 1469.6875,27.6406 C1470.2656,27.2344 1470.5938,26.7813 1470.5938,26.3906 C1470.5938,25.9375 1470.2031,25.5469 1469.7344,25.5469 C1469.5156,25.5469 1469.3125,25.625 1469.125,25.8125 C1468.6719,26.2969 1468.6719,26.2969 1468.4844,26.3906 C1468.0625,26.6563 1467.375,26.7813 1466.6094,26.7813 C1464.5625,26.7813 1463.2656,25.6875 1463.2656,23.9844 L1463.2656,22.8906 C1463.2656,21.1094 1464.5156,19.7969 1466.25,19.7969 C1466.8281,19.7969 1467.4375,19.9531 1467.9063,20.2031 C1468.3906,20.4844 1468.5625,20.7031 1468.6563,21.1094 C1468.7188,21.5156 1468.75,21.6406 1468.8906,21.7656 C1469.0313,21.9063 1469.2656,22.0156 1469.4844,22.0156 C1469.75,22.0156 1470.0156,21.875 1470.1875,21.6563 C1470.2969,21.5 1470.3281,21.3125 1470.3281,20.8906 L1470.3281,19.4688 C1470.3281,19.0313 1470.3125,18.9063 1470.2188,18.75 C1470.0625,18.4844 1469.7813,18.3438 1469.4844,18.3438 C1469.1875,18.3438 1468.9844,18.4375 1468.7656,18.75 L1468.5938,18.6719 Z " fill="#000000"/><text fill="#000000" font-family="sans-serif" font-size="14" lengthAdjust="spacing" textLength="45" x="1486.75" y="27.8467">Parser</text><line style="stroke:#181818;stroke-width:0.5;" x1="1339" x2="1647" y1="39" y2="39"/><line style="stroke:#181818;stroke-width:0.5;" x1="1339" x2="1647" y1="47" y2="47"/><ellipse cx="1349" cy="60.6484" fill="#84BE84" rx="3" ry="3" style="stroke:#038048;stroke-width:1.0;"/><text fill="#000000" font-family="sans-serif" font-size="14" lengthAdjust="spacing" textLength="284" x="1358" y="63.9951">ParseSource(TokenStream&amp;): Program*</text><ellipse cx="1349" cy="76.9453" fill="#84BE84" rx="3" ry="3" style="stroke:#038048;stroke-width:1.0;"/><text fill="#000000" font-family="sans-serif" font-size="14" lengthAdjust="spacing" text-decoration="underline" textLength="176" x="1358" y="80.292">IsProcedure(Line&amp;): bool</text></g><!--class ProcedureParser--><g id="elem_ProcedureParser"><rect codeLine="5" fill="#F1F1F1" height="96.8906" id="ProcedureParser" rx="2.5" ry="2.5" style="stroke:#181818;stroke-width:0.5;" width="317" x="1334.5" y="148"/><ellipse cx="1429.75" cy="164" fill="#ADD1B2" rx="11" ry="11" style="stroke:#181818;stroke-width:1.0;"/><path d="M1432.0938,159.6719 C1431.1563,159.2344 1430.5625,159.0938 1429.6875,159.0938 C1427.0625,159.0938 1425.0625,161.1719 1425.0625,163.8906 L1425.0625,165.0156 C1425.0625,167.5938 1427.1719,169.4844 1430.0625,169.4844 C1431.2813,169.4844 1432.4375,169.1875 1433.1875,168.6406 C1433.7656,168.2344 1434.0938,167.7813 1434.0938,167.3906 C1434.0938,166.9375 1433.7031,166.5469 1433.2344,166.5469 C1433.0156,166.5469 1432.8125,166.625 1432.625,166.8125 C1432.1719,167.2969 1432.1719,167.2969 1431.9844,167.3906 C1431.5625,167.6563 1430.875,167.7813 1430.1094,167.7813 C1428.0625,167.7813 1426.7656,166.6875 1426.7656,164.9844 L1426.7656,163.8906 C1426.7656,162.1094 1428.0156,160.7969 1429.75,160.7969 C1430.3281,160.7969 1430.9375,160.9531 1431.4063,161.2031 C1431.8906,161.4844 1432.0625,161.7031 1432.1563,162.1094 C1432.2188,162.5156 1432.25,162.6406 1432.3906,162.7656 C1432.5313,162.9063 1432.7656,163.0156 1432.9844,163.0156 C1433.25,163.0156 1433.5156,162.875 1433.6875,162.6563 C1433.7969,162.5 1433.8281,162.3125 1433.8281,161.8906 L1433.8281,160.4688 C1433.8281,160.0313 1433.8125,159.9063 1433.7188,159.75 C1433.5625,159.4844 1433.2813,159.3438 1432.9844,159.3438 C1432.6875,159.3438 1432.4844,159.4375 1432.2656,159.75 L1432.0938,159.6719 Z " fill="#000000"/><text fill="#000000" font-family="sans-serif" font-size="14" lengthAdjust="spacing" textLength="118" x="1450.25" y="168.8467">ProcedureParser</text><line style="stroke:#181818;stroke-width:0.5;" x1="1335.5" x2="1650.5" y1="180" y2="180"/><line style="stroke:#181818;stroke-width:0.5;" x1="1335.5" x2="1650.5" y1="188" y2="188"/><ellipse cx="1345.5" cy="201.6484" fill="#84BE84" rx="3" ry="3" style="stroke:#038048;stroke-width:1.0;"/><text fill="#000000" font-family="sans-serif" font-size="14" lengthAdjust="spacing" textLength="291" x="1354.5" y="204.9951">ParseEntity(TokenStream&amp;): Procedure*</text><ellipse cx="1345.5" cy="217.9453" fill="#84BE84" rx="3" ry="3" style="stroke:#038048;stroke-width:1.0;"/><text fill="#000000" font-family="sans-serif" font-size="14" lengthAdjust="spacing" text-decoration="underline" textLength="228" x="1354.5" y="221.292">ExtractProcName(Line&amp;): string</text><ellipse cx="1345.5" cy="234.2422" fill="#84BE84" rx="3" ry="3" style="stroke:#038048;stroke-width:1.0;"/><text fill="#000000" font-family="sans-serif" font-size="14" lengthAdjust="spacing" text-decoration="underline" textLength="203" x="1354.5" y="237.5889">IsProcedureEnd(Line&amp;): bool</text></g><!--class StatementParserFactory--><g id="elem_StatementParserFactory"><rect codeLine="11" fill="#F1F1F1" height="96.8906" id="StatementParserFactory" rx="2.5" ry="2.5" style="stroke:#181818;stroke-width:0.5;" width="436" x="1140" y="305"/><ellipse cx="1264.75" cy="321" fill="#ADD1B2" rx="11" ry="11" style="stroke:#181818;stroke-width:1.0;"/><path d="M1267.0938,316.6719 C1266.1563,316.2344 1265.5625,316.0938 1264.6875,316.0938 C1262.0625,316.0938 1260.0625,318.1719 1260.0625,320.8906 L1260.0625,322.0156 C1260.0625,324.5938 1262.1719,326.4844 1265.0625,326.4844 C1266.2813,326.4844 1267.4375,326.1875 1268.1875,325.6406 C1268.7656,325.2344 1269.0938,324.7813 1269.0938,324.3906 C1269.0938,323.9375 1268.7031,323.5469 1268.2344,323.5469 C1268.0156,323.5469 1267.8125,323.625 1267.625,323.8125 C1267.1719,324.2969 1267.1719,324.2969 1266.9844,324.3906 C1266.5625,324.6563 1265.875,324.7813 1265.1094,324.7813 C1263.0625,324.7813 1261.7656,323.6875 1261.7656,321.9844 L1261.7656,320.8906 C1261.7656,319.1094 1263.0156,317.7969 1264.75,317.7969 C1265.3281,317.7969 1265.9375,317.9531 1266.4063,318.2031 C1266.8906,318.4844 1267.0625,318.7031 1267.1563,319.1094 C1267.2188,319.5156 1267.25,319.6406 1267.3906,319.7656 C1267.5313,319.9063 1267.7656,320.0156 1267.9844,320.0156 C1268.25,320.0156 1268.5156,319.875 1268.6875,319.6563 C1268.7969,319.5 1268.8281,319.3125 1268.8281,318.8906 L1268.8281,317.4688 C1268.8281,317.0313 1268.8125,316.9063 1268.7188,316.75 C1268.5625,316.4844 1268.2813,316.3438 1267.9844,316.3438 C1267.6875,316.3438 1267.4844,316.4375 1267.2656,316.75 L1267.0938,316.6719 Z " fill="#000000"/><text fill="#000000" font-family="sans-serif" font-size="14" lengthAdjust="spacing" textLength="178" x="1285.25" y="325.8467">StatementParserFactory</text><line style="stroke:#181818;stroke-width:0.5;" x1="1141" x2="1575" y1="337" y2="337"/><line style="stroke:#181818;stroke-width:0.5;" x1="1141" x2="1575" y1="345" y2="345"/><ellipse cx="1151" cy="358.6484" fill="#84BE84" rx="3" ry="3" style="stroke:#038048;stroke-width:1.0;"/><text fill="#000000" font-family="sans-serif" font-size="14" lengthAdjust="spacing" text-decoration="underline" textLength="410" x="1160" y="361.9951">GetStatementParser(TokenStream&amp;): StatementParser*</text><rect fill="#F24D5C" height="6" style="stroke:#C82930;stroke-width:1.0;" width="6" x="1148" y="371.9453"/><text fill="#000000" font-family="sans-serif" font-size="14" lengthAdjust="spacing" text-decoration="underline" textLength="258" x="1160" y="378.292">CheckAssignmentType(Line&amp;): bool</text><rect fill="#F24D5C" height="6" style="stroke:#C82930;stroke-width:1.0;" width="6" x="1148" y="388.2422"/><text fill="#000000" font-family="sans-serif" font-size="14" lengthAdjust="spacing" text-decoration="underline" textLength="325" x="1160" y="394.5889">CheckKeywordType(Line&amp;, string, bool): bool</text></g><!--class StatementParser--><g id="elem_StatementParser"><rect codeLine="16" fill="#F1F1F1" height="64.2969" id="StatementParser" rx="2.5" ry="2.5" style="stroke:#181818;stroke-width:0.5;" width="323" x="1224.5" y="462"/><ellipse cx="1322.25" cy="478" fill="#B4A7E5" rx="11" ry="11" style="stroke:#181818;stroke-width:1.0;"/><path d="M1323.2031,474.7813 L1324.9219,474.7813 C1325.3125,474.7813 1325.5,474.75 1325.625,474.6719 C1325.8906,474.5156 1326.0313,474.2344 1326.0313,473.9375 C1326.0313,473.6719 1325.9219,473.4063 1325.6875,473.2344 C1325.5156,473.125 1325.375,473.0938 1324.9219,473.0938 L1319.7813,473.0938 C1319.3438,473.0938 1319.2188,473.1094 1319.0625,473.2031 C1318.8125,473.3594 1318.6563,473.6563 1318.6563,473.9375 C1318.6563,474.2188 1318.7969,474.4688 1319.0156,474.6406 C1319.1719,474.75 1319.3594,474.7813 1319.7813,474.7813 L1321.5,474.7813 L1321.5,481.2969 L1319.7813,481.2969 C1319.3438,481.2969 1319.2188,481.3125 1319.0625,481.4219 C1318.8125,481.5781 1318.6563,481.8594 1318.6563,482.1563 C1318.6563,482.4063 1318.7969,482.6719 1319.0156,482.8281 C1319.1719,482.9531 1319.375,483 1319.7813,483 L1324.9219,483 C1325.6719,483 1326.0313,482.7188 1326.0313,482.1563 C1326.0313,481.875 1325.9219,481.625 1325.6875,481.4531 C1325.5156,481.3281 1325.375,481.2969 1324.9219,481.2969 L1323.2031,481.2969 L1323.2031,474.7813 Z " fill="#000000"/><text fill="#000000" font-family="sans-serif" font-size="14" font-style="italic" lengthAdjust="spacing" textLength="119" x="1342.75" y="482.8467">StatementParser</text><line style="stroke:#181818;stroke-width:0.5;" x1="1225.5" x2="1546.5" y1="494" y2="494"/><line style="stroke:#181818;stroke-width:0.5;" x1="1225.5" x2="1546.5" y1="502" y2="502"/><ellipse cx="1235.5" cy="515.6484" fill="#84BE84" rx="3" ry="3" style="stroke:#038048;stroke-width:1.0;"/><text fill="#000000" font-family="sans-serif" font-size="14" lengthAdjust="spacing" textLength="297" x="1244.5" y="518.9951">ParseEntity(TokenStream&amp;): Statement*</text></g><!--class AssignStatementParser--><g id="elem_AssignStatementParser"><rect codeLine="21" fill="#F1F1F1" height="96.8906" id="AssignStatementParser" rx="2.5" ry="2.5" style="stroke:#181818;stroke-width:0.5;" width="369" x="1606.5" y="618.5"/><ellipse cx="1701.75" cy="634.5" fill="#ADD1B2" rx="11" ry="11" style="stroke:#181818;stroke-width:1.0;"/><path d="M1704.0938,630.1719 C1703.1563,629.7344 1702.5625,629.5938 1701.6875,629.5938 C1699.0625,629.5938 1697.0625,631.6719 1697.0625,634.3906 L1697.0625,635.5156 C1697.0625,638.0938 1699.1719,639.9844 1702.0625,639.9844 C1703.2813,639.9844 1704.4375,639.6875 1705.1875,639.1406 C1705.7656,638.7344 1706.0938,638.2813 1706.0938,637.8906 C1706.0938,637.4375 1705.7031,637.0469 1705.2344,637.0469 C1705.0156,637.0469 1704.8125,637.125 1704.625,637.3125 C1704.1719,637.7969 1704.1719,637.7969 1703.9844,637.8906 C1703.5625,638.1563 1702.875,638.2813 1702.1094,638.2813 C1700.0625,638.2813 1698.7656,637.1875 1698.7656,635.4844 L1698.7656,634.3906 C1698.7656,632.6094 1700.0156,631.2969 1701.75,631.2969 C1702.3281,631.2969 1702.9375,631.4531 1703.4063,631.7031 C1703.8906,631.9844 1704.0625,632.2031 1704.1563,632.6094 C1704.2188,633.0156 1704.25,633.1406 1704.3906,633.2656 C1704.5313,633.4063 1704.7656,633.5156 1704.9844,633.5156 C1705.25,633.5156 1705.5156,633.375 1705.6875,633.1563 C1705.7969,633 1705.8281,632.8125 1705.8281,632.3906 L1705.8281,630.9688 C1705.8281,630.5313 1705.8125,630.4063 1705.7188,630.25 C1705.5625,629.9844 1705.2813,629.8438 1704.9844,629.8438 C1704.6875,629.8438 1704.4844,629.9375 1704.2656,630.25 L1704.0938,630.1719 Z " fill="#000000"/><text fill="#000000" font-family="sans-serif" font-size="14" lengthAdjust="spacing" textLength="170" x="1722.25" y="639.3467">AssignStatementParser</text><line style="stroke:#181818;stroke-width:0.5;" x1="1607.5" x2="1974.5" y1="650.5" y2="650.5"/><line style="stroke:#181818;stroke-width:0.5;" x1="1607.5" x2="1974.5" y1="658.5" y2="658.5"/><ellipse cx="1617.5" cy="672.1484" fill="#84BE84" rx="3" ry="3" style="stroke:#038048;stroke-width:1.0;"/><text fill="#000000" font-family="sans-serif" font-size="14" lengthAdjust="spacing" textLength="343" x="1626.5" y="675.4951">ParseEntity(TokenStream&amp;): AssignStatement*</text><ellipse cx="1617.5" cy="688.4453" fill="#84BE84" rx="3" ry="3" style="stroke:#038048;stroke-width:1.0;"/><text fill="#000000" font-family="sans-serif" font-size="14" lengthAdjust="spacing" textLength="255" x="1626.5" y="691.792">ExtractVariableName(Line&amp;): string</text><ellipse cx="1617.5" cy="704.7422" fill="#84BE84" rx="3" ry="3" style="stroke:#038048;stroke-width:1.0;"/><text fill="#000000" font-family="sans-serif" font-size="14" lengthAdjust="spacing" textLength="249" x="1626.5" y="708.0889">CheckEndOfStatement(Line &amp;line)</text></g><!--class IfStatementParser--><g id="elem_IfStatementParser"><rect codeLine="26" fill="#F1F1F1" height="162.0781" id="IfStatementParser" rx="2.5" ry="2.5" style="stroke:#181818;stroke-width:0.5;" width="371" x="1200.5" y="586"/><ellipse cx="1314.75" cy="602" fill="#ADD1B2" rx="11" ry="11" style="stroke:#181818;stroke-width:1.0;"/><path d="M1317.0938,597.6719 C1316.1563,597.2344 1315.5625,597.0938 1314.6875,597.0938 C1312.0625,597.0938 1310.0625,599.1719 1310.0625,601.8906 L1310.0625,603.0156 C1310.0625,605.5938 1312.1719,607.4844 1315.0625,607.4844 C1316.2813,607.4844 1317.4375,607.1875 1318.1875,606.6406 C1318.7656,606.2344 1319.0938,605.7813 1319.0938,605.3906 C1319.0938,604.9375 1318.7031,604.5469 1318.2344,604.5469 C1318.0156,604.5469 1317.8125,604.625 1317.625,604.8125 C1317.1719,605.2969 1317.1719,605.2969 1316.9844,605.3906 C1316.5625,605.6563 1315.875,605.7813 1315.1094,605.7813 C1313.0625,605.7813 1311.7656,604.6875 1311.7656,602.9844 L1311.7656,601.8906 C1311.7656,600.1094 1313.0156,598.7969 1314.75,598.7969 C1315.3281,598.7969 1315.9375,598.9531 1316.4063,599.2031 C1316.8906,599.4844 1317.0625,599.7031 1317.1563,600.1094 C1317.2188,600.5156 1317.25,600.6406 1317.3906,600.7656 C1317.5313,600.9063 1317.7656,601.0156 1317.9844,601.0156 C1318.25,601.0156 1318.5156,600.875 1318.6875,600.6563 C1318.7969,600.5 1318.8281,600.3125 1318.8281,599.8906 L1318.8281,598.4688 C1318.8281,598.0313 1318.8125,597.9063 1318.7188,597.75 C1318.5625,597.4844 1318.2813,597.3438 1317.9844,597.3438 C1317.6875,597.3438 1317.4844,597.4375 1317.2656,597.75 L1317.0938,597.6719 Z " fill="#000000"/><text fill="#000000" font-family="sans-serif" font-size="14" lengthAdjust="spacing" textLength="134" x="1335.25" y="606.8467">IfStatementParser</text><line style="stroke:#181818;stroke-width:0.5;" x1="1201.5" x2="1570.5" y1="618" y2="618"/><line style="stroke:#181818;stroke-width:0.5;" x1="1201.5" x2="1570.5" y1="626" y2="626"/><ellipse cx="1211.5" cy="639.6484" fill="#84BE84" rx="3" ry="3" style="stroke:#038048;stroke-width:1.0;"/><text fill="#000000" font-family="sans-serif" font-size="14" lengthAdjust="spacing" textLength="307" x="1220.5" y="642.9951">ParseEntity(TokenStream&amp;): IfStatement*</text><ellipse cx="1211.5" cy="655.9453" fill="#84BE84" rx="3" ry="3" style="stroke:#038048;stroke-width:1.0;"/><text fill="#000000" font-family="sans-serif" font-size="14" lengthAdjust="spacing" textLength="345" x="1220.5" y="659.292">ExtractCondition(Line&amp;): ConditionalOperation*</text><ellipse cx="1211.5" cy="672.2422" fill="#84BE84" rx="3" ry="3" style="stroke:#038048;stroke-width:1.0;"/><text fill="#000000" font-family="sans-serif" font-size="14" lengthAdjust="spacing" textLength="239" x="1220.5" y="675.5889">CheckStartOfIfStatement(Line&amp;)</text><ellipse cx="1211.5" cy="688.5391" fill="#84BE84" rx="3" ry="3" style="stroke:#038048;stroke-width:1.0;"/><text fill="#000000" font-family="sans-serif" font-size="14" lengthAdjust="spacing" textLength="258" x="1220.5" y="691.8857">CheckStartOfElseStatement(Line&amp;)</text><ellipse cx="1211.5" cy="704.8359" fill="#84BE84" rx="3" ry="3" style="stroke:#038048;stroke-width:1.0;"/><text fill="#000000" font-family="sans-serif" font-size="14" lengthAdjust="spacing" textLength="232" x="1220.5" y="708.1826">HasElseStatements(Line&amp;): bool</text><ellipse cx="1211.5" cy="721.1328" fill="#84BE84" rx="3" ry="3" style="stroke:#038048;stroke-width:1.0;"/><text fill="#000000" font-family="sans-serif" font-size="14" lengthAdjust="spacing" textLength="262" x="1220.5" y="724.4795">IsEndOfThenStatement(Line&amp;): bool</text><ellipse cx="1211.5" cy="737.4297" fill="#84BE84" rx="3" ry="3" style="stroke:#038048;stroke-width:1.0;"/><text fill="#000000" font-family="sans-serif" font-size="14" lengthAdjust="spacing" textLength="265" x="1220.5" y="740.7764">IsEndOfIfElseStatement(Line&amp;): bool</text></g><!--class WhileStatementParser--><g id="elem_WhileStatementParser"><rect codeLine="36" fill="#F1F1F1" height="113.1875" id="WhileStatementParser" rx="2.5" ry="2.5" style="stroke:#181818;stroke-width:0.5;" width="371" x="794.5" y="610.5"/><ellipse cx="893.75" cy="626.5" fill="#ADD1B2" rx="11" ry="11" style="stroke:#181818;stroke-width:1.0;"/><path d="M896.0938,622.1719 C895.1563,621.7344 894.5625,621.5938 893.6875,621.5938 C891.0625,621.5938 889.0625,623.6719 889.0625,626.3906 L889.0625,627.5156 C889.0625,630.0938 891.1719,631.9844 894.0625,631.9844 C895.2813,631.9844 896.4375,631.6875 897.1875,631.1406 C897.7656,630.7344 898.0938,630.2813 898.0938,629.8906 C898.0938,629.4375 897.7031,629.0469 897.2344,629.0469 C897.0156,629.0469 896.8125,629.125 896.625,629.3125 C896.1719,629.7969 896.1719,629.7969 895.9844,629.8906 C895.5625,630.1563 894.875,630.2813 894.1094,630.2813 C892.0625,630.2813 890.7656,629.1875 890.7656,627.4844 L890.7656,626.3906 C890.7656,624.6094 892.0156,623.2969 893.75,623.2969 C894.3281,623.2969 894.9375,623.4531 895.4063,623.7031 C895.8906,623.9844 896.0625,624.2031 896.1563,624.6094 C896.2188,625.0156 896.25,625.1406 896.3906,625.2656 C896.5313,625.4063 896.7656,625.5156 896.9844,625.5156 C897.25,625.5156 897.5156,625.375 897.6875,625.1563 C897.7969,625 897.8281,624.8125 897.8281,624.3906 L897.8281,622.9688 C897.8281,622.5313 897.8125,622.4063 897.7188,622.25 C897.5625,621.9844 897.2813,621.8438 896.9844,621.8438 C896.6875,621.8438 896.4844,621.9375 896.2656,622.25 L896.0938,622.1719 Z " fill="#000000"/><text fill="#000000" font-family="sans-serif" font-size="14" lengthAdjust="spacing" textLength="164" x="914.25" y="631.3467">WhileStatementParser</text><line style="stroke:#181818;stroke-width:0.5;" x1="795.5" x2="1164.5" y1="642.5" y2="642.5"/><line style="stroke:#181818;stroke-width:0.5;" x1="795.5" x2="1164.5" y1="650.5" y2="650.5"/><ellipse cx="805.5" cy="664.1484" fill="#84BE84" rx="3" ry="3" style="stroke:#038048;stroke-width:1.0;"/><text fill="#000000" font-family="sans-serif" font-size="14" lengthAdjust="spacing" textLength="337" x="814.5" y="667.4951">ParseEntity(TokenStream&amp;): WhileStatement*</text><ellipse cx="805.5" cy="680.4453" fill="#84BE84" rx="3" ry="3" style="stroke:#038048;stroke-width:1.0;"/><text fill="#000000" font-family="sans-serif" font-size="14" lengthAdjust="spacing" textLength="345" x="814.5" y="683.792">ExtractCondition(Line&amp;): ConditionalOperation*</text><ellipse cx="805.5" cy="696.7422" fill="#84BE84" rx="3" ry="3" style="stroke:#038048;stroke-width:1.0;"/><text fill="#000000" font-family="sans-serif" font-size="14" lengthAdjust="spacing" textLength="265" x="814.5" y="700.0889">CheckStartOfLoopStatement(Line&amp;)</text><ellipse cx="805.5" cy="713.0391" fill="#84BE84" rx="3" ry="3" style="stroke:#038048;stroke-width:1.0;"/><text fill="#000000" font-family="sans-serif" font-size="14" lengthAdjust="spacing" textLength="266" x="814.5" y="716.3857">IsEndOfWhileStatement(Line&amp;): bool</text></g><!--class ReadStatementParser--><g id="elem_ReadStatementParser"><rect codeLine="42" fill="#F1F1F1" height="96.8906" id="ReadStatementParser" rx="2.5" ry="2.5" style="stroke:#181818;stroke-width:0.5;" width="359" x="400.5" y="618.5"/><ellipse cx="495.75" cy="634.5" fill="#ADD1B2" rx="11" ry="11" style="stroke:#181818;stroke-width:1.0;"/><path d="M498.0938,630.1719 C497.1563,629.7344 496.5625,629.5938 495.6875,629.5938 C493.0625,629.5938 491.0625,631.6719 491.0625,634.3906 L491.0625,635.5156 C491.0625,638.0938 493.1719,639.9844 496.0625,639.9844 C497.2813,639.9844 498.4375,639.6875 499.1875,639.1406 C499.7656,638.7344 500.0938,638.2813 500.0938,637.8906 C500.0938,637.4375 499.7031,637.0469 499.2344,637.0469 C499.0156,637.0469 498.8125,637.125 498.625,637.3125 C498.1719,637.7969 498.1719,637.7969 497.9844,637.8906 C497.5625,638.1563 496.875,638.2813 496.1094,638.2813 C494.0625,638.2813 492.7656,637.1875 492.7656,635.4844 L492.7656,634.3906 C492.7656,632.6094 494.0156,631.2969 495.75,631.2969 C496.3281,631.2969 496.9375,631.4531 497.4063,631.7031 C497.8906,631.9844 498.0625,632.2031 498.1563,632.6094 C498.2188,633.0156 498.25,633.1406 498.3906,633.2656 C498.5313,633.4063 498.7656,633.5156 498.9844,633.5156 C499.25,633.5156 499.5156,633.375 499.6875,633.1563 C499.7969,633 499.8281,632.8125 499.8281,632.3906 L499.8281,630.9688 C499.8281,630.5313 499.8125,630.4063 499.7188,630.25 C499.5625,629.9844 499.2813,629.8438 498.9844,629.8438 C498.6875,629.8438 498.4844,629.9375 498.2656,630.25 L498.0938,630.1719 Z " fill="#000000"/><text fill="#000000" font-family="sans-serif" font-size="14" lengthAdjust="spacing" textLength="160" x="516.25" y="639.3467">ReadStatementParser</text><line style="stroke:#181818;stroke-width:0.5;" x1="401.5" x2="758.5" y1="650.5" y2="650.5"/><line style="stroke:#181818;stroke-width:0.5;" x1="401.5" x2="758.5" y1="658.5" y2="658.5"/><ellipse cx="411.5" cy="672.1484" fill="#84BE84" rx="3" ry="3" style="stroke:#038048;stroke-width:1.0;"/><text fill="#000000" font-family="sans-serif" font-size="14" lengthAdjust="spacing" textLength="333" x="420.5" y="675.4951">ParseEntity(TokenStream&amp;): ReadStatement*</text><ellipse cx="411.5" cy="688.4453" fill="#84BE84" rx="3" ry="3" style="stroke:#038048;stroke-width:1.0;"/><text fill="#000000" font-family="sans-serif" font-size="14" lengthAdjust="spacing" textLength="255" x="420.5" y="691.792">ExtractVariableName(Line&amp;): string</text><ellipse cx="411.5" cy="704.7422" fill="#84BE84" rx="3" ry="3" style="stroke:#038048;stroke-width:1.0;"/><text fill="#000000" font-family="sans-serif" font-size="14" lengthAdjust="spacing" textLength="219" x="420.5" y="708.0889">CheckEndOfStatement(Line&amp;)</text></g><!--class PrintStatementParser--><g id="elem_PrintStatementParser"><rect codeLine="47" fill="#F1F1F1" height="96.8906" id="PrintStatementParser" rx="2.5" ry="2.5" style="stroke:#181818;stroke-width:0.5;" width="358" x="7" y="618.5"/><ellipse cx="102.25" cy="634.5" fill="#ADD1B2" rx="11" ry="11" style="stroke:#181818;stroke-width:1.0;"/><path d="M104.5938,630.1719 C103.6563,629.7344 103.0625,629.5938 102.1875,629.5938 C99.5625,629.5938 97.5625,631.6719 97.5625,634.3906 L97.5625,635.5156 C97.5625,638.0938 99.6719,639.9844 102.5625,639.9844 C103.7813,639.9844 104.9375,639.6875 105.6875,639.1406 C106.2656,638.7344 106.5938,638.2813 106.5938,637.8906 C106.5938,637.4375 106.2031,637.0469 105.7344,637.0469 C105.5156,637.0469 105.3125,637.125 105.125,637.3125 C104.6719,637.7969 104.6719,637.7969 104.4844,637.8906 C104.0625,638.1563 103.375,638.2813 102.6094,638.2813 C100.5625,638.2813 99.2656,637.1875 99.2656,635.4844 L99.2656,634.3906 C99.2656,632.6094 100.5156,631.2969 102.25,631.2969 C102.8281,631.2969 103.4375,631.4531 103.9063,631.7031 C104.3906,631.9844 104.5625,632.2031 104.6563,632.6094 C104.7188,633.0156 104.75,633.1406 104.8906,633.2656 C105.0313,633.4063 105.2656,633.5156 105.4844,633.5156 C105.75,633.5156 106.0156,633.375 106.1875,633.1563 C106.2969,633 106.3281,632.8125 106.3281,632.3906 L106.3281,630.9688 C106.3281,630.5313 106.3125,630.4063 106.2188,630.25 C106.0625,629.9844 105.7813,629.8438 105.4844,629.8438 C105.1875,629.8438 104.9844,629.9375 104.7656,630.25 L104.5938,630.1719 Z " fill="#000000"/><text fill="#000000" font-family="sans-serif" font-size="14" lengthAdjust="spacing" textLength="159" x="122.75" y="639.3467">PrintStatementParser</text><line style="stroke:#181818;stroke-width:0.5;" x1="8" x2="364" y1="650.5" y2="650.5"/><line style="stroke:#181818;stroke-width:0.5;" x1="8" x2="364" y1="658.5" y2="658.5"/><ellipse cx="18" cy="672.1484" fill="#84BE84" rx="3" ry="3" style="stroke:#038048;stroke-width:1.0;"/><text fill="#000000" font-family="sans-serif" font-size="14" lengthAdjust="spacing" textLength="332" x="27" y="675.4951">ParseEntity(TokenStream&amp;): PrintStatement*</text><ellipse cx="18" cy="688.4453" fill="#84BE84" rx="3" ry="3" style="stroke:#038048;stroke-width:1.0;"/><text fill="#000000" font-family="sans-serif" font-size="14" lengthAdjust="spacing" textLength="255" x="27" y="691.792">ExtractVariableName(Line&amp;): string</text><ellipse cx="18" cy="704.7422" fill="#84BE84" rx="3" ry="3" style="stroke:#038048;stroke-width:1.0;"/><text fill="#000000" font-family="sans-serif" font-size="14" lengthAdjust="spacing" textLength="219" x="27" y="708.0889">CheckEndOfStatement(Line&amp;)</text></g><!--class ExpressionParserFactory--><g id="elem_ExpressionParserFactory"><rect codeLine="54" fill="#F1F1F1" height="80.5938" id="ExpressionParserFactory" rx="2.5" ry="2.5" style="stroke:#181818;stroke-width:0.5;" width="416" x="2011" y="626.5"/><ellipse cx="2126.25" cy="642.5" fill="#ADD1B2" rx="11" ry="11" style="stroke:#181818;stroke-width:1.0;"/><path d="M2128.5938,638.1719 C2127.6563,637.7344 2127.0625,637.5938 2126.1875,637.5938 C2123.5625,637.5938 2121.5625,639.6719 2121.5625,642.3906 L2121.5625,643.5156 C2121.5625,646.0938 2123.6719,647.9844 2126.5625,647.9844 C2127.7813,647.9844 2128.9375,647.6875 2129.6875,647.1406 C2130.2656,646.7344 2130.5938,646.2813 2130.5938,645.8906 C2130.5938,645.4375 2130.2031,645.0469 2129.7344,645.0469 C2129.5156,645.0469 2129.3125,645.125 2129.125,645.3125 C2128.6719,645.7969 2128.6719,645.7969 2128.4844,645.8906 C2128.0625,646.1563 2127.375,646.2813 2126.6094,646.2813 C2124.5625,646.2813 2123.2656,645.1875 2123.2656,643.4844 L2123.2656,642.3906 C2123.2656,640.6094 2124.5156,639.2969 2126.25,639.2969 C2126.8281,639.2969 2127.4375,639.4531 2127.9063,639.7031 C2128.3906,639.9844 2128.5625,640.2031 2128.6563,640.6094 C2128.7188,641.0156 2128.75,641.1406 2128.8906,641.2656 C2129.0313,641.4063 2129.2656,641.5156 2129.4844,641.5156 C2129.75,641.5156 2130.0156,641.375 2130.1875,641.1563 C2130.2969,641 2130.3281,640.8125 2130.3281,640.3906 L2130.3281,638.9688 C2130.3281,638.5313 2130.3125,638.4063 2130.2188,638.25 C2130.0625,637.9844 2129.7813,637.8438 2129.4844,637.8438 C2129.1875,637.8438 2128.9844,637.9375 2128.7656,638.25 L2128.5938,638.1719 Z " fill="#000000"/><text fill="#000000" font-family="sans-serif" font-size="14" lengthAdjust="spacing" textLength="177" x="2146.75" y="647.3467">ExpressionParserFactory</text><line style="stroke:#181818;stroke-width:0.5;" x1="2012" x2="2426" y1="658.5" y2="658.5"/><line style="stroke:#181818;stroke-width:0.5;" x1="2012" x2="2426" y1="666.5" y2="666.5"/><ellipse cx="2022" cy="680.1484" fill="#84BE84" rx="3" ry="3" style="stroke:#038048;stroke-width:1.0;"/><text fill="#000000" font-family="sans-serif" font-size="14" lengthAdjust="spacing" text-decoration="underline" textLength="390" x="2031" y="683.4951">GetExpressionParser(Line&amp;, string): ExpressionParser*</text><rect fill="#F24D5C" height="6" style="stroke:#C82930;stroke-width:1.0;" width="6" x="2019" y="693.4453"/><text fill="#000000" font-family="sans-serif" font-size="14" lengthAdjust="spacing" text-decoration="underline" textLength="301" x="2031" y="699.792">CheckExpressionType(Line&amp;, string): bool</text></g><!--class ExpressionParser--><g id="elem_ExpressionParser"><rect codeLine="58" fill="#F1F1F1" height="64.2969" id="ExpressionParser" rx="2.5" ry="2.5" style="stroke:#181818;stroke-width:0.5;" width="254" x="2132" y="808"/><ellipse cx="2193.75" cy="824" fill="#B4A7E5" rx="11" ry="11" style="stroke:#181818;stroke-width:1.0;"/><path d="M2194.7031,820.7813 L2196.4219,820.7813 C2196.8125,820.7813 2197,820.75 2197.125,820.6719 C2197.3906,820.5156 2197.5313,820.2344 2197.5313,819.9375 C2197.5313,819.6719 2197.4219,819.4063 2197.1875,819.2344 C2197.0156,819.125 2196.875,819.0938 2196.4219,819.0938 L2191.2813,819.0938 C2190.8438,819.0938 2190.7188,819.1094 2190.5625,819.2031 C2190.3125,819.3594 2190.1563,819.6563 2190.1563,819.9375 C2190.1563,820.2188 2190.2969,820.4688 2190.5156,820.6406 C2190.6719,820.75 2190.8594,820.7813 2191.2813,820.7813 L2193,820.7813 L2193,827.2969 L2191.2813,827.2969 C2190.8438,827.2969 2190.7188,827.3125 2190.5625,827.4219 C2190.3125,827.5781 2190.1563,827.8594 2190.1563,828.1563 C2190.1563,828.4063 2190.2969,828.6719 2190.5156,828.8281 C2190.6719,828.9531 2190.875,829 2191.2813,829 L2196.4219,829 C2197.1719,829 2197.5313,828.7188 2197.5313,828.1563 C2197.5313,827.875 2197.4219,827.625 2197.1875,827.4531 C2197.0156,827.3281 2196.875,827.2969 2196.4219,827.2969 L2194.7031,827.2969 L2194.7031,820.7813 Z " fill="#000000"/><text fill="#000000" font-family="sans-serif" font-size="14" font-style="italic" lengthAdjust="spacing" textLength="122" x="2214.25" y="828.8467">ExpressionParser</text><line style="stroke:#181818;stroke-width:0.5;" x1="2133" x2="2385" y1="840" y2="840"/><line style="stroke:#181818;stroke-width:0.5;" x1="2133" x2="2385" y1="848" y2="848"/><ellipse cx="2143" cy="861.6484" fill="#84BE84" rx="3" ry="3" style="stroke:#038048;stroke-width:1.0;"/><text fill="#000000" font-family="sans-serif" font-size="14" lengthAdjust="spacing" textLength="228" x="2152" y="864.9951">ParseEntity(Line&amp;): Expression*</text></g><!--class VariableParser--><g id="elem_VariableParser"><rect codeLine="63" fill="#F1F1F1" height="64.2969" id="VariableParser" rx="2.5" ry="2.5" style="stroke:#181818;stroke-width:0.5;" width="235" x="2415.5" y="1127.5"/><ellipse cx="2476.75" cy="1143.5" fill="#ADD1B2" rx="11" ry="11" style="stroke:#181818;stroke-width:1.0;"/><path d="M2479.0938,1139.1719 C2478.1563,1138.7344 2477.5625,1138.5938 2476.6875,1138.5938 C2474.0625,1138.5938 2472.0625,1140.6719 2472.0625,1143.3906 L2472.0625,1144.5156 C2472.0625,1147.0938 2474.1719,1148.9844 2477.0625,1148.9844 C2478.2813,1148.9844 2479.4375,1148.6875 2480.1875,1148.1406 C2480.7656,1147.7344 2481.0938,1147.2813 2481.0938,1146.8906 C2481.0938,1146.4375 2480.7031,1146.0469 2480.2344,1146.0469 C2480.0156,1146.0469 2479.8125,1146.125 2479.625,1146.3125 C2479.1719,1146.7969 2479.1719,1146.7969 2478.9844,1146.8906 C2478.5625,1147.1563 2477.875,1147.2813 2477.1094,1147.2813 C2475.0625,1147.2813 2473.7656,1146.1875 2473.7656,1144.4844 L2473.7656,1143.3906 C2473.7656,1141.6094 2475.0156,1140.2969 2476.75,1140.2969 C2477.3281,1140.2969 2477.9375,1140.4531 2478.4063,1140.7031 C2478.8906,1140.9844 2479.0625,1141.2031 2479.1563,1141.6094 C2479.2188,1142.0156 2479.25,1142.1406 2479.3906,1142.2656 C2479.5313,1142.4063 2479.7656,1142.5156 2479.9844,1142.5156 C2480.25,1142.5156 2480.5156,1142.375 2480.6875,1142.1563 C2480.7969,1142 2480.8281,1141.8125 2480.8281,1141.3906 L2480.8281,1139.9688 C2480.8281,1139.5313 2480.8125,1139.4063 2480.7188,1139.25 C2480.5625,1138.9844 2480.2813,1138.8438 2479.9844,1138.8438 C2479.6875,1138.8438 2479.4844,1138.9375 2479.2656,1139.25 L2479.0938,1139.1719 Z " fill="#000000"/><text fill="#000000" font-family="sans-serif" font-size="14" lengthAdjust="spacing" textLength="104" x="2497.25" y="1148.3467">VariableParser</text><line style="stroke:#181818;stroke-width:0.5;" x1="2416.5" x2="2649.5" y1="1159.5" y2="1159.5"/><line style="stroke:#181818;stroke-width:0.5;" x1="2416.5" x2="2649.5" y1="1167.5" y2="1167.5"/><ellipse cx="2426.5" cy="1181.1484" fill="#84BE84" rx="3" ry="3" style="stroke:#038048;stroke-width:1.0;"/><text fill="#000000" font-family="sans-serif" font-size="14" lengthAdjust="spacing" textLength="209" x="2435.5" y="1184.4951">ParseEntity(Line&amp;): Variable*</text></g><!--class ConstantParser--><g id="elem_ConstantParser"><rect codeLine="66" fill="#F1F1F1" height="64.2969" id="ConstantParser" rx="2.5" ry="2.5" style="stroke:#181818;stroke-width:0.5;" width="242" x="2138" y="1127.5"/><ellipse cx="2199.25" cy="1143.5" fill="#ADD1B2" rx="11" ry="11" style="stroke:#181818;stroke-width:1.0;"/><path d="M2201.5938,1139.1719 C2200.6563,1138.7344 2200.0625,1138.5938 2199.1875,1138.5938 C2196.5625,1138.5938 2194.5625,1140.6719 2194.5625,1143.3906 L2194.5625,1144.5156 C2194.5625,1147.0938 2196.6719,1148.9844 2199.5625,1148.9844 C2200.7813,1148.9844 2201.9375,1148.6875 2202.6875,1148.1406 C2203.2656,1147.7344 2203.5938,1147.2813 2203.5938,1146.8906 C2203.5938,1146.4375 2203.2031,1146.0469 2202.7344,1146.0469 C2202.5156,1146.0469 2202.3125,1146.125 2202.125,1146.3125 C2201.6719,1146.7969 2201.6719,1146.7969 2201.4844,1146.8906 C2201.0625,1147.1563 2200.375,1147.2813 2199.6094,1147.2813 C2197.5625,1147.2813 2196.2656,1146.1875 2196.2656,1144.4844 L2196.2656,1143.3906 C2196.2656,1141.6094 2197.5156,1140.2969 2199.25,1140.2969 C2199.8281,1140.2969 2200.4375,1140.4531 2200.9063,1140.7031 C2201.3906,1140.9844 2201.5625,1141.2031 2201.6563,1141.6094 C2201.7188,1142.0156 2201.75,1142.1406 2201.8906,1142.2656 C2202.0313,1142.4063 2202.2656,1142.5156 2202.4844,1142.5156 C2202.75,1142.5156 2203.0156,1142.375 2203.1875,1142.1563 C2203.2969,1142 2203.3281,1141.8125 2203.3281,1141.3906 L2203.3281,1139.9688 C2203.3281,1139.5313 2203.3125,1139.4063 2203.2188,1139.25 C2203.0625,1138.9844 2202.7813,1138.8438 2202.4844,1138.8438 C2202.1875,1138.8438 2201.9844,1138.9375 2201.7656,1139.25 L2201.5938,1139.1719 Z " fill="#000000"/><text fill="#000000" font-family="sans-serif" font-size="14" lengthAdjust="spacing" textLength="111" x="2219.75" y="1148.3467">ConstantParser</text><line style="stroke:#181818;stroke-width:0.5;" x1="2139" x2="2379" y1="1159.5" y2="1159.5"/><line style="stroke:#181818;stroke-width:0.5;" x1="2139" x2="2379" y1="1167.5" y2="1167.5"/><ellipse cx="2149" cy="1181.1484" fill="#84BE84" rx="3" ry="3" style="stroke:#038048;stroke-width:1.0;"/><text fill="#000000" font-family="sans-serif" font-size="14" lengthAdjust="spacing" textLength="216" x="2158" y="1184.4951">ParseEntity(Line&amp;): Constant*</text></g><!--class OperationParser--><g id="elem_OperationParser"><rect codeLine="69" fill="#F1F1F1" height="455.4219" id="OperationParser" rx="2.5" ry="2.5" style="stroke:#181818;stroke-width:0.5;" width="294" x="1809" y="932"/><ellipse cx="1892.75" cy="948" fill="#ADD1B2" rx="11" ry="11" style="stroke:#181818;stroke-width:1.0;"/><path d="M1895.0938,943.6719 C1894.1563,943.2344 1893.5625,943.0938 1892.6875,943.0938 C1890.0625,943.0938 1888.0625,945.1719 1888.0625,947.8906 L1888.0625,949.0156 C1888.0625,951.5938 1890.1719,953.4844 1893.0625,953.4844 C1894.2813,953.4844 1895.4375,953.1875 1896.1875,952.6406 C1896.7656,952.2344 1897.0938,951.7813 1897.0938,951.3906 C1897.0938,950.9375 1896.7031,950.5469 1896.2344,950.5469 C1896.0156,950.5469 1895.8125,950.625 1895.625,950.8125 C1895.1719,951.2969 1895.1719,951.2969 1894.9844,951.3906 C1894.5625,951.6563 1893.875,951.7813 1893.1094,951.7813 C1891.0625,951.7813 1889.7656,950.6875 1889.7656,948.9844 L1889.7656,947.8906 C1889.7656,946.1094 1891.0156,944.7969 1892.75,944.7969 C1893.3281,944.7969 1893.9375,944.9531 1894.4063,945.2031 C1894.8906,945.4844 1895.0625,945.7031 1895.1563,946.1094 C1895.2188,946.5156 1895.25,946.6406 1895.3906,946.7656 C1895.5313,946.9063 1895.7656,947.0156 1895.9844,947.0156 C1896.25,947.0156 1896.5156,946.875 1896.6875,946.6563 C1896.7969,946.5 1896.8281,946.3125 1896.8281,945.8906 L1896.8281,944.4688 C1896.8281,944.0313 1896.8125,943.9063 1896.7188,943.75 C1896.5625,943.4844 1896.2813,943.3438 1895.9844,943.3438 C1895.6875,943.3438 1895.4844,943.4375 1895.2656,943.75 L1895.0938,943.6719 Z " fill="#000000"/><text fill="#000000" font-family="sans-serif" font-size="14" lengthAdjust="spacing" textLength="118" x="1913.25" y="952.8467">OperationParser</text><line style="stroke:#181818;stroke-width:0.5;" x1="1810" x2="2102" y1="964" y2="964"/><rect fill="none" height="6" style="stroke:#C82930;stroke-width:1.0;" width="6" x="1817" y="974.6484"/><text fill="#000000" font-family="sans-serif" font-size="14" lengthAdjust="spacing" textLength="77" x="1829" y="980.9951">line_: Line;</text><rect fill="none" height="6" style="stroke:#C82930;stroke-width:1.0;" width="6" x="1817" y="990.9453"/><text fill="#000000" font-family="sans-serif" font-size="14" lengthAdjust="spacing" textLength="156" x="1829" y="997.292">is_inherit_args_: bool;</text><rect fill="none" height="6" style="stroke:#C82930;stroke-width:1.0;" width="6" x="1817" y="1007.2422"/><text fill="#000000" font-family="sans-serif" font-size="14" lengthAdjust="spacing" textLength="175" x="1829" y="1013.5889">starting_pos_value_: int;</text><rect fill="none" height="6" style="stroke:#C82930;stroke-width:1.0;" width="6" x="1817" y="1023.5391"/><text fill="#000000" font-family="sans-serif" font-size="14" lengthAdjust="spacing" textLength="69" x="1829" y="1029.8857">pos_: int*</text><rect fill="none" height="6" style="stroke:#C82930;stroke-width:1.0;" width="6" x="1817" y="1039.8359"/><text fill="#000000" font-family="sans-serif" font-size="14" lengthAdjust="spacing" textLength="147" x="1829" y="1046.1826">curr_token_:Token*;</text><rect fill="none" height="6" style="stroke:#C82930;stroke-width:1.0;" width="6" x="1817" y="1056.1328"/><text fill="#000000" font-family="sans-serif" font-size="14" lengthAdjust="spacing" textLength="176" x="1829" y="1062.4795">curr_token_value_:string</text><rect fill="none" height="6" style="stroke:#C82930;stroke-width:1.0;" width="6" x="1817" y="1072.4297"/><text fill="#000000" font-family="sans-serif" font-size="14" lengthAdjust="spacing" textLength="127" x="1829" y="1078.7764">is_sub_expr_:bool</text><rect fill="none" height="6" style="stroke:#C82930;stroke-width:1.0;" width="6" x="1817" y="1088.7266"/><text fill="#000000" font-family="sans-serif" font-size="14" lengthAdjust="spacing" textLength="265" x="1829" y="1095.0732">is_processed_curr_token_value_:bool</text><rect fill="none" height="6" style="stroke:#C82930;stroke-width:1.0;" width="6" x="1817" y="1105.0234"/><text fill="#000000" font-family="sans-serif" font-size="14" lengthAdjust="spacing" textLength="232" x="1829" y="1111.3701">is_processed_curr_token_: bool*</text><line style="stroke:#181818;stroke-width:0.5;" x1="1810" x2="2102" y1="1118.6719" y2="1118.6719"/><ellipse cx="1820" cy="1132.3203" fill="#84BE84" rx="3" ry="3" style="stroke:#038048;stroke-width:1.0;"/><text fill="#000000" font-family="sans-serif" font-size="14" lengthAdjust="spacing" textLength="223" x="1829" y="1135.667">ParseEntity(Line&amp;): Operation*</text><ellipse cx="1820" cy="1148.6172" fill="#84BE84" rx="3" ry="3" style="stroke:#038048;stroke-width:1.0;"/><text fill="#000000" font-family="sans-serif" font-size="14" lengthAdjust="spacing" textLength="136" x="1829" y="1151.9639">IsEndOfLine(): bool</text><ellipse cx="1820" cy="1164.9141" fill="#84BE84" rx="3" ry="3" style="stroke:#038048;stroke-width:1.0;"/><text fill="#000000" font-family="sans-serif" font-size="14" lengthAdjust="spacing" textLength="268" x="1829" y="1168.2607">GetCurrentTokenType(): TokenType;</text><ellipse cx="1820" cy="1181.2109" fill="#84BE84" rx="3" ry="3" style="stroke:#038048;stroke-width:1.0;"/><text fill="#000000" font-family="sans-serif" font-size="14" lengthAdjust="spacing" textLength="227" x="1829" y="1184.5576">GetCurrentTokenValue(): string</text><ellipse cx="1820" cy="1197.5078" fill="#84BE84" rx="3" ry="3" style="stroke:#038048;stroke-width:1.0;"/><text fill="#000000" font-family="sans-serif" font-size="14" lengthAdjust="spacing" textLength="98" x="1829" y="1200.8545">GetPos(): int*</text><ellipse cx="1820" cy="1213.8047" fill="#84BE84" rx="3" ry="3" style="stroke:#038048;stroke-width:1.0;"/><text fill="#000000" font-family="sans-serif" font-size="14" lengthAdjust="spacing" textLength="205" x="1829" y="1217.1514">InheritArgs(int* bool, bool*):</text><ellipse cx="1820" cy="1230.1016" fill="#84BE84" rx="3" ry="3" style="stroke:#038048;stroke-width:1.0;"/><text fill="#000000" font-family="sans-serif" font-size="14" lengthAdjust="spacing" textLength="257" x="1829" y="1233.4482">UpdateCurrTokenWithUpdatedPos()</text><ellipse cx="1820" cy="1246.3984" fill="#84BE84" rx="3" ry="3" style="stroke:#038048;stroke-width:1.0;"/><text fill="#000000" font-family="sans-serif" font-size="14" lengthAdjust="spacing" textLength="113" x="1829" y="1249.7451">GetLine(): Line*</text><ellipse cx="1820" cy="1262.6953" fill="#84BE84" rx="3" ry="3" style="stroke:#038048;stroke-width:1.0;"/><text fill="#000000" font-family="sans-serif" font-size="14" lengthAdjust="spacing" textLength="71" x="1829" y="1266.042">GetNext()</text><ellipse cx="1820" cy="1278.9922" fill="#84BE84" rx="3" ry="3" style="stroke:#038048;stroke-width:1.0;"/><text fill="#000000" font-family="sans-serif" font-size="14" lengthAdjust="spacing" textLength="149" x="1829" y="1282.3389">GetIsSubExpr(): bool</text><ellipse cx="1820" cy="1295.2891" fill="#84BE84" rx="3" ry="3" style="stroke:#038048;stroke-width:1.0;"/><text fill="#000000" font-family="sans-serif" font-size="14" lengthAdjust="spacing" textLength="138" x="1829" y="1298.6357">SetIsSubExpr(bool)</text><ellipse cx="1820" cy="1311.5859" fill="#84BE84" rx="3" ry="3" style="stroke:#038048;stroke-width:1.0;"/><text fill="#000000" font-family="sans-serif" font-size="14" lengthAdjust="spacing" textLength="240" x="1829" y="1314.9326">GetIsProcessedCurrToken():bool*</text><ellipse cx="1820" cy="1327.8828" fill="#84BE84" rx="3" ry="3" style="stroke:#038048;stroke-width:1.0;"/><text fill="#000000" font-family="sans-serif" font-size="14" lengthAdjust="spacing" textLength="247" x="1829" y="1331.2295">ValidateEnoughTokensToProcess()</text><rect fill="#F24D5C" height="6" style="stroke:#C82930;stroke-width:1.0;" width="6" x="1817" y="1341.1797"/><text fill="#000000" font-family="sans-serif" font-size="14" lengthAdjust="spacing" textLength="122" x="1829" y="1347.5264">void Setup(Line);</text><rect fill="#F24D5C" height="6" style="stroke:#C82930;stroke-width:1.0;" width="6" x="1817" y="1357.4766"/><text fill="#000000" font-family="sans-serif" font-size="14" lengthAdjust="spacing" textLength="148" x="1829" y="1363.8232">Parse(): Expression*;</text><rect fill="#F24D5C" height="6" style="stroke:#C82930;stroke-width:1.0;" width="6" x="1817" y="1373.7734"/><text fill="#000000" font-family="sans-serif" font-size="14" lengthAdjust="spacing" textLength="246" x="1829" y="1380.1201">ValidateForBalancedParenthesis();</text></g><!--class RelationalOperationParser--><g id="elem_RelationalOperationParser"><rect codeLine="98" fill="#F1F1F1" height="80.5938" id="RelationalOperationParser" rx="2.5" ry="2.5" style="stroke:#181818;stroke-width:0.5;" width="222" x="2105" y="1455"/><ellipse cx="2120" cy="1471" fill="#ADD1B2" rx="11" ry="11" style="stroke:#181818;stroke-width:1.0;"/><path d="M2122.3438,1466.6719 C2121.4063,1466.2344 2120.8125,1466.0938 2119.9375,1466.0938 C2117.3125,1466.0938 2115.3125,1468.1719 2115.3125,1470.8906 L2115.3125,1472.0156 C2115.3125,1474.5938 2117.4219,1476.4844 2120.3125,1476.4844 C2121.5313,1476.4844 2122.6875,1476.1875 2123.4375,1475.6406 C2124.0156,1475.2344 2124.3438,1474.7813 2124.3438,1474.3906 C2124.3438,1473.9375 2123.9531,1473.5469 2123.4844,1473.5469 C2123.2656,1473.5469 2123.0625,1473.625 2122.875,1473.8125 C2122.4219,1474.2969 2122.4219,1474.2969 2122.2344,1474.3906 C2121.8125,1474.6563 2121.125,1474.7813 2120.3594,1474.7813 C2118.3125,1474.7813 2117.0156,1473.6875 2117.0156,1471.9844 L2117.0156,1470.8906 C2117.0156,1469.1094 2118.2656,1467.7969 2120,1467.7969 C2120.5781,1467.7969 2121.1875,1467.9531 2121.6563,1468.2031 C2122.1406,1468.4844 2122.3125,1468.7031 2122.4063,1469.1094 C2122.4688,1469.5156 2122.5,1469.6406 2122.6406,1469.7656 C2122.7813,1469.9063 2123.0156,1470.0156 2123.2344,1470.0156 C2123.5,1470.0156 2123.7656,1469.875 2123.9375,1469.6563 C2124.0469,1469.5 2124.0781,1469.3125 2124.0781,1468.8906 L2124.0781,1467.4688 C2124.0781,1467.0313 2124.0625,1466.9063 2123.9688,1466.75 C2123.8125,1466.4844 2123.5313,1466.3438 2123.2344,1466.3438 C2122.9375,1466.3438 2122.7344,1466.4375 2122.5156,1466.75 L2122.3438,1466.6719 Z " fill="#000000"/><text fill="#000000" font-family="sans-serif" font-size="14" lengthAdjust="spacing" textLength="190" x="2134" y="1475.8467">RelationalOperationParser</text><line style="stroke:#181818;stroke-width:0.5;" x1="2106" x2="2326" y1="1487" y2="1487"/><line style="stroke:#181818;stroke-width:0.5;" x1="2106" x2="2326" y1="1495" y2="1495"/><ellipse cx="2116" cy="1508.6484" fill="#84BE84" rx="3" ry="3" style="stroke:#038048;stroke-width:1.0;"/><text fill="#000000" font-family="sans-serif" font-size="14" lengthAdjust="spacing" textLength="143" x="2125" y="1511.9951">Parse(): Expression*</text><rect fill="#F24D5C" height="6" style="stroke:#C82930;stroke-width:1.0;" width="6" x="2113" y="1521.9453"/><text fill="#000000" font-family="sans-serif" font-size="14" lengthAdjust="spacing" textLength="150" x="2125" y="1528.292">Factor(): Expression*</text></g><!--class ArithmeticOperationParser--><g id="elem_ArithmeticOperationParser"><rect codeLine="102" fill="#F1F1F1" height="96.8906" id="ArithmeticOperationParser" rx="2.5" ry="2.5" style="stroke:#181818;stroke-width:0.5;" width="228" x="1842" y="1447"/><ellipse cx="1857" cy="1463" fill="#ADD1B2" rx="11" ry="11" style="stroke:#181818;stroke-width:1.0;"/><path d="M1859.3438,1458.6719 C1858.4063,1458.2344 1857.8125,1458.0938 1856.9375,1458.0938 C1854.3125,1458.0938 1852.3125,1460.1719 1852.3125,1462.8906 L1852.3125,1464.0156 C1852.3125,1466.5938 1854.4219,1468.4844 1857.3125,1468.4844 C1858.5313,1468.4844 1859.6875,1468.1875 1860.4375,1467.6406 C1861.0156,1467.2344 1861.3438,1466.7813 1861.3438,1466.3906 C1861.3438,1465.9375 1860.9531,1465.5469 1860.4844,1465.5469 C1860.2656,1465.5469 1860.0625,1465.625 1859.875,1465.8125 C1859.4219,1466.2969 1859.4219,1466.2969 1859.2344,1466.3906 C1858.8125,1466.6563 1858.125,1466.7813 1857.3594,1466.7813 C1855.3125,1466.7813 1854.0156,1465.6875 1854.0156,1463.9844 L1854.0156,1462.8906 C1854.0156,1461.1094 1855.2656,1459.7969 1857,1459.7969 C1857.5781,1459.7969 1858.1875,1459.9531 1858.6563,1460.2031 C1859.1406,1460.4844 1859.3125,1460.7031 1859.4063,1461.1094 C1859.4688,1461.5156 1859.5,1461.6406 1859.6406,1461.7656 C1859.7813,1461.9063 1860.0156,1462.0156 1860.2344,1462.0156 C1860.5,1462.0156 1860.7656,1461.875 1860.9375,1461.6563 C1861.0469,1461.5 1861.0781,1461.3125 1861.0781,1460.8906 L1861.0781,1459.4688 C1861.0781,1459.0313 1861.0625,1458.9063 1860.9688,1458.75 C1860.8125,1458.4844 1860.5313,1458.3438 1860.2344,1458.3438 C1859.9375,1458.3438 1859.7344,1458.4375 1859.5156,1458.75 L1859.3438,1458.6719 Z " fill="#000000"/><text fill="#000000" font-family="sans-serif" font-size="14" lengthAdjust="spacing" textLength="196" x="1871" y="1467.8467">ArithmeticOperationParser</text><line style="stroke:#181818;stroke-width:0.5;" x1="1843" x2="2069" y1="1479" y2="1479"/><line style="stroke:#181818;stroke-width:0.5;" x1="1843" x2="2069" y1="1487" y2="1487"/><ellipse cx="1853" cy="1500.6484" fill="#84BE84" rx="3" ry="3" style="stroke:#038048;stroke-width:1.0;"/><text fill="#000000" font-family="sans-serif" font-size="14" lengthAdjust="spacing" textLength="143" x="1862" y="1503.9951">Parse(): Expression*</text><rect fill="#F24D5C" height="6" style="stroke:#C82930;stroke-width:1.0;" width="6" x="1850" y="1513.9453"/><text fill="#000000" font-family="sans-serif" font-size="14" lengthAdjust="spacing" textLength="150" x="1862" y="1520.292">Factor(): Expression*</text><rect fill="#F24D5C" height="6" style="stroke:#C82930;stroke-width:1.0;" width="6" x="1850" y="1530.2422"/><text fill="#000000" font-family="sans-serif" font-size="14" lengthAdjust="spacing" textLength="142" x="1862" y="1536.5889">Term(): Expression*</text></g><!--class ConditionalOperationParser--><g id="elem_ConditionalOperationParser"><rect codeLine="107" fill="#F1F1F1" height="64.2969" id="ConditionalOperationParser" rx="2.5" ry="2.5" style="stroke:#181818;stroke-width:0.5;" width="232" x="1575" y="1463.5"/><ellipse cx="1590" cy="1479.5" fill="#ADD1B2" rx="11" ry="11" style="stroke:#181818;stroke-width:1.0;"/><path d="M1592.3438,1475.1719 C1591.4063,1474.7344 1590.8125,1474.5938 1589.9375,1474.5938 C1587.3125,1474.5938 1585.3125,1476.6719 1585.3125,1479.3906 L1585.3125,1480.5156 C1585.3125,1483.0938 1587.4219,1484.9844 1590.3125,1484.9844 C1591.5313,1484.9844 1592.6875,1484.6875 1593.4375,1484.1406 C1594.0156,1483.7344 1594.3438,1483.2813 1594.3438,1482.8906 C1594.3438,1482.4375 1593.9531,1482.0469 1593.4844,1482.0469 C1593.2656,1482.0469 1593.0625,1482.125 1592.875,1482.3125 C1592.4219,1482.7969 1592.4219,1482.7969 1592.2344,1482.8906 C1591.8125,1483.1563 1591.125,1483.2813 1590.3594,1483.2813 C1588.3125,1483.2813 1587.0156,1482.1875 1587.0156,1480.4844 L1587.0156,1479.3906 C1587.0156,1477.6094 1588.2656,1476.2969 1590,1476.2969 C1590.5781,1476.2969 1591.1875,1476.4531 1591.6563,1476.7031 C1592.1406,1476.9844 1592.3125,1477.2031 1592.4063,1477.6094 C1592.4688,1478.0156 1592.5,1478.1406 1592.6406,1478.2656 C1592.7813,1478.4063 1593.0156,1478.5156 1593.2344,1478.5156 C1593.5,1478.5156 1593.7656,1478.375 1593.9375,1478.1563 C1594.0469,1478 1594.0781,1477.8125 1594.0781,1477.3906 L1594.0781,1475.9688 C1594.0781,1475.5313 1594.0625,1475.4063 1593.9688,1475.25 C1593.8125,1474.9844 1593.5313,1474.8438 1593.2344,1474.8438 C1592.9375,1474.8438 1592.7344,1474.9375 1592.5156,1475.25 L1592.3438,1475.1719 Z " fill="#000000"/><text fill="#000000" font-family="sans-serif" font-size="14" lengthAdjust="spacing" textLength="200" x="1604" y="1484.3467">ConditionalOperationParser</text><line style="stroke:#181818;stroke-width:0.5;" x1="1576" x2="1806" y1="1495.5" y2="1495.5"/><line style="stroke:#181818;stroke-width:0.5;" x1="1576" x2="1806" y1="1503.5" y2="1503.5"/><ellipse cx="1586" cy="1517.1484" fill="#84BE84" rx="3" ry="3" style="stroke:#038048;stroke-width:1.0;"/><text fill="#000000" font-family="sans-serif" font-size="14" lengthAdjust="spacing" textLength="143" x="1595" y="1520.4951">Parse(): Expression*</text></g><!--reverse link StatementParser to AssignStatementParser--><g id="link_StatementParser_AssignStatementParser"><path d="M1482.12,533.78 C1515.97,547.57 1554.24,563.324 1589,578 C1619.57,590.907 1652.62,605.172 1682.95,618.392 " fill="none" id="StatementParser-backto-AssignStatementParser" style="stroke:#181818;stroke-width:1.0;stroke-dasharray:7.0,7.0;"/><polygon fill="none" points="1479.18,540.14,1463.29,526.12,1484.45,527.17,1479.18,540.14" style="stroke:#181818;stroke-width:1.0;"/></g><!--reverse link StatementParser to IfStatementParser--><g id="link_StatementParser_IfStatementParser"><path d="M1386,546.5 C1386,558.87 1386,572.381 1386,585.718 " fill="none" id="StatementParser-backto-IfStatementParser" style="stroke:#181818;stroke-width:1.0;stroke-dasharray:7.0,7.0;"/><polygon fill="none" points="1379,546.36,1386,526.36,1393,546.36,1379,546.36" style="stroke:#181818;stroke-width:1.0;"/></g><!--reverse link StatementParser to WhileStatementParser--><g id="link_StatementParser_WhileStatementParser"><path d="M1289.9,533.81 C1256.05,547.61 1217.78,563.355 1183,578 C1158.4,588.361 1132.19,599.583 1107.06,610.433 " fill="none" id="StatementParser-backto-WhileStatementParser" style="stroke:#181818;stroke-width:1.0;stroke-dasharray:7.0,7.0;"/><polygon fill="none" points="1287.56,527.21,1308.73,526.15,1292.84,540.17,1287.56,527.21" style="stroke:#181818;stroke-width:1.0;"/></g><!--reverse link StatementParser to ReadStatementParser--><g id="link_StatementParser_ReadStatementParser"><path d="M1204.37,506.17 C1081.82,517 917.461,537.95 777,578 C741.698,588.067 704.554,603.322 672.153,618.318 " fill="none" id="StatementParser-backto-ReadStatementParser" style="stroke:#181818;stroke-width:1.0;stroke-dasharray:7.0,7.0;"/><polygon fill="none" points="1203.92,499.19,1224.44,504.46,1205.11,513.13,1203.92,499.19" style="stroke:#181818;stroke-width:1.0;"/></g><!--reverse link StatementParser to PrintStatementParser--><g id="link_StatementParser_PrintStatementParser"><path d="M1203.82,502.72 C957.931,514.41 533.309,539.41 383,578 C346.537,587.362 308.342,602.936 275.394,618.402 " fill="none" id="StatementParser-backto-PrintStatementParser" style="stroke:#181818;stroke-width:1.0;stroke-dasharray:7.0,7.0;"/><polygon fill="none" points="1203.82,495.71,1224.13,501.77,1204.48,509.7,1203.82,495.71" style="stroke:#181818;stroke-width:1.0;"/></g><!--reverse link ExpressionParser to VariableParser--><g id="link_ExpressionParser_VariableParser"><path d="M2343.67,882.192 C2362.92,893.991 2382.3,908.049 2398,924 C2458.3,985.27 2501.38,1078.773 2521.04,1127.117 " fill="none" id="ExpressionParser-backto-VariableParser" style="stroke:#181818;stroke-width:1.0;stroke-dasharray:7.0,7.0;"/><polygon fill="none" points="2339.91,888.102,2326.13,872.001,2346.94,875.998,2339.91,888.102" style="stroke:#181818;stroke-width:1.0;"/></g><!--reverse link ExpressionParser to ConstantParser--><g id="link_ExpressionParser_ConstantParser"><path d="M2259,892.192 C2259,958.657 2259,1072.609 2259,1127.353 " fill="none" id="ExpressionParser-backto-ConstantParser" style="stroke:#181818;stroke-width:1.0;stroke-dasharray:7.0,7.0;"/><polygon fill="none" points="2252,892.021,2259,872.021,2266,892.021,2252,892.021" style="stroke:#181818;stroke-width:1.0;"/></g><!--reverse link ExpressionParser to OperationParser--><g id="link_ExpressionParser_OperationParser"><path d="M2176.72,882.338 C2156.99,894.29 2136.78,908.382 2120,924 C2114.27,929.33 2108.63,934.892 2103.08,940.637 " fill="none" id="ExpressionParser-backto-OperationParser" style="stroke:#181818;stroke-width:1.0;stroke-dasharray:7.0,7.0;"/><polygon fill="none" points="2173.41,876.166,2194.22,872.191,2180.43,888.278,2173.41,876.166" style="stroke:#181818;stroke-width:1.0;"/></g><!--link Parser to ProcedureParser--><g id="link_Parser_ProcedureParser"><path codeLine="111" d="M1493,88.28 C1493,105.07 1493,124.85 1493,142.83 " fill="none" id="Parser-to-ProcedureParser" style="stroke:#181818;stroke-width:1.0;stroke-dasharray:7.0,7.0;"/><polygon fill="#181818" points="1493,147.84,1497,138.84,1493,142.84,1489,138.84,1493,147.84" style="stroke:#181818;stroke-width:1.0;"/></g><!--link ProcedureParser to StatementParser--><g id="link_ProcedureParser_StatementParser"><path codeLine="112" d="M1556.03,245.13 C1570.98,259.94 1584.92,277.55 1593,297 C1610.91,340.09 1618.51,362.92 1593,402 C1576.11,427.87 1550.05,446.43 1522.04,459.74 " fill="none" id="ProcedureParser-to-StatementParser" style="stroke:#181818;stroke-width:1.0;stroke-dasharray:7.0,7.0;"/><polygon fill="#181818" points="1517.16,462,1527.0081,461.88,1521.704,459.9138,1523.6702,454.6096,1517.16,462" style="stroke:#181818;stroke-width:1.0;"/></g><!--link ProcedureParser to StatementParserFactory--><g id="link_ProcedureParser_StatementParserFactory"><path codeLine="113" d="M1451.39,245.27 C1436.05,262.88 1418.61,282.91 1402.98,300.85 " fill="none" id="ProcedureParser-to-StatementParserFactory" style="stroke:#181818;stroke-width:1.0;stroke-dasharray:7.0,7.0;"/><polygon fill="#181818" points="1399.47,304.89,1408.3979,300.7316,1402.7544,301.12,1402.366,295.4765,1399.47,304.89" style="stroke:#181818;stroke-width:1.0;"/></g><!--link StatementParserFactory to StatementParser--><g id="link_StatementParserFactory_StatementParser"><path codeLine="114" d="M1367.64,402.16 C1371.25,420.03 1375.29,440.03 1378.66,456.71 " fill="none" id="StatementParserFactory-to-StatementParser" style="stroke:#181818;stroke-width:1.0;stroke-dasharray:7.0,7.0;"/><polygon fill="#181818" points="1379.69,461.77,1381.8096,452.1519,1378.6902,456.871,1373.9711,453.7516,1379.69,461.77" style="stroke:#181818;stroke-width:1.0;"/></g><!--link StatementParser to ExpressionParser--><g id="link_StatementParser_ExpressionParser"><path codeLine="115" d="M1547.62,495.87 C1829.17,499.07 2385.43,513.58 2445,578 C2498.71,636.084 2488.06,689.634 2445,756 C2430.93,777.692 2409.72,793.764 2386.6,805.656 " fill="none" id="StatementParser-to-ExpressionParser" style="stroke:#181818;stroke-width:1.0;stroke-dasharray:7.0,7.0;"/><polygon fill="#181818" points="2381.95,807.979,2391.7893,807.5444,2386.425,805.7487,2388.2207,800.3844,2381.95,807.979" style="stroke:#181818;stroke-width:1.0;"/></g><!--link StatementParser to ExpressionParserFactory--><g id="link_StatementParser_ExpressionParserFactory"><path codeLine="116" d="M1547.79,506.81 C1671.02,518.29 1844.08,539.76 1992,578 C2037.22,589.69 2085.7,607.686 2126.2,624.365 " fill="none" id="StatementParser-to-ExpressionParserFactory" style="stroke:#181818;stroke-width:1.0;stroke-dasharray:7.0,7.0;"/><polygon fill="#181818" points="2131.1,626.392,2124.3166,619.2516,2126.4808,624.4781,2121.2543,626.6422,2131.1,626.392" style="stroke:#181818;stroke-width:1.0;"/></g><!--link ExpressionParserFactory to ExpressionParser--><g id="link_ExpressionParserFactory_ExpressionParser"><path codeLine="117" d="M2228.28,707.661 C2234.99,736.361 2243.99,774.845 2250.52,802.731 " fill="none" id="ExpressionParserFactory-to-ExpressionParser" style="stroke:#181818;stroke-width:1.0;stroke-dasharray:7.0,7.0;"/><polygon fill="#181818" points="2251.7,807.81,2253.5467,798.1358,2250.562,802.9412,2245.7567,799.9566,2251.7,807.81" style="stroke:#181818;stroke-width:1.0;"/></g><!--reverse link OperationParser to ArithmeticOperationParser--><g id="link_OperationParser_ArithmeticOperationParser"><path codeLine="120" d="M1956,1407.565 C1956,1421.894 1956,1435.193 1956,1446.864 " fill="none" id="OperationParser-backto-ArithmeticOperationParser" style="stroke:#181818;stroke-width:1.0;"/><polygon fill="none" points="1949,1407.442,1956,1387.442,1963,1407.442,1949,1407.442" style="stroke:#181818;stroke-width:1.0;"/></g><!--reverse link OperationParser to RelationalOperationParser--><g id="link_OperationParser_RelationalOperationParser"><path codeLine="121" d="M2115.79,1389.861 C2117.2,1391.585 2118.6,1393.298 2120,1395 C2136.94,1415.568 2157.24,1437.006 2174.8,1454.693 " fill="none" id="OperationParser-backto-RelationalOperationParser" style="stroke:#181818;stroke-width:1.0;"/><polygon fill="none" points="2110.2,1394.078,2103.18,1374.086,2121.14,1385.334,2110.2,1394.078" style="stroke:#181818;stroke-width:1.0;"/></g><!--reverse link OperationParser to ConditionalOperationParser--><g id="link_OperationParser_ConditionalOperationParser"><path codeLine="122" d="M1796.16,1361.953 C1764.73,1401.566 1735.45,1438.475 1715.81,1463.2317 " fill="none" id="OperationParser-backto-ConditionalOperationParser" style="stroke:#181818;stroke-width:1.0;"/><polygon fill="none" points="1790.86,1357.374,1808.78,1346.058,1801.83,1366.076,1790.86,1357.374" style="stroke:#181818;stroke-width:1.0;"/></g><!--SRC=[hLPTJzim57tFhyWJQWFb1z1fqeRALWq1eXqyHcxYDXQf7TaEesByzzrhvwDn72XQUG3YUtpkkSVsjPESA1NU4Qce35-3yDJykn2bJEXeAPueNsX9oVPaV17UIR6HP1i1AdnLccYMl8Lp1SC9JKj9HzUCKmIkXCY3jo2nt7LuBubDEEEQwPqdYyL7mLwQsOkM9D4Ol27RDfNIal5Du1SquwchIOiDrPcHOUKjO1hTKgwjl2j88kJEgcmuVr3ju5pLJXWychJJBpEQF7rJYcquGfQxml6g1_v5Tt-4J5laMLNfcPdGriEufd9D4keg-D3d1Xy1JMjCxOkLwvAoRP6RR_NfV0wXsKNLgZuGoSWgfxwL1PHn1DRoTjtCDgZm98VVusQdpTU7omMrxylT8uiCjj9wANZAD1Ey4TgCaFose9BWltQA4GuqKj-kvuxuat4FCilXvFb0Fudgn9IpUm0oLyQWPKQvIz57pRsfcZrLsVcOiPn-oj5t3UtIxI__mPPsxReMekZRrHJPpUVlJVUKfCUhiCDsXFrzCjvhed3GZwUqItSigPxkEdif98M3B_W7xTK5ThiUQ701dWxRGlfzqzSnNSf-2wiDQ97-Pbcxrb-OmtFK756pw70Ae3xVSljO1sXhafQsEL7_nUkqkkhGONHKUtqQmW-ixMKf9Lvxk0VDoW2W-PW2pC4yaBmqeEPoDpHtGk4WmrfmQCvX1PZ-9ZTgX8CcgRqVe_65WVmkKjYbo6s87vdEx51go103nBLe_1jPEJVqHTiuVitLeboXDvtI5li1SojNVDKBH2cQDgbXfX664AYFeOWP5-KcCs6r5DKSo3e9GxpOOgjeYjzCnSoM6nEeDxOoJ4XXDmIRuaAe-1cjYur99XZYOEKPVYQW9zQOCRumYQEfErvHLDvZ49AhSXLJg3CsLTIZHLrct9zVuuPWjWAZwbcm5Dqi2xExnbQIsNIZxk4paTg-Ao6_avnmUEi15ZPFHXK3_wR-LdHFS-9SAUwprya67SRsgr6l1LHl95YFR4kX0ts2ClHpGc19vNOebUz6t3-ZtcJeGmKwF__gliG3zsME6ESYEGHJzVHWu2NjOtLlCiIulUSWK9rxw9xn4WU1Q-6NlvF9y6hwuOFxoGyVNi1_]--></g></svg>