<?xml version="1.0" encoding="UTF-8" standalone="no"?><svg xmlns="http://www.w3.org/2000/svg" xmlns:xlink="http://www.w3.org/1999/xlink" contentStyleType="text/css" height="577px" preserveAspectRatio="none" style="width:2425px;height:577px;background:#FFFFFF;" version="1.1" viewBox="0 0 2425 577" width="2425px" zoomAndPan="magnify"><defs/><g><!--class Tokenizer--><g id="elem_Tokenizer"><rect codeLine="1" fill="#F1F1F1" height="276.1563" id="Tokenizer" rx="2.5" ry="2.5" style="stroke:#181818;stroke-width:0.5;" width="796" x="43" y="80.5"/><ellipse cx="400.75" cy="96.5" fill="#ADD1B2" rx="11" ry="11" style="stroke:#181818;stroke-width:1.0;"/><path d="M403.0938,92.1719 C402.1563,91.7344 401.5625,91.5938 400.6875,91.5938 C398.0625,91.5938 396.0625,93.6719 396.0625,96.3906 L396.0625,97.5156 C396.0625,100.0938 398.1719,101.9844 401.0625,101.9844 C402.2813,101.9844 403.4375,101.6875 404.1875,101.1406 C404.7656,100.7344 405.0938,100.2813 405.0938,99.8906 C405.0938,99.4375 404.7031,99.0469 404.2344,99.0469 C404.0156,99.0469 403.8125,99.125 403.625,99.3125 C403.1719,99.7969 403.1719,99.7969 402.9844,99.8906 C402.5625,100.1563 401.875,100.2813 401.1094,100.2813 C399.0625,100.2813 397.7656,99.1875 397.7656,97.4844 L397.7656,96.3906 C397.7656,94.6094 399.0156,93.2969 400.75,93.2969 C401.3281,93.2969 401.9375,93.4531 402.4063,93.7031 C402.8906,93.9844 403.0625,94.2031 403.1563,94.6094 C403.2188,95.0156 403.25,95.1406 403.3906,95.2656 C403.5313,95.4063 403.7656,95.5156 403.9844,95.5156 C404.25,95.5156 404.5156,95.375 404.6875,95.1563 C404.7969,95 404.8281,94.8125 404.8281,94.3906 L404.8281,92.9688 C404.8281,92.5313 404.8125,92.4063 404.7188,92.25 C404.5625,91.9844 404.2813,91.8438 403.9844,91.8438 C403.6875,91.8438 403.4844,91.9375 403.2656,92.25 L403.0938,92.1719 Z " fill="#000000"/><text fill="#000000" font-family="sans-serif" font-size="14" lengthAdjust="spacing" textLength="72" x="421.25" y="101.3467">Tokenizer</text><line style="stroke:#181818;stroke-width:0.5;" x1="44" x2="838" y1="112.5" y2="112.5"/><ellipse cx="54" cy="126.1484" fill="none" rx="3" ry="3" style="stroke:#038048;stroke-width:1.0;"/><text fill="#000000" font-family="sans-serif" font-size="14" lengthAdjust="spacing" text-decoration="underline" textLength="109" x="63" y="129.4951">NAME_TYPE:int</text><ellipse cx="54" cy="142.4453" fill="none" rx="3" ry="3" style="stroke:#038048;stroke-width:1.0;"/><text fill="#000000" font-family="sans-serif" font-size="14" lengthAdjust="spacing" text-decoration="underline" textLength="130" x="63" y="145.792">INTEGER_TYPE:int</text><ellipse cx="54" cy="158.7422" fill="none" rx="3" ry="3" style="stroke:#038048;stroke-width:1.0;"/><text fill="#000000" font-family="sans-serif" font-size="14" lengthAdjust="spacing" text-decoration="underline" textLength="89" x="63" y="162.0889">NOT_SET:int</text><ellipse cx="54" cy="175.0391" fill="none" rx="3" ry="3" style="stroke:#038048;stroke-width:1.0;"/><text fill="#000000" font-family="sans-serif" font-size="14" lengthAdjust="spacing" text-decoration="underline" textLength="263" x="63" y="178.3857">ARITHMETIC_OPERATOR_RULE:string</text><ellipse cx="54" cy="191.3359" fill="none" rx="3" ry="3" style="stroke:#038048;stroke-width:1.0;"/><text fill="#000000" font-family="sans-serif" font-size="14" lengthAdjust="spacing" text-decoration="underline" textLength="274" x="63" y="194.6826">CONDITIONAL_OPERATOR_RULE:string</text><ellipse cx="54" cy="207.6328" fill="none" rx="3" ry="3" style="stroke:#038048;stroke-width:1.0;"/><text fill="#000000" font-family="sans-serif" font-size="14" lengthAdjust="spacing" text-decoration="underline" textLength="265" x="63" y="210.9795">RELATIONAL_OPERATOR_RULE:string</text><ellipse cx="54" cy="223.9297" fill="none" rx="3" ry="3" style="stroke:#038048;stroke-width:1.0;"/><text fill="#000000" font-family="sans-serif" font-size="14" lengthAdjust="spacing" text-decoration="underline" textLength="276" x="63" y="227.2764">PUNCTUATION_OPERATOR_RULE:string</text><ellipse cx="54" cy="240.2266" fill="none" rx="3" ry="3" style="stroke:#038048;stroke-width:1.0;"/><text fill="#000000" font-family="sans-serif" font-size="14" lengthAdjust="spacing" text-decoration="underline" textLength="372" x="63" y="243.5732">TOKEN_TYPES:unordered_map&lt;string, TokenType&gt;</text><line style="stroke:#181818;stroke-width:0.5;" x1="44" x2="838" y1="250.875" y2="250.875"/><rect fill="#F24D5C" height="6" style="stroke:#C82930;stroke-width:1.0;" width="6" x="51" y="261.5234"/><text fill="#000000" font-family="sans-serif" font-size="14" lengthAdjust="spacing" textLength="319" x="63" y="267.8701">SplitLines(stream:istream&amp;):vector&lt;string&gt;</text><rect fill="#F24D5C" height="6" style="stroke:#C82930;stroke-width:1.0;" width="6" x="51" y="277.8203"/><text fill="#000000" font-family="sans-serif" font-size="14" lengthAdjust="spacing" textLength="524" x="63" y="284.167">CombineNameOrInteger(start_index:shared_ptr&lt;int&gt;, current_index:int)</text><rect fill="#F24D5C" height="6" style="stroke:#C82930;stroke-width:1.0;" width="6" x="51" y="294.1172"/><text fill="#000000" font-family="sans-serif" font-size="14" lengthAdjust="spacing" textLength="720" x="63" y="300.4639">MatchOtherToken(first_char_index:int, line:string, skip_index:shared_ptr&lt;int&gt;):shared_ptr&lt;Token&gt;</text><rect fill="#F24D5C" height="6" style="stroke:#C82930;stroke-width:1.0;" width="6" x="51" y="310.4141"/><text fill="#000000" font-family="sans-serif" font-size="14" lengthAdjust="spacing" textLength="770" x="63" y="316.7607">MatchNameOrIntegerToken(lrv:shared_ptr&lt;LexicalRuleValidator&gt;, val:string, type:int):shared_ptr&lt;Token&gt;</text><ellipse cx="54" cy="329.7109" fill="#84BE84" rx="3" ry="3" style="stroke:#038048;stroke-width:1.0;"/><text fill="#000000" font-family="sans-serif" font-size="14" lengthAdjust="spacing" textLength="82" x="63" y="333.0576">Tokenizer()</text><ellipse cx="54" cy="346.0078" fill="#84BE84" rx="3" ry="3" style="stroke:#038048;stroke-width:1.0;"/><text fill="#000000" font-family="sans-serif" font-size="14" lengthAdjust="spacing" textLength="456" x="63" y="349.3545">Tokenize(stream:istream&amp;):shared_ptr&lt;Parser::TokenStream&gt;</text></g><!--class Token--><g id="elem_Token"><rect codeLine="18" fill="#F1F1F1" height="145.7813" id="Token" rx="2.5" ry="2.5" style="stroke:#181818;stroke-width:0.5;" width="386" x="894" y="145.5"/><ellipse cx="1060.75" cy="161.5" fill="#A9DCDF" rx="11" ry="11" style="stroke:#181818;stroke-width:1.0;"/><path d="M1062.8281,163.3125 L1063.2188,164.2969 L1062.8281,164.2969 C1062.375,164.2969 1062.2656,164.3125 1062.1094,164.4219 C1061.8594,164.5781 1061.7031,164.8594 1061.7031,165.1563 C1061.7031,165.4219 1061.8438,165.6719 1062.0625,165.8281 C1062.2031,165.9531 1062.4063,166 1062.8281,166 L1065.1875,166 C1065.5469,166 1065.7656,165.9688 1065.9063,165.875 C1066.1563,165.7344 1066.3125,165.4375 1066.3125,165.1563 C1066.3125,164.875 1066.1719,164.625 1065.9531,164.4688 C1065.7813,164.3281 1065.625,164.2969 1065.1563,164.2969 L1061.7656,156.0938 L1058.0938,156.0938 C1057.6406,156.0938 1057.5156,156.1094 1057.3594,156.2031 C1057.1094,156.375 1056.9531,156.6563 1056.9531,156.9375 C1056.9531,157.2188 1057.0938,157.4688 1057.3125,157.6406 C1057.4844,157.75 1057.6563,157.7813 1058.0938,157.7813 L1059.1719,157.7813 L1056.5313,164.2969 C1056.1094,164.2969 1055.9531,164.3125 1055.7969,164.4219 C1055.5469,164.5781 1055.3906,164.8594 1055.3906,165.1563 C1055.3906,165.7188 1055.7656,166 1056.5156,166 L1058.7813,166 C1059.1406,166 1059.3594,165.9688 1059.4844,165.875 C1059.75,165.7344 1059.8906,165.4375 1059.8906,165.1563 C1059.8906,164.875 1059.7656,164.625 1059.5469,164.4531 C1059.375,164.3281 1059.2344,164.2969 1058.7813,164.2969 L1058.3906,164.2969 L1058.7813,163.3125 L1062.8281,163.3125 Z M1062.125,161.6094 L1059.4531,161.6094 L1060.7969,158.3438 L1062.125,161.6094 Z " fill="#000000"/><text fill="#000000" font-family="sans-serif" font-size="14" font-style="italic" lengthAdjust="spacing" textLength="44" x="1081.25" y="166.3467">Token</text><line style="stroke:#181818;stroke-width:0.5;" x1="895" x2="1279" y1="177.5" y2="177.5"/><rect fill="none" height="6" style="stroke:#C82930;stroke-width:1.0;" width="6" x="902" y="188.1484"/><text fill="#000000" font-family="sans-serif" font-size="14" lengthAdjust="spacing" textLength="91" x="914" y="194.4951">value_:string</text><rect fill="none" height="6" style="stroke:#C82930;stroke-width:1.0;" width="6" x="902" y="204.4453"/><text fill="#000000" font-family="sans-serif" font-size="14" lengthAdjust="spacing" textLength="127" x="914" y="210.792">type_:TokenType</text><line style="stroke:#181818;stroke-width:0.5;" x1="895" x2="1279" y1="218.0938" y2="218.0938"/><ellipse cx="905" cy="231.7422" fill="#84BE84" rx="3" ry="3" style="stroke:#038048;stroke-width:1.0;"/><text fill="#000000" font-family="sans-serif" font-size="14" lengthAdjust="spacing" textLength="250" x="914" y="235.0889">Token(val:string, type:TokenType)</text><ellipse cx="905" cy="248.0391" fill="#84BE84" rx="3" ry="3" style="stroke:#038048;stroke-width:1.0;"/><text fill="#000000" font-family="sans-serif" font-size="14" lengthAdjust="spacing" textLength="123" x="914" y="251.3857">GetValue():string</text><ellipse cx="905" cy="264.3359" fill="#84BE84" rx="3" ry="3" style="stroke:#038048;stroke-width:1.0;"/><text fill="#000000" font-family="sans-serif" font-size="14" lengthAdjust="spacing" textLength="159" x="914" y="267.6826">GetType():TokenType</text><ellipse cx="905" cy="280.6328" fill="#84BE84" rx="3" ry="3" style="stroke:#038048;stroke-width:1.0;"/><text fill="#000000" font-family="sans-serif" font-size="14" font-style="italic" lengthAdjust="spacing" textLength="360" x="914" y="283.9795">{abstract} Equals(other:shared_ptr&lt;Token&gt;):bool</text></g><polygon fill="none" points="1087.7745,291.2813,1094.9866,311.2057,1080.9874,311.3545" style="stroke:#181818;stroke-width:1.0;"/><line style="stroke:#181818;stroke-width:1.0;" x1="1087.987" x2="1088" y1="311.2801" y2="312.5"/><line style="stroke:#181818;stroke-width:1.0;" x1="894" x2="873.937" y1="218.4897" y2="218.5"/><!--class TokenType--><g id="elem_TokenType"><rect codeLine="27" fill="#F1F1F1" height="422.8281" id="TokenType" rx="2.5" ry="2.5" style="stroke:#181818;stroke-width:0.5;" width="165" x="1335.5" y="7"/><ellipse cx="1373.9" cy="23" fill="#EB937F" rx="11" ry="11" style="stroke:#181818;stroke-width:1.0;"/><path d="M1372.6969,23.875 L1374.15,23.875 L1374.15,23.9844 C1374.15,24.3906 1374.1813,24.5469 1374.2594,24.7031 C1374.4156,24.9531 1374.6969,25.1094 1374.9938,25.1094 C1375.2438,25.1094 1375.5094,24.9688 1375.6656,24.75 C1375.7906,24.5938 1375.8219,24.4375 1375.8219,23.9844 L1375.8219,22.0625 C1375.8219,21.9063 1375.8219,21.8594 1375.8063,21.7031 C1375.7438,21.2344 1375.4313,20.9219 1374.9781,20.9219 C1374.7281,20.9219 1374.4625,21.0625 1374.2906,21.2813 C1374.1813,21.4531 1374.15,21.6094 1374.15,22.0625 L1374.15,22.1875 L1372.6969,22.1875 L1372.6969,19.7813 L1376.6813,19.7813 L1376.6813,20.6406 C1376.6813,21.0469 1376.7125,21.2188 1376.7906,21.375 C1376.9625,21.625 1377.2438,21.7813 1377.525,21.7813 C1377.7906,21.7813 1378.0563,21.6406 1378.2281,21.4219 C1378.3375,21.25 1378.3688,21.1094 1378.3688,20.6406 L1378.3688,18.0938 L1370.7438,18.0938 C1370.3063,18.0938 1370.1813,18.1094 1370.025,18.2031 C1369.775,18.3594 1369.6188,18.6563 1369.6188,18.9375 C1369.6188,19.2188 1369.7594,19.4688 1369.9781,19.6406 C1370.1344,19.75 1370.3219,19.7813 1370.7438,19.7813 L1370.9938,19.7813 L1370.9938,26.2969 L1370.7438,26.2969 C1370.3375,26.2969 1370.1813,26.3125 1370.025,26.4219 C1369.775,26.5938 1369.6188,26.8594 1369.6188,27.1563 C1369.6188,27.4219 1369.7594,27.6719 1369.9781,27.8281 C1370.1188,27.9531 1370.3531,28 1370.7438,28 L1378.7438,28 L1378.7438,25.4219 C1378.7438,24.9844 1378.7125,24.8438 1378.6344,24.6875 C1378.4625,24.4375 1378.1813,24.2813 1377.9,24.2813 C1377.6344,24.2813 1377.3688,24.3906 1377.1969,24.6406 C1377.0875,24.7969 1377.0563,24.9375 1377.0563,25.4219 L1377.0563,26.2969 L1372.6969,26.2969 L1372.6969,23.875 Z " fill="#000000"/><text fill="#000000" font-family="sans-serif" font-size="14" lengthAdjust="spacing" textLength="81" x="1393.1" y="27.8467">TokenType</text><line style="stroke:#181818;stroke-width:0.5;" x1="1336.5" x2="1499.5" y1="39" y2="39"/><text fill="#000000" font-family="sans-serif" font-size="14" lengthAdjust="spacing" textLength="143" x="1341.5" y="55.9951">LEFT_PARENTHESIS,</text><text fill="#000000" font-family="sans-serif" font-size="14" lengthAdjust="spacing" textLength="153" x="1341.5" y="72.292">RIGHT_PARENTHESIS,</text><text fill="#000000" font-family="sans-serif" font-size="14" lengthAdjust="spacing" textLength="94" x="1341.5" y="88.5889">LEFT_BRACE,</text><text fill="#000000" font-family="sans-serif" font-size="14" lengthAdjust="spacing" textLength="104" x="1341.5" y="104.8857">RIGHT_BRACE,</text><text fill="#000000" font-family="sans-serif" font-size="14" lengthAdjust="spacing" textLength="88" x="1341.5" y="121.1826">SEMICOLON,</text><text fill="#000000" font-family="sans-serif" font-size="14" lengthAdjust="spacing" textLength="118" x="1341.5" y="137.4795">DOUBLE_QUOTE,</text><text fill="#000000" font-family="sans-serif" font-size="14" lengthAdjust="spacing" textLength="109" x="1341.5" y="153.7764">SINGLE_EQUAL,</text><text fill="#000000" font-family="sans-serif" font-size="14" lengthAdjust="spacing" textLength="39" x="1341.5" y="170.0732">PLUS,</text><text fill="#000000" font-family="sans-serif" font-size="14" lengthAdjust="spacing" textLength="48" x="1341.5" y="186.3701">MINUS,</text><text fill="#000000" font-family="sans-serif" font-size="14" lengthAdjust="spacing" textLength="29" x="1341.5" y="202.667">DIV,</text><text fill="#000000" font-family="sans-serif" font-size="14" lengthAdjust="spacing" textLength="72" x="1341.5" y="218.9639">MULTIPLY,</text><text fill="#000000" font-family="sans-serif" font-size="14" lengthAdjust="spacing" textLength="38" x="1341.5" y="235.2607">MOD,</text><text fill="#000000" font-family="sans-serif" font-size="14" lengthAdjust="spacing" textLength="21" x="1341.5" y="251.5576">LT,</text><text fill="#000000" font-family="sans-serif" font-size="14" lengthAdjust="spacing" textLength="30" x="1341.5" y="267.8545">LTE,</text><text fill="#000000" font-family="sans-serif" font-size="14" lengthAdjust="spacing" textLength="24" x="1341.5" y="284.1514">GT,</text><text fill="#000000" font-family="sans-serif" font-size="14" lengthAdjust="spacing" textLength="33" x="1341.5" y="300.4482">GTE,</text><text fill="#000000" font-family="sans-serif" font-size="14" lengthAdjust="spacing" textLength="125" x="1341.5" y="316.7451">DOUBLE_EQUALS,</text><text fill="#000000" font-family="sans-serif" font-size="14" lengthAdjust="spacing" textLength="23" x="1341.5" y="333.042">NE,</text><text fill="#000000" font-family="sans-serif" font-size="14" lengthAdjust="spacing" textLength="35" x="1341.5" y="349.3389">AND,</text><text fill="#000000" font-family="sans-serif" font-size="14" lengthAdjust="spacing" textLength="25" x="1341.5" y="365.6357">OR,</text><text fill="#000000" font-family="sans-serif" font-size="14" lengthAdjust="spacing" textLength="34" x="1341.5" y="381.9326">NOT,</text><text fill="#000000" font-family="sans-serif" font-size="14" lengthAdjust="spacing" textLength="45" x="1341.5" y="398.2295">NAME,</text><text fill="#000000" font-family="sans-serif" font-size="14" lengthAdjust="spacing" textLength="62" x="1341.5" y="414.5264">INTEGER</text><line style="stroke:#181818;stroke-width:0.5;" x1="1336.5" x2="1499.5" y1="421.8281" y2="421.8281"/></g><!--class NameToken--><g id="elem_NameToken"><rect codeLine="53" fill="#F1F1F1" height="80.5938" id="NameToken" rx="2.5" ry="2.5" style="stroke:#181818;stroke-width:0.5;" width="308" x="7" y="490"/><ellipse cx="113.75" cy="506" fill="#ADD1B2" rx="11" ry="11" style="stroke:#181818;stroke-width:1.0;"/><path d="M116.0938,501.6719 C115.1563,501.2344 114.5625,501.0938 113.6875,501.0938 C111.0625,501.0938 109.0625,503.1719 109.0625,505.8906 L109.0625,507.0156 C109.0625,509.5938 111.1719,511.4844 114.0625,511.4844 C115.2813,511.4844 116.4375,511.1875 117.1875,510.6406 C117.7656,510.2344 118.0938,509.7813 118.0938,509.3906 C118.0938,508.9375 117.7031,508.5469 117.2344,508.5469 C117.0156,508.5469 116.8125,508.625 116.625,508.8125 C116.1719,509.2969 116.1719,509.2969 115.9844,509.3906 C115.5625,509.6563 114.875,509.7813 114.1094,509.7813 C112.0625,509.7813 110.7656,508.6875 110.7656,506.9844 L110.7656,505.8906 C110.7656,504.1094 112.0156,502.7969 113.75,502.7969 C114.3281,502.7969 114.9375,502.9531 115.4063,503.2031 C115.8906,503.4844 116.0625,503.7031 116.1563,504.1094 C116.2188,504.5156 116.25,504.6406 116.3906,504.7656 C116.5313,504.9063 116.7656,505.0156 116.9844,505.0156 C117.25,505.0156 117.5156,504.875 117.6875,504.6563 C117.7969,504.5 117.8281,504.3125 117.8281,503.8906 L117.8281,502.4688 C117.8281,502.0313 117.8125,501.9063 117.7188,501.75 C117.5625,501.4844 117.2813,501.3438 116.9844,501.3438 C116.6875,501.3438 116.4844,501.4375 116.2656,501.75 L116.0938,501.6719 Z " fill="#000000"/><text fill="#000000" font-family="sans-serif" font-size="14" lengthAdjust="spacing" textLength="86" x="134.25" y="510.8467">NameToken</text><line style="stroke:#181818;stroke-width:0.5;" x1="8" x2="314" y1="522" y2="522"/><line style="stroke:#181818;stroke-width:0.5;" x1="8" x2="314" y1="530" y2="530"/><ellipse cx="18" cy="543.6484" fill="#84BE84" rx="3" ry="3" style="stroke:#038048;stroke-width:1.0;"/><text fill="#000000" font-family="sans-serif" font-size="14" lengthAdjust="spacing" textLength="163" x="27" y="546.9951">NameToken(val:string)</text><ellipse cx="18" cy="559.9453" fill="#84BE84" rx="3" ry="3" style="stroke:#038048;stroke-width:1.0;"/><text fill="#000000" font-family="sans-serif" font-size="14" lengthAdjust="spacing" textLength="282" x="27" y="563.292">Equals(other:shared_ptr&lt;Token&gt;):bool</text></g><!--class IntegerToken--><g id="elem_IntegerToken"><rect codeLine="58" fill="#F1F1F1" height="80.5938" id="IntegerToken" rx="2.5" ry="2.5" style="stroke:#181818;stroke-width:0.5;" width="308" x="350" y="490"/><ellipse cx="450.75" cy="506" fill="#ADD1B2" rx="11" ry="11" style="stroke:#181818;stroke-width:1.0;"/><path d="M453.0938,501.6719 C452.1563,501.2344 451.5625,501.0938 450.6875,501.0938 C448.0625,501.0938 446.0625,503.1719 446.0625,505.8906 L446.0625,507.0156 C446.0625,509.5938 448.1719,511.4844 451.0625,511.4844 C452.2813,511.4844 453.4375,511.1875 454.1875,510.6406 C454.7656,510.2344 455.0938,509.7813 455.0938,509.3906 C455.0938,508.9375 454.7031,508.5469 454.2344,508.5469 C454.0156,508.5469 453.8125,508.625 453.625,508.8125 C453.1719,509.2969 453.1719,509.2969 452.9844,509.3906 C452.5625,509.6563 451.875,509.7813 451.1094,509.7813 C449.0625,509.7813 447.7656,508.6875 447.7656,506.9844 L447.7656,505.8906 C447.7656,504.1094 449.0156,502.7969 450.75,502.7969 C451.3281,502.7969 451.9375,502.9531 452.4063,503.2031 C452.8906,503.4844 453.0625,503.7031 453.1563,504.1094 C453.2188,504.5156 453.25,504.6406 453.3906,504.7656 C453.5313,504.9063 453.7656,505.0156 453.9844,505.0156 C454.25,505.0156 454.5156,504.875 454.6875,504.6563 C454.7969,504.5 454.8281,504.3125 454.8281,503.8906 L454.8281,502.4688 C454.8281,502.0313 454.8125,501.9063 454.7188,501.75 C454.5625,501.4844 454.2813,501.3438 453.9844,501.3438 C453.6875,501.3438 453.4844,501.4375 453.2656,501.75 L453.0938,501.6719 Z " fill="#000000"/><text fill="#000000" font-family="sans-serif" font-size="14" lengthAdjust="spacing" textLength="98" x="471.25" y="510.8467">IntegerToken</text><line style="stroke:#181818;stroke-width:0.5;" x1="351" x2="657" y1="522" y2="522"/><line style="stroke:#181818;stroke-width:0.5;" x1="351" x2="657" y1="530" y2="530"/><ellipse cx="361" cy="543.6484" fill="#84BE84" rx="3" ry="3" style="stroke:#038048;stroke-width:1.0;"/><text fill="#000000" font-family="sans-serif" font-size="14" lengthAdjust="spacing" textLength="175" x="370" y="546.9951">IntegerToken(val:string)</text><ellipse cx="361" cy="559.9453" fill="#84BE84" rx="3" ry="3" style="stroke:#038048;stroke-width:1.0;"/><text fill="#000000" font-family="sans-serif" font-size="14" lengthAdjust="spacing" textLength="282" x="370" y="563.292">Equals(other:shared_ptr&lt;Token&gt;):bool</text></g><!--class PunctuationToken--><g id="elem_PunctuationToken"><rect codeLine="63" fill="#F1F1F1" height="80.5938" id="PunctuationToken" rx="2.5" ry="2.5" style="stroke:#181818;stroke-width:0.5;" width="362" x="693" y="490"/><ellipse cx="804.25" cy="506" fill="#ADD1B2" rx="11" ry="11" style="stroke:#181818;stroke-width:1.0;"/><path d="M806.5938,501.6719 C805.6563,501.2344 805.0625,501.0938 804.1875,501.0938 C801.5625,501.0938 799.5625,503.1719 799.5625,505.8906 L799.5625,507.0156 C799.5625,509.5938 801.6719,511.4844 804.5625,511.4844 C805.7813,511.4844 806.9375,511.1875 807.6875,510.6406 C808.2656,510.2344 808.5938,509.7813 808.5938,509.3906 C808.5938,508.9375 808.2031,508.5469 807.7344,508.5469 C807.5156,508.5469 807.3125,508.625 807.125,508.8125 C806.6719,509.2969 806.6719,509.2969 806.4844,509.3906 C806.0625,509.6563 805.375,509.7813 804.6094,509.7813 C802.5625,509.7813 801.2656,508.6875 801.2656,506.9844 L801.2656,505.8906 C801.2656,504.1094 802.5156,502.7969 804.25,502.7969 C804.8281,502.7969 805.4375,502.9531 805.9063,503.2031 C806.3906,503.4844 806.5625,503.7031 806.6563,504.1094 C806.7188,504.5156 806.75,504.6406 806.8906,504.7656 C807.0313,504.9063 807.2656,505.0156 807.4844,505.0156 C807.75,505.0156 808.0156,504.875 808.1875,504.6563 C808.2969,504.5 808.3281,504.3125 808.3281,503.8906 L808.3281,502.4688 C808.3281,502.0313 808.3125,501.9063 808.2188,501.75 C808.0625,501.4844 807.7813,501.3438 807.4844,501.3438 C807.1875,501.3438 806.9844,501.4375 806.7656,501.75 L806.5938,501.6719 Z " fill="#000000"/><text fill="#000000" font-family="sans-serif" font-size="14" lengthAdjust="spacing" textLength="131" x="824.75" y="510.8467">PunctuationToken</text><line style="stroke:#181818;stroke-width:0.5;" x1="694" x2="1054" y1="522" y2="522"/><line style="stroke:#181818;stroke-width:0.5;" x1="694" x2="1054" y1="530" y2="530"/><ellipse cx="704" cy="543.6484" fill="#84BE84" rx="3" ry="3" style="stroke:#038048;stroke-width:1.0;"/><text fill="#000000" font-family="sans-serif" font-size="14" lengthAdjust="spacing" textLength="336" x="713" y="546.9951">PunctuationToken(val:string, type:TokenType)</text><ellipse cx="704" cy="559.9453" fill="#84BE84" rx="3" ry="3" style="stroke:#038048;stroke-width:1.0;"/><text fill="#000000" font-family="sans-serif" font-size="14" lengthAdjust="spacing" textLength="282" x="713" y="563.292">Equals(other:shared_ptr&lt;Token&gt;):bool</text></g><!--class ArithmeticOperatorToken--><g id="elem_ArithmeticOperatorToken"><rect codeLine="68" fill="#F1F1F1" height="80.5938" id="ArithmeticOperatorToken" rx="2.5" ry="2.5" style="stroke:#181818;stroke-width:0.5;" width="420" x="1090" y="490"/><ellipse cx="1201.25" cy="506" fill="#ADD1B2" rx="11" ry="11" style="stroke:#181818;stroke-width:1.0;"/><path d="M1203.5938,501.6719 C1202.6563,501.2344 1202.0625,501.0938 1201.1875,501.0938 C1198.5625,501.0938 1196.5625,503.1719 1196.5625,505.8906 L1196.5625,507.0156 C1196.5625,509.5938 1198.6719,511.4844 1201.5625,511.4844 C1202.7813,511.4844 1203.9375,511.1875 1204.6875,510.6406 C1205.2656,510.2344 1205.5938,509.7813 1205.5938,509.3906 C1205.5938,508.9375 1205.2031,508.5469 1204.7344,508.5469 C1204.5156,508.5469 1204.3125,508.625 1204.125,508.8125 C1203.6719,509.2969 1203.6719,509.2969 1203.4844,509.3906 C1203.0625,509.6563 1202.375,509.7813 1201.6094,509.7813 C1199.5625,509.7813 1198.2656,508.6875 1198.2656,506.9844 L1198.2656,505.8906 C1198.2656,504.1094 1199.5156,502.7969 1201.25,502.7969 C1201.8281,502.7969 1202.4375,502.9531 1202.9063,503.2031 C1203.3906,503.4844 1203.5625,503.7031 1203.6563,504.1094 C1203.7188,504.5156 1203.75,504.6406 1203.8906,504.7656 C1204.0313,504.9063 1204.2656,505.0156 1204.4844,505.0156 C1204.75,505.0156 1205.0156,504.875 1205.1875,504.6563 C1205.2969,504.5 1205.3281,504.3125 1205.3281,503.8906 L1205.3281,502.4688 C1205.3281,502.0313 1205.3125,501.9063 1205.2188,501.75 C1205.0625,501.4844 1204.7813,501.3438 1204.4844,501.3438 C1204.1875,501.3438 1203.9844,501.4375 1203.7656,501.75 L1203.5938,501.6719 Z " fill="#000000"/><text fill="#000000" font-family="sans-serif" font-size="14" lengthAdjust="spacing" textLength="189" x="1221.75" y="510.8467">ArithmeticOperatorToken</text><line style="stroke:#181818;stroke-width:0.5;" x1="1091" x2="1509" y1="522" y2="522"/><line style="stroke:#181818;stroke-width:0.5;" x1="1091" x2="1509" y1="530" y2="530"/><ellipse cx="1101" cy="543.6484" fill="#84BE84" rx="3" ry="3" style="stroke:#038048;stroke-width:1.0;"/><text fill="#000000" font-family="sans-serif" font-size="14" lengthAdjust="spacing" textLength="394" x="1110" y="546.9951">ArithmeticOperatorToken(val:string, type:TokenType)</text><ellipse cx="1101" cy="559.9453" fill="#84BE84" rx="3" ry="3" style="stroke:#038048;stroke-width:1.0;"/><text fill="#000000" font-family="sans-serif" font-size="14" lengthAdjust="spacing" textLength="282" x="1110" y="563.292">Equals(other:shared_ptr&lt;Token&gt;):bool</text></g><!--class ConditionalOperatorToken--><g id="elem_ConditionalOperatorToken"><rect codeLine="73" fill="#F1F1F1" height="80.5938" id="ConditionalOperatorToken" rx="2.5" ry="2.5" style="stroke:#181818;stroke-width:0.5;" width="424" x="1545" y="490"/><ellipse cx="1656.25" cy="506" fill="#ADD1B2" rx="11" ry="11" style="stroke:#181818;stroke-width:1.0;"/><path d="M1658.5938,501.6719 C1657.6563,501.2344 1657.0625,501.0938 1656.1875,501.0938 C1653.5625,501.0938 1651.5625,503.1719 1651.5625,505.8906 L1651.5625,507.0156 C1651.5625,509.5938 1653.6719,511.4844 1656.5625,511.4844 C1657.7813,511.4844 1658.9375,511.1875 1659.6875,510.6406 C1660.2656,510.2344 1660.5938,509.7813 1660.5938,509.3906 C1660.5938,508.9375 1660.2031,508.5469 1659.7344,508.5469 C1659.5156,508.5469 1659.3125,508.625 1659.125,508.8125 C1658.6719,509.2969 1658.6719,509.2969 1658.4844,509.3906 C1658.0625,509.6563 1657.375,509.7813 1656.6094,509.7813 C1654.5625,509.7813 1653.2656,508.6875 1653.2656,506.9844 L1653.2656,505.8906 C1653.2656,504.1094 1654.5156,502.7969 1656.25,502.7969 C1656.8281,502.7969 1657.4375,502.9531 1657.9063,503.2031 C1658.3906,503.4844 1658.5625,503.7031 1658.6563,504.1094 C1658.7188,504.5156 1658.75,504.6406 1658.8906,504.7656 C1659.0313,504.9063 1659.2656,505.0156 1659.4844,505.0156 C1659.75,505.0156 1660.0156,504.875 1660.1875,504.6563 C1660.2969,504.5 1660.3281,504.3125 1660.3281,503.8906 L1660.3281,502.4688 C1660.3281,502.0313 1660.3125,501.9063 1660.2188,501.75 C1660.0625,501.4844 1659.7813,501.3438 1659.4844,501.3438 C1659.1875,501.3438 1658.9844,501.4375 1658.7656,501.75 L1658.5938,501.6719 Z " fill="#000000"/><text fill="#000000" font-family="sans-serif" font-size="14" lengthAdjust="spacing" textLength="193" x="1676.75" y="510.8467">ConditionalOperatorToken</text><line style="stroke:#181818;stroke-width:0.5;" x1="1546" x2="1968" y1="522" y2="522"/><line style="stroke:#181818;stroke-width:0.5;" x1="1546" x2="1968" y1="530" y2="530"/><ellipse cx="1556" cy="543.6484" fill="#84BE84" rx="3" ry="3" style="stroke:#038048;stroke-width:1.0;"/><text fill="#000000" font-family="sans-serif" font-size="14" lengthAdjust="spacing" textLength="398" x="1565" y="546.9951">ConditionalOperatorToken(val:string, type:TokenType)</text><ellipse cx="1556" cy="559.9453" fill="#84BE84" rx="3" ry="3" style="stroke:#038048;stroke-width:1.0;"/><text fill="#000000" font-family="sans-serif" font-size="14" lengthAdjust="spacing" textLength="282" x="1565" y="563.292">Equals(other:shared_ptr&lt;Token&gt;):bool</text></g><!--class RelationalOperatorToken--><g id="elem_RelationalOperatorToken"><rect codeLine="78" fill="#F1F1F1" height="80.5938" id="RelationalOperatorToken" rx="2.5" ry="2.5" style="stroke:#181818;stroke-width:0.5;" width="414" x="2004" y="490"/><ellipse cx="2115.25" cy="506" fill="#ADD1B2" rx="11" ry="11" style="stroke:#181818;stroke-width:1.0;"/><path d="M2117.5938,501.6719 C2116.6563,501.2344 2116.0625,501.0938 2115.1875,501.0938 C2112.5625,501.0938 2110.5625,503.1719 2110.5625,505.8906 L2110.5625,507.0156 C2110.5625,509.5938 2112.6719,511.4844 2115.5625,511.4844 C2116.7813,511.4844 2117.9375,511.1875 2118.6875,510.6406 C2119.2656,510.2344 2119.5938,509.7813 2119.5938,509.3906 C2119.5938,508.9375 2119.2031,508.5469 2118.7344,508.5469 C2118.5156,508.5469 2118.3125,508.625 2118.125,508.8125 C2117.6719,509.2969 2117.6719,509.2969 2117.4844,509.3906 C2117.0625,509.6563 2116.375,509.7813 2115.6094,509.7813 C2113.5625,509.7813 2112.2656,508.6875 2112.2656,506.9844 L2112.2656,505.8906 C2112.2656,504.1094 2113.5156,502.7969 2115.25,502.7969 C2115.8281,502.7969 2116.4375,502.9531 2116.9063,503.2031 C2117.3906,503.4844 2117.5625,503.7031 2117.6563,504.1094 C2117.7188,504.5156 2117.75,504.6406 2117.8906,504.7656 C2118.0313,504.9063 2118.2656,505.0156 2118.4844,505.0156 C2118.75,505.0156 2119.0156,504.875 2119.1875,504.6563 C2119.2969,504.5 2119.3281,504.3125 2119.3281,503.8906 L2119.3281,502.4688 C2119.3281,502.0313 2119.3125,501.9063 2119.2188,501.75 C2119.0625,501.4844 2118.7813,501.3438 2118.4844,501.3438 C2118.1875,501.3438 2117.9844,501.4375 2117.7656,501.75 L2117.5938,501.6719 Z " fill="#000000"/><text fill="#000000" font-family="sans-serif" font-size="14" lengthAdjust="spacing" textLength="183" x="2135.75" y="510.8467">RelationalOperatorToken</text><line style="stroke:#181818;stroke-width:0.5;" x1="2005" x2="2417" y1="522" y2="522"/><line style="stroke:#181818;stroke-width:0.5;" x1="2005" x2="2417" y1="530" y2="530"/><ellipse cx="2015" cy="543.6484" fill="#84BE84" rx="3" ry="3" style="stroke:#038048;stroke-width:1.0;"/><text fill="#000000" font-family="sans-serif" font-size="14" lengthAdjust="spacing" textLength="388" x="2024" y="546.9951">RelationalOperatorToken(val:string, type:TokenType)</text><ellipse cx="2015" cy="559.9453" fill="#84BE84" rx="3" ry="3" style="stroke:#038048;stroke-width:1.0;"/><text fill="#000000" font-family="sans-serif" font-size="14" lengthAdjust="spacing" textLength="282" x="2024" y="563.292">Equals(other:shared_ptr&lt;Token&gt;):bool</text></g><!--link Tokenizer to Token--><g id="link_Tokenizer_Token"><path codeLine="83" d="M839.072,218.5 C850.694,218.5 862.315,218.5 873.937,218.5 " fill="none" id="Tokenizer-Token" style="stroke:#181818;stroke-width:1.0;"/></g><!--reverse link Token to NameToken--><g id="link_Token_NameToken"><path codeLine="87" d="M1088,312.5 C1088,312.5 967.304,396.823 857,430 C632.101,497.6449 563.451,450.174 332,490 C326.445,490.9559 320.8,491.9799 315.106,493.0572 " fill="none" id="Token-backto-NameToken" style="stroke:#181818;stroke-width:1.0;"/></g><!--reverse link Token to IntegerToken--><g id="link_Token_IntegerToken"><path codeLine="88" d="M1088,312.5 C1088,312.5 964.28,388.063 857,430 C793.25,454.921 720.794,476.4572 658.185,493.0573 " fill="none" id="Token-backto-IntegerToken" style="stroke:#181818;stroke-width:1.0;"/></g><!--reverse link Token to PunctuationToken--><g id="link_Token_PunctuationToken"><path codeLine="89" d="M1088,312.5 C1088,312.5 974.727,427.361 913.002,489.9512 " fill="none" id="Token-backto-PunctuationToken" style="stroke:#181818;stroke-width:1.0;"/></g><!--reverse link Token to ArithmeticOperatorToken--><g id="link_Token_ArithmeticOperatorToken"><path codeLine="90" d="M1088,312.5 C1088,312.5 1200.21,427.361 1261.36,489.9512 " fill="none" id="Token-backto-ArithmeticOperatorToken" style="stroke:#181818;stroke-width:1.0;"/></g><!--reverse link Token to RelationalOperatorToken--><g id="link_Token_RelationalOperatorToken"><path codeLine="91" d="M1088,312.5 C1088,312.5 1207.71,398.181 1318,430 C1604.83,512.7509 1691.07,450.71 1987,490 C1992.58,490.7406 1998.23,491.5212 2003.93,492.3349 " fill="none" id="Token-backto-RelationalOperatorToken" style="stroke:#181818;stroke-width:1.0;"/></g><!--reverse link Token to ConditionalOperatorToken--><g id="link_Token_ConditionalOperatorToken"><path codeLine="92" d="M1088,312.5 C1088,312.5 1210.08,390.898 1318,430 C1390.28,456.188 1471.84,476.9418 1544.87,492.5712 " fill="none" id="Token-backto-ConditionalOperatorToken" style="stroke:#181818;stroke-width:1.0;"/></g><!--SRC=[hLLDRwCm4BtdL_YqIjJakWTKHQA9DxMMO0gcKa_89Tx6AXZMcAhxaV- -naw2qnHjLjjBO6RUp7kU6Poye4q3IFNC1F_99FWr0k0A_6eKLJpVWT1VmumyHD3ZGfs6K4ZW2iO3qH2JB87aFE37YDok8K6B34SmzWcEipWDeDSeoSNJANY1moKY28T-S04wXe5_CJXAmmL93Vu2DC5VOMYEcdYjgEI6IRR9IbfVM_JKjf3ygDbSPyv0KXTS1LomPgmHZ9OUjyzF4- -5vQgI-qmBNrJbemQ7j6HO8g7O4vCwaKgLSR5XhrwpfHrZhUIrRkby2l9MIYOEOUsRc49hgl8jLbicZQ3nDouRbUKwkqTEGQ6vl8FovfdNxxDCN8UfD-z9JhHQiaA-k1a1U-KvBUAsOFUqu1kgJwsLlz3YoArqmupuTvck-iKSJqxiywOw-H6L3PEUPy290Sn7kz68FceqpHN8-wKt2p_hDBKiwqS_CyeoxpXLqDEFpmvmH5cHAwRkkthZoHu63kuEexr7l5soWwxZosu7uFUM5isuwYPvtfk9zrXLHNSc9jgotprpcW1-8Ldanp0ajp11oLJxOhIwFNCQu4tiBs0FEPe9NAC53d3O6KkStWGmkqiniK4KhhGDxr8_wEmeI4t5DGhjonBT6piD28g21_EEbuQKs5zJPqNiBtH8J55J93HkFpHvE3OkR3AwQwbxxk-WhX5sfjrIzdEzwcrdQ7P8bpROrdNNV5_wPFF_hthKYbor-gQfXClmrltNnVitLbzojIsPljzmpMJtSRha0z4FqG1w4OjAR7XtGbgyfs8e_C6jY5b1XqKCH3-k5VtVxyn-owEHlfH5JIKjmPEisXe9NOChAd86FkyJmFNlsQpVSDVfxgRhVxjHRcnWu2vae14kP6XWVm00]--></g></svg>